<?xml version="1.0" encoding="UTF-8"?>
<svg width="42px" height="41px" viewBox="0 0 42 41" version="1.1" xmlns="http://www.w3.org/2000/svg" xmlns:xlink="http://www.w3.org/1999/xlink">
    <!-- Generator: sketchtool 52.5 (67469) - http://www.bohemiancoding.com/sketch -->
    <title>0CE0E12C-A43F-4594-B14E-710EFA59F11C</title>
    <desc>Created with sketchtool.</desc>
    <g id="Page-1" stroke="none" stroke-width="1" fill="none" fill-rule="evenodd">
        <g id="Home_updated" transform="translate(-1034.000000, -3486.000000)" fill="#8C886D">
            <g id="Group-29" transform="translate(114.000000, 3279.000000)">
                <g id="Group-15" transform="translate(872.000000, 207.000000)">
                    <g id="ic_am_lawn" transform="translate(48.000000, 0.000000)">
                        <path d="M32.2529,38.1494 C30.8449,38.1494 29.4649,37.7514 28.2579,37.0034 C28.1929,36.9604 28.1269,36.9284 28.0509,36.9074 C28.0029,36.8914 27.9539,36.8834 27.9039,36.8774 C27.8849,36.8764 27.8689,36.8664 27.8499,36.8664 C27.8469,36.8664 27.8439,36.8684 27.8399,36.8684 C27.8319,36.8684 27.8239,36.8654 27.8159,36.8654 C27.7759,36.8654 27.7399,36.8904 27.7009,36.8964 C27.6429,36.9084 27.5849,36.9184 27.5319,36.9424 C27.4989,36.9564 27.4629,36.9524 27.4319,36.9704 C26.1389,37.7424 24.6689,38.1494 23.1789,38.1494 C20.0889,38.1494 17.3939,36.4544 15.9579,33.9494 C15.6129,33.3474 15.3499,32.7064 15.1639,32.0444 C15.1479,31.9824 15.1319,31.9214 15.1159,31.8594 C15.0499,31.5954 14.9979,31.3294 14.9569,31.0604 C14.9449,30.9814 14.9299,30.9034 14.9199,30.8234 C14.8809,30.5004 14.8569,30.1754 14.8559,29.8494 C14.8559,29.8404 14.8549,29.8324 14.8549,29.8244 C14.8549,29.8214 14.8559,29.8184 14.8559,29.8154 C14.8559,29.3874 14.8939,28.9664 14.9569,28.5514 C14.9679,28.4834 14.9809,28.4164 14.9919,28.3494 C15.0529,28.0134 15.1389,27.6844 15.2389,27.3604 C15.2849,27.2144 15.3359,27.0704 15.3899,26.9274 C15.4859,26.6684 15.5969,26.4134 15.7199,26.1644 C15.7989,26.0054 15.8829,25.8494 15.9709,25.6954 C16.1209,25.4364 16.2809,25.1824 16.4609,24.9374 C16.5449,24.8214 16.6349,24.7094 16.7249,24.5984 C16.9349,24.3394 17.1519,24.0874 17.3919,23.8574 C17.4479,23.8024 17.5099,23.7524 17.5669,23.6984 C17.8449,23.4464 18.1329,23.2054 18.4399,22.9914 C18.4679,22.9724 18.4969,22.9564 18.5239,22.9374 C18.8639,22.7074 19.2189,22.4984 19.5879,22.3204 C19.6019,22.3144 19.6169,22.3084 19.6309,22.3014 C20.0099,22.1224 20.4009,21.9704 20.8029,21.8504 C20.8099,21.8484 20.8149,21.8464 20.8209,21.8444 C20.9779,21.7984 21.1139,21.7024 21.2119,21.5714 C22.8039,19.4284 25.2369,18.1994 27.8909,18.1994 C31.3449,18.1994 34.3889,20.2844 35.6439,23.5114 C35.7069,23.6734 35.8239,23.8074 35.9759,23.8924 C38.3779,25.2424 39.8689,27.7874 39.8689,30.5334 C39.8689,34.7324 36.4529,38.1494 32.2529,38.1494 Z M1.7879,33.5974 L4.6119,25.0704 L14.5799,25.0714 C14.5329,25.1564 14.4999,25.2464 14.4559,25.3324 C14.4279,25.3874 14.4029,25.4454 14.3749,25.5024 C14.2009,25.8524 14.0499,26.2114 13.9199,26.5794 C13.8719,26.7144 13.8279,26.8504 13.7859,26.9884 C13.7329,27.1624 13.6779,27.3344 13.6359,27.5104 C13.5629,27.8064 13.5079,28.1074 13.4629,28.4124 C13.4469,28.5264 13.4339,28.6414 13.4209,28.7564 C13.3829,29.1044 13.3559,29.4544 13.3559,29.8084 C13.3559,29.8144 13.3549,29.8194 13.3549,29.8244 C13.3549,30.1514 13.3709,30.4784 13.4039,30.8024 C13.5019,31.7834 13.7449,32.7224 14.1099,33.5974 L1.7879,33.5974 Z M11.9399,2.4664 L20.3609,20.2294 C20.2969,20.3054 20.2349,20.3824 20.1749,20.4604 C20.1699,20.4664 20.1639,20.4714 20.1579,20.4784 C19.7439,20.6124 19.3459,20.7794 18.9589,20.9644 C18.9149,20.9854 18.8699,21.0044 18.8259,21.0264 C18.4619,21.2084 18.1119,21.4134 17.7759,21.6364 C17.7089,21.6814 17.6429,21.7254 17.5769,21.7714 C17.2699,21.9874 16.9749,22.2174 16.6939,22.4654 C16.6009,22.5484 16.5119,22.6344 16.4209,22.7204 C16.1759,22.9544 15.9399,23.1954 15.7199,23.4534 C15.6849,23.4944 15.6429,23.5284 15.6069,23.5704 L1.9359,23.5704 L11.9399,2.4664 Z M36.9409,22.7194 C35.4029,19.0534 31.8789,16.6994 27.8909,16.6994 C25.4889,16.6994 23.2489,17.5614 21.4839,19.0974 L12.6179,0.3924 C12.3699,-0.1306 11.5099,-0.1306 11.2619,0.3924 L0.0719,23.9994 C-0.0381,24.2314 -0.0211,24.5044 0.1169,24.7204 C0.2539,24.9384 0.4939,25.0704 0.7499,25.0704 L3.0309,25.0704 L0.0379,34.1114 C-0.0381,34.3394 0.000900000003,34.5914 0.1429,34.7854 C0.2829,34.9814 0.5099,35.0974 0.7499,35.0974 L11.1899,35.0974 L11.1899,40.2634 C11.1899,40.6774 11.5249,41.0134 11.9399,41.0134 C12.3539,41.0134 12.6899,40.6774 12.6899,40.2634 L12.6899,35.0974 L14.9029,35.0974 C16.6499,37.8294 19.7029,39.6494 23.1789,39.6494 C24.5309,39.6494 25.8609,39.3504 27.0999,38.8064 L27.0999,40.2634 C27.0999,40.6774 27.4359,41.0134 27.8499,41.0134 C28.2639,41.0134 28.5999,40.6774 28.5999,40.2634 L28.5999,38.8634 C29.7519,39.3724 30.9899,39.6494 32.2529,39.6494 C37.2799,39.6494 41.3689,35.5594 41.3689,30.5334 C41.3689,27.3354 39.6799,24.3654 36.9409,22.7194 Z" id="Fill-1"></path>
                        <path d="M35.5605,25.1792 C35.2565,24.8972 34.7835,24.9122 34.4995,25.2162 C34.2165,25.5182 34.2345,25.9932 34.5365,26.2752 C35.6075,27.2752 36.1955,28.6312 36.1955,30.0952 C36.1955,32.9782 33.8495,35.3252 30.9655,35.3252 C30.5515,35.3252 30.2155,35.6612 30.2155,36.0752 C30.2155,36.4892 30.5515,36.8252 30.9655,36.8252 C34.6765,36.8252 37.6955,33.8052 37.6955,30.0952 C37.6955,28.2382 36.9175,26.4462 35.5605,25.1792" id="Fill-4"></path>
                    </g>
                </g>
            </g>
        </g>
    </g>
</svg>