<?xml version="1.0" encoding="UTF-8"?>
<svg width="47px" height="37px" viewBox="0 0 47 37" version="1.1" xmlns="http://www.w3.org/2000/svg" xmlns:xlink="http://www.w3.org/1999/xlink">
    <!-- Generator: sketchtool 52.5 (67469) - http://www.bohemiancoding.com/sketch -->
    <title>7A99D480-4061-4D87-8E62-00C683E39F39</title>
    <desc>Created with sketchtool.</desc>
    <g id="Page-1" stroke="none" stroke-width="1" fill="none" fill-rule="evenodd">
        <g id="Home_updated" transform="translate(-377.000000, -3279.000000)" fill="#8C886D">
            <g id="Group-29" transform="translate(114.000000, 3279.000000)">
                <g id="Group-45" transform="translate(219.000000, 0.000000)">
                    <g id="ic_am_spa" transform="translate(44.000000, 0.000000)">
                        <path d="M23.1126,1.7924 C21.5086,3.4104 16.5956,8.8854 16.5956,15.2514 C16.5956,21.6904 21.6316,25.8824 23.1106,26.9754 C24.5896,25.8794 29.6266,21.6734 29.6266,15.2514 C29.6266,8.8734 24.7166,3.4074 23.1126,1.7924 M23.1116,28.6434 C22.9716,28.6434 22.8316,28.6044 22.7086,28.5234 C22.3976,28.3254 15.0956,23.5754 15.0956,15.2514 C15.0956,7.0014 22.3046,0.4644 22.6116,0.1904 C22.8966,-0.0636 23.3266,-0.0636 23.6116,0.1904 C23.9186,0.4644 31.1266,7.0014 31.1266,15.2514 C31.1266,23.5754 23.8256,28.3254 23.5146,28.5234 C23.3916,28.6044 23.2516,28.6434 23.1116,28.6434" id="Fill-1"></path>
                        <path d="M22.6145,28.642 C22.5975,28.642 22.5815,28.641 22.5645,28.64 C22.2065,28.618 13.7285,27.998 9.5985,22.029 C5.4885,16.085 7.4185,7.309 7.5025,6.939 C7.5835,6.58 7.8975,6.329 8.2825,6.356 C8.4785,6.37 13.1445,6.7 17.2695,9.262 C17.6225,9.481 17.7295,9.943 17.5105,10.294 C17.2935,10.647 16.8315,10.754 16.4785,10.538 C13.5395,8.71 10.2235,8.106 8.8435,7.924 C8.4935,10.015 7.7075,16.659 10.8335,21.175 C14.5455,26.542 22.5825,27.138 22.6635,27.143 C23.0765,27.171 23.3885,27.528 23.3615,27.941 C23.3355,28.337 23.0065,28.642 22.6145,28.642" id="Fill-3"></path>
                        <path d="M14.1565,30.9956 C12.5065,30.9956 10.7895,30.7236 9.1465,29.9946 C2.7275,27.1516 0.1375,18.5526 0.0305,18.1866 C-0.0685,17.8506 0.0795,17.4906 0.3855,17.3206 C0.5235,17.2436 3.8215,15.4306 7.9145,14.9716 C8.3205,14.9216 8.6975,15.2196 8.7435,15.6316 C8.7905,16.0436 8.4935,16.4146 8.0825,16.4606 C5.2285,16.7806 2.7345,17.8426 1.6675,18.3526 C2.3565,20.2916 4.8855,26.4666 9.7545,28.6236 C15.5165,31.1746 22.6745,27.2626 22.7475,27.2236 C23.1095,27.0196 23.5665,27.1516 23.7665,27.5146 C23.9685,27.8766 23.8385,28.3326 23.4755,28.5336 C23.2385,28.6666 18.9775,30.9956 14.1565,30.9956" id="Fill-5"></path>
                        <path d="M23.6077,28.642 C23.2157,28.642 22.8867,28.337 22.8607,27.941 C22.8337,27.528 23.1457,27.171 23.5587,27.143 C23.6397,27.138 31.6767,26.542 35.3887,21.175 C38.5207,16.649 37.7317,10.014 37.3797,7.925 C35.9977,8.109 32.6757,8.715 29.7457,10.536 C29.3927,10.753 28.9307,10.645 28.7127,10.293 C28.4947,9.942 28.6017,9.48 28.9547,9.261 C33.0787,6.7 37.7437,6.37 37.9397,6.356 C38.3147,6.33 38.6377,6.58 38.7197,6.939 C38.8037,7.309 40.7337,16.085 36.6237,22.029 C32.4937,27.998 24.0157,28.618 23.6577,28.64 C23.6407,28.641 23.6247,28.642 23.6077,28.642" id="Fill-8"></path>
                        <path d="M32.0657,30.9956 C27.2447,30.9956 22.9847,28.6666 22.7477,28.5336 C22.3847,28.3326 22.2547,27.8766 22.4567,27.5166 C22.6577,27.1516 23.1137,27.0216 23.4757,27.2236 C23.5457,27.2646 30.7187,31.1686 36.4677,28.6236 C41.3467,26.4626 43.8687,20.2906 44.5557,18.3526 C43.4887,17.8436 40.9937,16.7806 38.1397,16.4606 C37.7287,16.4146 37.4317,16.0436 37.4787,15.6316 C37.5247,15.2196 37.9057,14.9216 38.3077,14.9716 C42.4007,15.4306 45.6987,17.2436 45.8367,17.3206 C46.1427,17.4906 46.2907,17.8506 46.1917,18.1866 C46.0847,18.5526 43.4947,27.1516 37.0757,29.9946 C35.4327,30.7236 33.7157,30.9956 32.0657,30.9956" id="Fill-10"></path>
                        <path d="M33.8089,36.3315 L12.4129,36.3315 C11.9989,36.3315 11.6629,35.9955 11.6629,35.5815 C11.6629,35.1675 11.9989,34.8315 12.4129,34.8315 L33.8089,34.8315 C34.2229,34.8315 34.5589,35.1675 34.5589,35.5815 C34.5589,35.9955 34.2229,36.3315 33.8089,36.3315" id="Fill-13"></path>
                    </g>
                </g>
            </g>
        </g>
    </g>
</svg>