<?xml version="1.0" encoding="UTF-8"?>
<svg width="43px" height="42px" viewBox="0 0 43 42" version="1.1" xmlns="http://www.w3.org/2000/svg" xmlns:xlink="http://www.w3.org/1999/xlink">
    <!-- Generator: sketchtool 52.5 (67469) - http://www.bohemiancoding.com/sketch -->
    <title>7941F70C-0705-432E-96B2-3BF0489D93CC</title>
    <desc>Created with sketchtool.</desc>
    <g id="Page-1" stroke="none" stroke-width="1" fill="none" fill-rule="evenodd">
        <g id="Home_updated" transform="translate(-1239.000000, -3287.000000)" fill="#8C886D">
            <g id="Group-29" transform="translate(114.000000, 3279.000000)">
                <g id="Group-46" transform="translate(1079.000000, 8.000000)">
                    <g id="ic_am_cafe" transform="translate(46.000000, 0.000000)">
                        <path d="M1.5,14.0639 L1.5,25.1079 C1.5,33.2879 8.154,39.9419 16.334,39.9419 C24.514,39.9419 31.168,33.2879 31.168,25.1079 L31.168,14.0639 L1.5,14.0639 Z M16.334,41.4419 C7.328,41.4419 0,34.1149 0,25.1079 L0,13.3139 C0,12.8999 0.336,12.5639 0.75,12.5639 L31.918,12.5639 C32.332,12.5639 32.668,12.8999 32.668,13.3139 L32.668,25.1079 C32.668,34.1149 25.34,41.4419 16.334,41.4419 Z" id="Fill-1"></path>
                        <path d="M35.4453,26.5298 L31.8783,26.5298 C31.4643,26.5298 31.1283,26.1938 31.1283,25.7798 C31.1283,25.3658 31.4643,25.0298 31.8783,25.0298 L35.4453,25.0298 C38.4683,25.0298 40.9273,22.5698 40.9273,19.5468 C40.9273,16.5238 38.4683,14.0638 35.4453,14.0638 L32.0413,14.0638 C31.6273,14.0638 31.2913,13.7278 31.2913,13.3138 C31.2913,12.8998 31.6273,12.5638 32.0413,12.5638 L35.4453,12.5638 C39.2953,12.5638 42.4273,15.6968 42.4273,19.5468 C42.4273,23.3968 39.2953,26.5298 35.4453,26.5298" id="Fill-3"></path>
                        <path d="M22.9946,9.3569 C22.9266,9.3569 22.8586,9.3479 22.7896,9.3289 C22.3916,9.2149 22.1596,8.8009 22.2726,8.4029 L24.4926,0.5459 C24.6056,0.1479 25.0216,-0.0851 25.4186,0.0289 C25.8166,0.1409 26.0486,0.5549 25.9356,0.9549 L23.7156,8.8109 C23.6226,9.1409 23.3216,9.3569 22.9946,9.3569" id="Fill-6"></path>
                        <path d="M16.729,9.3569 C16.661,9.3569 16.593,9.3479 16.524,9.3289 C16.126,9.2149 15.894,8.8009 16.007,8.4029 L18.228,0.5459 C18.34,0.1479 18.755,-0.0851 19.153,0.0289 C19.552,0.1409 19.784,0.5549 19.671,0.9549 L17.45,8.8109 C17.357,9.1409 17.056,9.3569 16.729,9.3569" id="Fill-9"></path>
                        <path d="M10.4638,9.3569 C10.3958,9.3569 10.3278,9.3479 10.2588,9.3289 C9.8608,9.2149 9.6288,8.8009 9.7418,8.4029 L11.9618,0.5459 C12.0738,0.1479 12.4888,-0.0851 12.8878,0.0289 C13.2858,0.1409 13.5178,0.5549 13.4048,0.9549 L11.1848,8.8109 C11.0918,9.1409 10.7908,9.3569 10.4638,9.3569" id="Fill-12"></path>
                        <path d="M17.8388,20.6421 L1.2378,20.6421 C0.8238,20.6421 0.4878,20.3061 0.4878,19.8921 C0.4878,19.4781 0.8238,19.1421 1.2378,19.1421 L17.8388,19.1421 C18.2528,19.1421 18.5888,19.4781 18.5888,19.8921 C18.5888,20.3061 18.2528,20.6421 17.8388,20.6421" id="Fill-15"></path>
                        <path d="M25.8969,20.6421 L22.5159,20.6421 C22.1019,20.6421 21.7659,20.3061 21.7659,19.8921 C21.7659,19.4781 22.1019,19.1421 22.5159,19.1421 L25.8969,19.1421 C26.3109,19.1421 26.6469,19.4781 26.6469,19.8921 C26.6469,20.3061 26.3109,20.6421 25.8969,20.6421" id="Fill-17"></path>
                    </g>
                </g>
            </g>
        </g>
    </g>
</svg>