<?xml version="1.0" encoding="UTF-8"?>
<svg width="52px" height="33px" viewBox="0 0 52 33" version="1.1" xmlns="http://www.w3.org/2000/svg" xmlns:xlink="http://www.w3.org/1999/xlink">
    <!-- Generator: sketchtool 52.5 (67469) - http://www.bohemiancoding.com/sketch -->
    <title>FD4373A6-8A4E-475E-B52F-1B5C3152DC6E</title>
    <desc>Created with sketchtool.</desc>
    <g id="Page-1" stroke="none" stroke-width="1" fill="none" fill-rule="evenodd">
        <g id="Home_updated" transform="translate(-585.000000, -3281.000000)" fill="#8C886D">
            <g id="Group-29" transform="translate(114.000000, 3279.000000)">
                <g id="Group-44" transform="translate(422.000000, 2.000000)">
                    <g id="ic_am_gym" transform="translate(49.000000, 0.000000)">
                        <path d="M8.4687,1.5 C7.7797,1.5 7.2197,2.062 7.2197,2.75 L7.2197,29.461 C7.2197,30.15 7.7797,30.711 8.4687,30.711 L12.7957,30.711 C13.4857,30.711 14.0457,30.15 14.0457,29.461 L14.0457,2.75 C14.0457,2.062 13.4857,1.5 12.7957,1.5 L8.4687,1.5 Z M12.7957,32.211 L8.4687,32.211 C6.9527,32.211 5.7197,30.978 5.7197,29.461 L5.7197,2.75 C5.7197,1.233 6.9527,0 8.4687,0 L12.7957,0 C14.3127,0 15.5457,1.233 15.5457,2.75 L15.5457,29.461 C15.5457,30.978 14.3127,32.211 12.7957,32.211 Z" id="Fill-1"></path>
                        <path d="M4.248,7.3575 C2.733,7.3575 1.5,8.5895 1.5,10.1055 L1.5,22.1055 C1.5,23.6215 2.733,24.8535 4.248,24.8535 L5.72,24.8535 L5.72,7.3575 L4.248,7.3575 Z M6.47,26.3535 L4.248,26.3535 C1.906,26.3535 0,24.4485 0,22.1055 L0,10.1055 C0,7.7625 1.906,5.8575 4.248,5.8575 L6.47,5.8575 C6.884,5.8575 7.22,6.1935 7.22,6.6075 L7.22,25.6035 C7.22,26.0175 6.884,26.3535 6.47,26.3535 Z" id="Fill-4"></path>
                        <path d="M38.496,1.5 C37.808,1.5 37.246,2.062 37.246,2.75 L37.246,29.461 C37.246,30.15 37.808,30.711 38.496,30.711 L42.824,30.711 C43.513,30.711 44.074,30.15 44.074,29.461 L44.074,2.75 C44.074,2.062 43.513,1.5 42.824,1.5 L38.496,1.5 Z M42.824,32.211 L38.496,32.211 C36.979,32.211 35.746,30.978 35.746,29.461 L35.746,2.75 C35.746,1.233 36.979,0 38.496,0 L42.824,0 C44.341,0 45.574,1.233 45.574,2.75 L45.574,29.461 C45.574,30.978 44.341,32.211 42.824,32.211 Z" id="Fill-6"></path>
                        <path d="M45.5742,24.8536 L47.0452,24.8536 C48.5602,24.8536 49.7922,23.6226 49.7922,22.1056 L49.7922,10.1056 C49.7922,8.5896 48.5602,7.3576 47.0452,7.3576 L45.5742,7.3576 L45.5742,24.8536 Z M47.0452,26.3536 L44.8242,26.3536 C44.4102,26.3536 44.0742,26.0176 44.0742,25.6036 L44.0742,6.6076 C44.0742,6.1936 44.4102,5.8576 44.8242,5.8576 L47.0452,5.8576 C49.3872,5.8576 51.2922,7.7626 51.2922,10.1056 L51.2922,22.1056 C51.2922,24.4486 49.3872,26.3536 47.0452,26.3536 Z" id="Fill-9"></path>
                        <path d="M15.546,18.0131 L35.746,18.0131 L35.746,14.1991 L15.546,14.1991 L15.546,18.0131 Z M36.496,19.5131 L14.796,19.5131 C14.382,19.5131 14.046,19.1771 14.046,18.7631 L14.046,13.4481 C14.046,13.0341 14.382,12.6981 14.796,12.6981 L36.496,12.6981 C36.911,12.6981 37.246,13.0341 37.246,13.4481 L37.246,18.7631 C37.246,19.1771 36.911,19.5131 36.496,19.5131 Z" id="Fill-12"></path>
                    </g>
                </g>
            </g>
        </g>
    </g>
</svg>