<?xml version="1.0" encoding="UTF-8"?>
<svg width="46px" height="44px" viewBox="0 0 46 44" version="1.1" xmlns="http://www.w3.org/2000/svg" xmlns:xlink="http://www.w3.org/1999/xlink">
    <!-- Generator: sketchtool 52.5 (67469) - http://www.bohemiancoding.com/sketch -->
    <title>6FFCF88C-7A31-4088-8C52-FB9E20949A18</title>
    <desc>Created with sketchtool.</desc>
    <g id="Page-1" stroke="none" stroke-width="1" fill="none" fill-rule="evenodd">
        <g id="Home_updated" transform="translate(-1026.000000, -3286.000000)" fill="#8C886D">
            <g id="Group-29" transform="translate(114.000000, 3279.000000)">
                <g id="Group-32" transform="translate(860.000000, 7.000000)">
                    <g id="ic_am_31meter" transform="translate(52.000000, 0.000000)">
                        <path d="M43.376,26.291 L31.299,35.35 C31.092,35.506 30.835,35.591 30.577,35.591 L30.498,35.591 L30.497,35.591 L9.142,35.591 L2.703,35.591 C2.04,35.591 1.5,35.051 1.5,34.388 C1.5,33.724 2.04,33.185 2.703,33.185 L29.926,33.185 C30.088,33.185 30.246,33.132 30.376,33.035 L41.932,24.367 C42.464,23.97 43.219,24.078 43.617,24.607 C44.016,25.138 43.907,25.894 43.376,26.291 M7.117,9.722 C8.189,7.746 9.684,6.095 11.47,4.836 C11.04,5.699 10.692,6.684 10.457,7.808 C9.811,10.907 10.022,14.64 11.032,18.393 L5.775,19.952 C4.937,16.485 5.404,12.881 7.117,9.722 M33.329,11.779 L28.072,13.338 C26.873,9.643 25.016,6.397 22.783,4.152 C21.976,3.34 21.147,2.704 20.317,2.215 C26.068,2.441 31.329,6.122 33.329,11.779 M11.926,8.113 C12.451,5.603 13.522,3.851 14.978,3.078 L18.833,16.078 L12.461,17.969 C11.52,14.452 11.328,10.978 11.926,8.113 M21.72,5.209 C23.782,7.285 25.516,10.3 26.644,13.762 L20.271,15.652 L16.417,2.657 C16.533,2.647 16.648,2.632 16.767,2.632 C18.318,2.632 20.038,3.52 21.72,5.209 M44.817,23.706 C43.922,22.515 42.223,22.274 41.032,23.166 L29.676,31.685 L24.941,31.685 C24.96,31.577 24.96,31.464 24.927,31.351 L20.697,17.09 L27.799,14.984 L34.492,12.999 C34.685,12.942 34.845,12.811 34.939,12.636 C35.033,12.462 35.056,12.256 34.999,12.066 C32.579,3.91 24.157,-0.838 15.977,1.174 L15.788,0.537 C15.671,0.14 15.252,-0.087 14.855,0.031 C14.459,0.149 14.231,0.566 14.351,0.963 L14.539,1.598 C10.794,2.901 7.701,5.499 5.799,9.007 C3.774,12.738 3.324,17.033 4.531,21.102 C4.629,21.428 4.927,21.639 5.251,21.639 C5.32,21.639 5.394,21.63 5.464,21.608 L19.26,17.517 L23.461,31.685 L2.703,31.685 C1.213,31.685 2.66453526e-13,32.897 2.66453526e-13,34.388 C2.66453526e-13,35.878 1.213,37.091 2.703,37.091 L7.331,37.091 L2.295,42.128 C2.002,42.421 2.002,42.895 2.295,43.188 C2.441,43.335 2.633,43.408 2.825,43.408 C3.018,43.408 3.209,43.335 3.355,43.188 L9.453,37.091 L30.187,37.091 L36.284,43.188 C36.431,43.335 36.622,43.408 36.814,43.408 C37.006,43.408 37.198,43.335 37.345,43.188 C37.638,42.895 37.638,42.421 37.345,42.128 L31.934,36.717 C32.024,36.665 32.115,36.613 32.199,36.55 L44.276,27.492 C45.469,26.598 45.712,24.9 44.817,23.706" id="Fill-1"></path>
                    </g>
                </g>
            </g>
        </g>
    </g>
</svg>