<?xml version="1.0" encoding="UTF-8"?>
<svg width="49px" height="43px" viewBox="0 0 49 43" version="1.1" xmlns="http://www.w3.org/2000/svg" xmlns:xlink="http://www.w3.org/1999/xlink">
    <!-- Generator: sketchtool 52.5 (67469) - http://www.bohemiancoding.com/sketch -->
    <title>5C39DF6F-E820-4044-981A-9ED60155320F</title>
    <desc>Created with sketchtool.</desc>
    <g id="Page-1" stroke="none" stroke-width="1" fill="none" fill-rule="evenodd">
        <g id="Home_updated" transform="translate(-375.000000, -3485.000000)" fill="#8C886D">
            <g id="Group-29" transform="translate(114.000000, 3279.000000)">
                <g id="Group-51" transform="translate(218.000000, 206.000000)">
                    <g id="ic_am_kidsoutdoor" transform="translate(43.000000, 0.000000)">
                        <path d="M1.5,23.9675 L21.896,23.9675 L21.896,7.4985 L1.5,7.4985 L1.5,23.9675 Z M22.646,25.4675 L0.75,25.4675 C0.336,25.4675 0,25.1315 0,24.7175 L0,6.7495 C0,6.3355 0.336,5.9995 0.75,5.9995 L22.646,5.9995 C23.06,5.9995 23.396,6.3355 23.396,6.7495 L23.396,24.7175 C23.396,25.1315 23.06,25.4675 22.646,25.4675 Z" id="Fill-1"></path>
                        <path d="M12.1249,11.4201 C9.7469,11.4201 7.8129,13.3551 7.8129,15.7321 C7.8129,18.1101 9.7469,20.0451 12.1249,20.0451 C14.5029,20.0451 16.4369,18.1101 16.4369,15.7321 C16.4369,13.3551 14.5029,11.4201 12.1249,11.4201 M12.1249,21.5451 C8.9199,21.5451 6.3129,18.9381 6.3129,15.7321 C6.3129,12.5271 8.9199,9.9201 12.1249,9.9201 C15.3299,9.9201 17.9369,12.5271 17.9369,15.7321 C17.9369,18.9381 15.3299,21.5451 12.1249,21.5451" id="Fill-3"></path>
                        <path d="M22.6454,7.4993 C22.5234,7.4993 22.3994,7.4693 22.2854,7.4063 L11.6984,1.6043 L1.1104,7.4063 C0.7484,7.6053 0.2914,7.4733 0.0924,7.1093 C-0.1066,6.7463 0.0264,6.2903 0.3894,6.0913 L11.3374,0.0923 C11.5624,-0.0307 11.8334,-0.0307 12.0584,0.0923 L23.0064,6.0913 C23.3694,6.2903 23.5024,6.7463 23.3034,7.1093 C23.1674,7.3583 22.9104,7.4993 22.6454,7.4993" id="Fill-4"></path>
                        <path d="M45.2177,42.3664 L42.8717,42.3664 C40.3847,42.3664 37.9997,41.1864 36.4917,39.2114 L28.9347,27.9994 C27.7337,26.4284 25.7947,25.4704 23.7727,25.4704 L22.1537,25.4704 C21.7397,25.4704 21.4037,25.1344 21.4037,24.7204 C21.4037,24.3054 21.7397,23.9704 22.1537,23.9704 L23.7727,23.9704 C26.2587,23.9704 28.6437,25.1494 30.1527,27.1254 L37.7097,38.3374 C38.9107,39.9074 40.8497,40.8664 42.8717,40.8664 L45.2177,40.8664 C46.1167,40.8664 46.8487,40.1364 46.8487,39.2354 C46.8487,38.3364 46.1167,37.6034 45.2177,37.6034 L44.8217,37.6034 C42.6047,37.6034 40.4797,36.5534 39.1347,34.7914 L31.7267,23.7754 C30.2687,21.8674 27.9227,20.7064 25.4757,20.7064 L22.8007,20.7064 C22.3867,20.7064 22.0507,20.3704 22.0507,19.9564 C22.0507,19.5424 22.3867,19.2064 22.8007,19.2064 L25.4757,19.2064 C28.3867,19.2064 31.1797,20.5884 32.9457,22.9014 L40.3537,33.9174 C41.3897,35.2724 43.0697,36.1034 44.8217,36.1034 L45.2177,36.1034 C46.9447,36.1034 48.3487,37.5094 48.3487,39.2354 C48.3487,40.9624 46.9447,42.3664 45.2177,42.3664" id="Fill-5"></path>
                        <path d="M4.1874,42.2825 C3.7734,42.2825 3.4374,41.9465 3.4374,41.5325 L3.4374,25.1115 C3.4374,24.6975 3.7734,24.3615 4.1874,24.3615 C4.6014,24.3615 4.9374,24.6975 4.9374,25.1115 L4.9374,41.5325 C4.9374,41.9465 4.6014,42.2825 4.1874,42.2825" id="Fill-6"></path>
                        <path d="M20.0624,42.2825 C19.6484,42.2825 19.3124,41.9465 19.3124,41.5325 L19.3124,25.1115 C19.3124,24.6975 19.6484,24.3615 20.0624,24.3615 C20.4764,24.3615 20.8124,24.6975 20.8124,25.1115 L20.8124,41.5325 C20.8124,41.9465 20.4764,42.2825 20.0624,42.2825" id="Fill-7"></path>
                        <path d="M20.0624,29.8078 L4.5624,29.8078 C4.1484,29.8078 3.8124,29.4718 3.8124,29.0578 C3.8124,28.6438 4.1484,28.3078 4.5624,28.3078 L20.0624,28.3078 C20.4764,28.3078 20.8124,28.6438 20.8124,29.0578 C20.8124,29.4718 20.4764,29.8078 20.0624,29.8078" id="Fill-8"></path>
                        <path d="M20.0624,34.1477 L4.5624,34.1477 C4.1484,34.1477 3.8124,33.8117 3.8124,33.3977 C3.8124,32.9837 4.1484,32.6477 4.5624,32.6477 L20.0624,32.6477 C20.4764,32.6477 20.8124,32.9837 20.8124,33.3977 C20.8124,33.8117 20.4764,34.1477 20.0624,34.1477" id="Fill-9"></path>
                        <path d="M20.0624,38.4885 L4.5624,38.4885 C4.1484,38.4885 3.8124,38.1525 3.8124,37.7385 C3.8124,37.3245 4.1484,36.9885 4.5624,36.9885 L20.0624,36.9885 C20.4764,36.9885 20.8124,37.3245 20.8124,37.7385 C20.8124,38.1525 20.4764,38.4885 20.0624,38.4885" id="Fill-10"></path>
                    </g>
                </g>
            </g>
        </g>
    </g>
</svg>