<?xml version="1.0" encoding="UTF-8"?>
<svg width="42px" height="43px" viewBox="0 0 42 43" version="1.1" xmlns="http://www.w3.org/2000/svg" xmlns:xlink="http://www.w3.org/1999/xlink">
    <!-- Generator: sketchtool 52.5 (67469) - http://www.bohemiancoding.com/sketch -->
    <title>6C3AE41C-8012-4F4F-A9D0-63DFF310CAB7</title>
    <desc>Created with sketchtool.</desc>
    <g id="Page-1" stroke="none" stroke-width="1" fill="none" fill-rule="evenodd">
        <g id="Home_updated" transform="translate(-810.000000, -3485.000000)" fill="#8C886D">
            <g id="Group-29" transform="translate(114.000000, 3279.000000)">
                <g id="Group-33" transform="translate(642.000000, 206.000000)">
                    <g id="ic_am_gated" transform="translate(54.000000, 0.000000)">
                        <path d="M16.0761,39.1202 C11.2251,39.1202 7.2811,35.1752 7.2811,30.3252 C7.2811,25.4762 11.2251,21.5312 16.0761,21.5312 C19.6191,21.5312 22.7991,23.6412 24.1801,26.9022 C24.3411,27.2832 24.1621,27.7242 23.7801,27.8852 C23.3981,28.0452 22.9591,27.8672 22.7981,27.4862 C21.6531,24.7802 19.0141,23.0312 16.0761,23.0312 C12.0541,23.0312 8.7811,26.3042 8.7811,30.3252 C8.7811,34.3482 12.0541,37.6202 16.0761,37.6202 C19.0191,37.6202 21.6591,35.8682 22.8021,33.1552 C22.9631,32.7732 23.4041,32.5942 23.7841,32.7562 C24.1661,32.9162 24.3451,33.3562 24.1821,33.7372 C22.8051,37.0082 19.6241,39.1202 16.0761,39.1202" id="Fill-1"></path>
                        <path d="M15.1025,32.6964 L37.2015,32.6964 C38.5085,32.6964 39.5725,31.6334 39.5725,30.3254 C39.5725,29.0184 38.5085,27.9554 37.2015,27.9554 L15.1025,27.9554 L15.1025,32.6964 Z M37.2015,34.1964 L14.3525,34.1964 C13.9385,34.1964 13.6025,33.8604 13.6025,33.4464 L13.6025,27.2054 C13.6025,26.7914 13.9385,26.4554 14.3525,26.4554 L37.2015,26.4554 C39.3355,26.4554 41.0725,28.1914 41.0725,30.3254 C41.0725,32.4604 39.3355,34.1964 37.2015,34.1964 Z" id="Fill-3"></path>
                        <path d="M31.4023,42.2784 C30.9883,42.2784 30.6523,41.9424 30.6523,41.5284 L30.6523,33.4464 C30.6523,33.0324 30.9883,32.6964 31.4023,32.6964 C31.8163,32.6964 32.1523,33.0324 32.1523,33.4464 L32.1523,41.5284 C32.1523,41.9424 31.8163,42.2784 31.4023,42.2784" id="Fill-6"></path>
                        <path d="M31.4023,27.9552 C30.9883,27.9552 30.6523,27.6192 30.6523,27.2052 L30.6523,11.9852 C30.6523,10.1812 29.1843,8.7132 27.3803,8.7132 L24.6193,8.7132 C24.2053,8.7132 23.8693,8.3772 23.8693,7.9632 C23.8693,7.5492 24.2053,7.2132 24.6193,7.2132 L27.3803,7.2132 C30.0113,7.2132 32.1523,9.3532 32.1523,11.9852 L32.1523,27.2052 C32.1523,27.6192 31.8163,27.9552 31.4023,27.9552" id="Fill-8"></path>
                        <path d="M0.7499,42.2784 C0.3359,42.2784 -9.99999975e-05,41.9424 -9.99999975e-05,41.5284 L-9.99999975e-05,11.9854 C-9.99999975e-05,9.3534 2.1409,7.2134 4.7719,7.2134 L7.5319,7.2134 C7.9459,7.2134 8.2819,7.5494 8.2819,7.9634 C8.2819,8.3774 7.9459,8.7134 7.5319,8.7134 L4.7719,8.7134 C2.9679,8.7134 1.4999,10.1804 1.4999,11.9854 L1.4999,41.5284 C1.4999,41.9424 1.1639,42.2784 0.7499,42.2784" id="Fill-10"></path>
                        <path d="M27.3369,18.422 L4.8159,18.422 C4.4009,18.422 4.0659,18.086 4.0659,17.672 C4.0659,17.258 4.4009,16.922 4.8159,16.922 L27.3369,16.922 C27.7509,16.922 28.0869,17.258 28.0869,17.672 C28.0869,18.086 27.7509,18.422 27.3369,18.422" id="Fill-13"></path>
                        <path d="M8.2802,16.922 L23.8722,16.922 L23.8722,2.708 C23.8722,2.042 23.3302,1.5 22.6642,1.5 L9.4882,1.5 C8.8222,1.5 8.2802,2.042 8.2802,2.708 L8.2802,16.922 Z M24.6222,18.422 L7.5302,18.422 C7.1162,18.422 6.7802,18.086 6.7802,17.672 L6.7802,2.708 C6.7802,1.215 7.9952,0 9.4882,0 L22.6642,0 C24.1572,0 25.3722,1.215 25.3722,2.708 L25.3722,17.672 C25.3722,18.086 25.0362,18.422 24.6222,18.422 Z" id="Fill-15"></path>
                        <path d="M12.1386,18.422 C11.7246,18.422 11.3886,18.086 11.3886,17.672 L11.3886,0.75 C11.3886,0.336 11.7246,0 12.1386,0 C12.5526,0 12.8886,0.336 12.8886,0.75 L12.8886,17.672 C12.8886,18.086 12.5526,18.422 12.1386,18.422" id="Fill-18"></path>
                    </g>
                </g>
            </g>
        </g>
    </g>
</svg>