<?xml version="1.0" encoding="UTF-8"?>
<svg width="44px" height="43px" viewBox="0 0 44 43" version="1.1" xmlns="http://www.w3.org/2000/svg" xmlns:xlink="http://www.w3.org/1999/xlink">
    <!-- Generator: sketchtool 52.5 (67469) - http://www.bohemiancoding.com/sketch -->
    <title>390C947C-F97D-46A2-92BD-519971DF9C31</title>
    <desc>Created with sketchtool.</desc>
    <g id="Page-1" stroke="none" stroke-width="1" fill="none" fill-rule="evenodd">
        <g id="Home_updated" transform="translate(-167.000000, -3279.000000)" fill="#8C886D">
            <g id="Group-29" transform="translate(114.000000, 3279.000000)">
                <g id="Group-47">
                    <g id="ic_am_residents" transform="translate(53.000000, 0.000000)">
                        <path d="M1.5,41.112 L42.276,41.112 L42.276,1.502 L1.5,1.502 L1.5,41.112 Z M43.027,0 L0.75,0 C0.336,0 0,0.336 0,0.75 L0,41.862 C0,42.276 0.336,42.612 0.75,42.612 L43.027,42.612 C43.441,42.612 43.777,42.276 43.777,41.862 L43.777,0.75 C43.777,0.336 43.441,0 43.027,0 Z" id="Fill-5"></path>
                        <path d="M38.751,4.9302 L38.751,34.9472 C36.352,32.1802 31.132,30.1732 24.567,29.7172 L24.567,4.9302 L38.751,4.9302 Z M24.567,37.6812 L24.567,37.0432 L24.571,31.2122 C31.982,31.7542 37.807,34.4702 38.602,37.6812 L24.567,37.6812 Z M23.126,38.7222 C23.201,38.9032 23.346,39.0482 23.528,39.1232 C23.616,39.1602 23.711,39.1792 23.808,39.1802 C23.811,39.1802 23.814,39.1822 23.817,39.1822 L39.5,39.1822 C39.914,39.1822 40.25,38.8462 40.25,38.4322 L40.25,4.1802 C40.25,3.7662 39.914,3.4302 39.5,3.4302 L23.817,3.4302 C23.402,3.4302 23.067,3.7662 23.067,4.1802 L23.067,37.6402 L23.066,38.4312 C23.066,38.5322 23.087,38.6312 23.126,38.7222 Z" id="Fill-1"></path>
                        <path d="M19.21,4.9302 L19.21,20.5552 L16.209,20.5552 C15.795,20.5552 15.459,20.8922 15.459,21.3052 C15.459,21.7202 15.795,22.0552 16.209,22.0552 L19.21,22.0552 L19.21,29.7172 C12.646,30.1732 7.427,32.1792 5.027,34.9452 L5.027,4.9302 L19.21,4.9302 Z M5.175,37.6812 C5.97,34.4702 11.794,31.7542 19.205,31.2122 L19.21,37.6812 L5.175,37.6812 Z M4.277,39.1822 L19.96,39.1822 C19.977,39.1822 19.992,39.1732 20.008,39.1722 C20.091,39.1662 20.173,39.1552 20.249,39.1232 C20.431,39.0482 20.576,38.9022 20.652,38.7212 C20.683,38.6452 20.695,38.5632 20.7,38.4802 C20.701,38.4632 20.71,38.4492 20.71,38.4322 L20.71,22.0552 L21.889,22.0552 C22.303,22.0552 22.639,21.7202 22.639,21.3052 C22.639,20.8922 22.303,20.5552 21.889,20.5552 L20.71,20.5552 L20.71,4.1802 C20.71,3.7662 20.374,3.4302 19.96,3.4302 L4.277,3.4302 C3.863,3.4302 3.527,3.7662 3.527,4.1802 L3.527,38.4322 C3.527,38.8462 3.863,39.1822 4.277,39.1822 Z" id="Fill-3"></path>
                    </g>
                </g>
            </g>
        </g>
    </g>
</svg>