<?xml version="1.0" encoding="UTF-8"?>
<svg width="38px" height="38px" viewBox="0 0 38 38" version="1.1" xmlns="http://www.w3.org/2000/svg" xmlns:xlink="http://www.w3.org/1999/xlink">
    <!-- Generator: sketchtool 52.5 (67469) - http://www.bohemiancoding.com/sketch -->
    <title>C3473A84-B4FE-4D9B-BF05-4EF8E13CCEB1</title>
    <desc>Created with sketchtool.</desc>
    <g id="Page-1" stroke="none" stroke-width="1" fill="none" fill-rule="evenodd">
        <g id="Home_updated" transform="translate(-813.000000, -3280.000000)" fill="#8C886D">
            <g id="Group-29" transform="translate(114.000000, 3279.000000)">
                <g id="Group-48" transform="translate(641.000000, 1.000000)">
                    <g id="ic_am_squash" transform="translate(58.000000, 0.000000)">
                        <path d="M36.3453708,35.245282 C36.2934597,35.3645722 36.3332214,35.3038226 36.2437575,35.403231 C36.1167409,35.5412984 35.9764704,35.6694248 35.8428268,35.803074 L35.4087614,36.2360531 C35.3568502,36.2879664 35.255237,36.3387752 35.2585504,36.3376706 C35.1271159,36.3818522 35.1282204,36.3697022 35.0089352,36.2956982 C35.0409655,36.3155799 34.8841276,36.1576309 34.8543063,36.1289128 L34.3385084,35.6119888 L30.2154389,31.4898511 L26.0283089,27.3025455 L25.5114065,26.7856215 C25.4738538,26.7160356 25.4241517,26.6497633 25.3589866,26.5845955 C25.310389,26.5359958 25.2595823,26.4885006 25.2098802,26.4399009 C25.2076712,26.4321692 25.2054622,26.4233329 25.2021487,26.4111829 C25.236388,26.5371003 25.2187161,26.269802 25.1988352,26.3913012 C25.2253431,26.2322477 25.1756409,26.3791513 25.2540599,26.2344568 C25.3092845,26.1306302 25.5058841,25.9671584 25.6163333,25.8556001 C25.7820071,25.6932329 25.943263,25.5286567 26.1067279,25.365185 C26.1321312,25.3397806 26.2547298,25.2414766 26.228222,25.2591493 C26.3585521,25.1740998 26.3817464,25.2017133 26.4933001,25.2337449 C26.448016,25.2204904 26.5142855,25.2514175 26.5474203,25.2856582 L26.6700189,25.4093665 L27.1626224,25.9008861 C27.7457943,26.4840825 28.3300707,27.0683834 28.9132426,27.6515797 C30.4783081,29.2156062 32.0422691,30.7785283 33.6040211,32.3425548 C34.4986598,33.237231 35.3932985,34.1319072 36.2879372,35.0265834 C36.2570114,35.0000745 36.3630427,35.1613371 36.3265944,35.0663468 C36.3387438,35.0983784 36.3475798,35.1182601 36.3531022,35.1293055 C36.3497888,35.1359327 36.3464753,35.1580235 36.3464753,35.2088323 C36.3464753,35.0851239 36.3089225,35.329227 36.3453708,35.245282 M22.0123752,22.7617877 C22.7534895,22.1134235 23.3631692,21.353501 23.8447278,20.5195745 C24.1804934,21.695908 24.7305305,22.813701 25.4418235,23.818831 C25.2783587,23.9060896 25.1248343,24.0143343 24.9856682,24.1424608 C24.6962913,24.4075501 24.4278997,24.7002528 24.1506721,24.9774919 C24.0402229,25.0879458 23.9452366,25.2083405 23.8657131,25.336467 C22.8771926,24.6417122 21.7793273,24.103802 20.6240284,23.7702313 C21.1089005,23.4819468 21.5738918,23.1450625 22.0123752,22.7617877 M14.8166083,23.5714144 C14.012538,23.5482191 13.4315751,23.4620651 12.6473856,23.2831298 C9.42558177,22.5464026 6.48652795,20.520679 4.47082964,17.8664729 C3.46132375,16.535504 2.6859702,15.0664678 2.19888913,13.5068594 C1.73279341,12.0201505 1.5638061,10.6394774 1.69744966,9.06992815 C1.80679439,7.78645438 2.2607407,6.40909485 2.99081006,5.25706117 C3.71425247,4.1138638 4.74363922,3.21476944 5.99502891,2.56861441 C6.28661486,2.41839717 6.41473596,2.36427478 6.65882874,2.27038901 C6.92611586,2.16545785 7.20002993,2.0781993 7.47725748,1.99977707 C8.04054852,1.83961898 8.59610811,1.74573321 9.06441281,1.70265621 C10.3036531,1.58557512 11.4291307,1.69050628 12.5778026,1.95338645 C13.6800858,2.20522123 14.7348759,2.60395964 15.7311279,3.12530182 C15.1888222,3.72617078 14.7403984,4.42423912 14.4189911,5.2007297 C13.1068544,8.36523257 14.3427812,12.0223596 17.1415645,13.9144341 C19.0556495,15.2045351 21.4678605,15.3856794 23.5586643,14.6213388 C23.6359787,16.0207891 23.4647824,17.2346769 22.961134,18.572273 C22.8617297,18.8351532 22.7534895,19.0637927 22.5822932,19.3896316 C22.4088879,19.716575 22.2089748,20.032473 21.9935988,20.3362211 C21.8676867,20.5151563 21.8710002,20.50632 21.753924,20.6477009 C21.6423703,20.7824546 21.5263986,20.9116856 21.4071134,21.0398121 C21.1486623,21.3181558 20.8670167,21.5733042 20.5754308,21.8140936 C19.5736563,22.6358703 18.2814004,23.1704669 16.9007852,23.4333471 C16.287792,23.5482191 15.5566181,23.5924006 14.8166083,23.5714144 M20.4804445,13.3964055 C17.9401123,13.1136437 15.854831,11.0404249 15.578708,8.49888173 C16.8245752,8.63363543 17.9853965,9.17044115 18.906543,10.0728491 C19.8188536,10.9686299 20.3468009,12.1549042 20.4804445,13.3964055 M22.0742267,6.90503264 C23.2449885,8.09572517 24.8442932,8.81588429 26.4988226,8.96941514 C26.0515032,11.145356 24.3240774,12.8850042 22.1416008,13.3224015 C21.9858674,11.6622801 21.258007,10.1026717 20.0773048,8.90093375 C18.906543,7.70692761 17.3072383,6.99008211 15.6516044,6.83655125 C15.8349502,5.90211167 16.2524482,5.02621262 16.8588144,4.31599435 C17.6849746,3.35062768 18.8192881,2.69674088 20.0088263,2.46257871 C20.1601417,4.12932734 20.8902111,5.69887658 22.0742267,6.90503264 M24.5217815,3.55938546 C25.6472591,4.4695252 26.3938958,5.78613512 26.5661966,7.12814942 C26.5728236,7.1877945 26.5794505,7.24743958 26.584973,7.3081892 C25.3357923,7.17564458 24.172762,6.64215247 23.2471975,5.73201273 C22.3304689,4.8307093 21.8025216,3.64333039 21.6710871,2.39851547 C22.7269816,2.51338748 23.7276516,2.91764858 24.5217815,3.55938546 M37.5658347,33.9794809 C37.5382224,33.9397175 37.5084011,33.9021632 37.4719529,33.8657134 L30.2574096,26.6519723 L28.0440072,24.4384771 C28.007559,24.3236051 27.9412894,24.2109422 27.8374672,24.106011 C26.0095325,22.2570136 24.953638,19.7651747 25.1524466,17.1893908 C25.1612825,17.0767279 25.1402972,16.9684831 25.0983265,16.8701792 C25.2142981,16.1025249 25.2507464,15.3227207 25.2109847,14.5484392 C25.1977308,14.3010226 25.1767454,14.053606 25.1491331,13.8095029 C25.5334964,13.5488319 25.8957698,13.251711 26.2271175,12.9159313 C27.5370453,11.5860669 28.2549652,9.75584657 28.2693236,7.89690824 C28.2439203,4.5324839 25.8504857,1.53366181 22.5359045,0.85547516 C20.5809532,0.456736753 18.6160616,0.909597547 17.0509961,1.97437268 C15.3235703,0.988019782 13.4194257,0.327505746 11.4147723,0.0834027332 C8.36747821,-0.28772221 5.20200349,0.578235991 2.9565708,2.71109988 C0.707824628,4.84727738 -0.212217396,8.01840747 0.0407113234,11.0536793 C0.328983794,14.5208257 1.98240866,17.7504964 4.348231,20.2633215 C6.70079945,22.7606831 9.89940893,24.5931125 13.3144989,25.0879458 C14.5769335,25.2712992 15.852622,25.2679856 17.0841309,25.0581232 C17.1426689,25.0713777 17.205625,25.0769004 17.2696856,25.0724822 C19.7150313,24.8825016 22.0863762,25.8257775 23.9010569,27.488108 C23.9375051,27.5356032 23.9761624,27.5830983 24.0181331,27.6283844 C24.0954475,27.7145384 24.1760754,27.7951697 24.2589124,27.8769056 C26.9284701,30.5454706 29.5980278,33.2151402 32.2675855,35.8848098 L33.8591588,37.4775544 C34.4279723,38.0463917 35.2706999,38.1336503 35.9875153,37.8221704 C36.381819,37.6509669 36.6700915,37.3207099 36.9671999,37.02138 C37.2598904,36.7297818 37.5790886,36.4503336 37.7767927,36.0825222 C38.1501111,35.3877675 38.0385574,34.5781408 37.5658347,33.9794809" id="Fill-1"></path>
                    </g>
                </g>
            </g>
        </g>
    </g>
</svg>