<?xml version="1.0" encoding="UTF-8"?>
<svg width="45px" height="43px" viewBox="0 0 45 43" version="1.1" xmlns="http://www.w3.org/2000/svg" xmlns:xlink="http://www.w3.org/1999/xlink">
    <!-- Generator: sketchtool 52.5 (67469) - http://www.bohemiancoding.com/sketch -->
    <title>ABACF8F5-4D56-4B19-B1DA-63CD87BA8C2E</title>
    <desc>Created with sketchtool.</desc>
    <g id="Page-1" stroke="none" stroke-width="1" fill="none" fill-rule="evenodd">
        <g id="Home_updated" transform="translate(-167.000000, -3485.000000)" fill="#8C886D">
            <g id="Group-29" transform="translate(114.000000, 3279.000000)">
                <g id="Group-52" transform="translate(0.000000, 206.000000)">
                    <g id="ic_am_kidsswimming" transform="translate(53.000000, 0.000000)">
                        <path d="M13.5349,31.5547 C9.7499,31.5547 6.6699,28.4747 6.6699,24.6897 C6.6699,24.2757 7.0059,23.9397 7.4199,23.9397 C7.8339,23.9397 8.1699,24.2757 8.1699,24.6897 C8.1699,27.6477 10.5769,30.0547 13.5349,30.0547 C16.4929,30.0547 18.8989,27.6477 18.8989,24.6897 C18.8989,24.2757 19.2349,23.9397 19.6489,23.9397 C20.0629,23.9397 20.3989,24.2757 20.3989,24.6897 C20.3989,28.4747 17.3199,31.5547 13.5349,31.5547" id="Fill-1"></path>
                        <path d="M25.7644,31.5547 C21.9794,31.5547 18.8994,28.4747 18.8994,24.6897 C18.8994,24.2757 19.2354,23.9397 19.6494,23.9397 C20.0634,23.9397 20.3994,24.2757 20.3994,24.6897 C20.3994,27.6477 22.8064,30.0547 25.7644,30.0547 C28.7224,30.0547 31.1284,27.6477 31.1284,24.6897 C31.1284,24.2757 31.4644,23.9397 31.8784,23.9397 C32.2924,23.9397 32.6284,24.2757 32.6284,24.6897 C32.6284,28.4747 29.5494,31.5547 25.7644,31.5547" id="Fill-3"></path>
                        <path d="M37.9949,31.5547 C34.2089,31.5547 31.1289,28.4747 31.1289,24.6897 C31.1289,24.2757 31.4649,23.9397 31.8789,23.9397 C32.2929,23.9397 32.6289,24.2757 32.6289,24.6897 C32.6289,27.6477 35.0359,30.0547 37.9949,30.0547 C40.9529,30.0547 43.3599,27.6477 43.3599,24.6897 C43.3599,24.2757 43.6959,23.9397 44.1099,23.9397 C44.5239,23.9397 44.8599,24.2757 44.8599,24.6897 C44.8599,28.4747 41.7799,31.5547 37.9949,31.5547" id="Fill-5"></path>
                        <path d="M6.865,42.6875 C3.08,42.6875 0,39.6075 0,35.8215 C0,35.4075 0.336,35.0715 0.75,35.0715 C1.164,35.0715 1.5,35.4075 1.5,35.8215 C1.5,38.7815 3.907,41.1875 6.865,41.1875 C9.823,41.1875 12.23,38.7815 12.23,35.8215 C12.23,35.4075 12.566,35.0715 12.98,35.0715 C13.394,35.0715 13.73,35.4075 13.73,35.8215 C13.73,39.6075 10.65,42.6875 6.865,42.6875" id="Fill-7"></path>
                        <path d="M19.0955,42.6875 C15.3105,42.6875 12.2305,39.6075 12.2305,35.8215 C12.2305,35.4075 12.5665,35.0715 12.9805,35.0715 C13.3945,35.0715 13.7305,35.4075 13.7305,35.8215 C13.7305,38.7815 16.1375,41.1875 19.0955,41.1875 C22.0535,41.1875 24.4605,38.7815 24.4605,35.8215 C24.4605,35.4075 24.7965,35.0715 25.2105,35.0715 C25.6245,35.0715 25.9605,35.4075 25.9605,35.8215 C25.9605,39.6075 22.8805,42.6875 19.0955,42.6875" id="Fill-9"></path>
                        <path d="M31.326,42.6875 C27.541,42.6875 24.461,39.6075 24.461,35.8215 C24.461,35.4075 24.797,35.0715 25.211,35.0715 C25.625,35.0715 25.961,35.4075 25.961,35.8215 C25.961,38.7815 28.368,41.1875 31.326,41.1875 C34.284,41.1875 36.69,38.7815 36.69,35.8215 C36.69,35.4075 37.026,35.0715 37.44,35.0715 C37.854,35.0715 38.19,35.4075 38.19,35.8215 C38.19,39.6075 35.111,42.6875 31.326,42.6875" id="Fill-11"></path>
                        <path d="M16.4168,30.834 C16.0028,30.834 15.6668,30.498 15.6668,30.084 L15.6668,6.089 C15.6668,3.559 14.1028,1.5 12.1788,1.5 C10.2548,1.5 8.6888,3.559 8.6888,6.089 C8.6888,6.503 8.3538,6.839 7.9388,6.839 C7.5248,6.839 7.1888,6.503 7.1888,6.089 C7.1888,2.731 9.4278,0 12.1788,0 C14.9298,0 17.1668,2.731 17.1668,6.089 L17.1668,30.084 C17.1668,30.498 16.8308,30.834 16.4168,30.834" id="Fill-13"></path>
                        <path d="M31.8748,25.4395 C31.4608,25.4395 31.1248,25.1035 31.1248,24.6895 L31.1248,6.0885 C31.1248,3.5585 29.5598,1.5005 27.6358,1.5005 C25.7118,1.5005 24.1468,3.5585 24.1468,6.0885 C24.1468,6.5025 23.8118,6.8385 23.3968,6.8385 C22.9828,6.8385 22.6468,6.5025 22.6468,6.0885 C22.6468,2.7315 24.8848,0.0005 27.6358,0.0005 C30.3868,0.0005 32.6248,2.7315 32.6248,6.0885 L32.6248,24.6895 C32.6248,25.1035 32.2888,25.4395 31.8748,25.4395" id="Fill-15"></path>
                        <path d="M31.0203,13.9102 L16.7543,13.9102 C16.3403,13.9102 16.0043,13.5732 16.0043,13.1602 C16.0043,12.7452 16.3403,12.4102 16.7543,12.4102 L31.0203,12.4102 C31.4343,12.4102 31.7703,12.7452 31.7703,13.1602 C31.7703,13.5732 31.4343,13.9102 31.0203,13.9102" id="Fill-17"></path>
                        <path d="M31.8787,20.8887 L16.7547,20.8887 C16.3407,20.8887 16.0047,20.5527 16.0047,20.1387 C16.0047,19.7247 16.3407,19.3887 16.7547,19.3887 L31.8787,19.3887 C32.2927,19.3887 32.6287,19.7247 32.6287,20.1387 C32.6287,20.5527 32.2927,20.8887 31.8787,20.8887" id="Fill-19"></path>
                    </g>
                </g>
            </g>
        </g>
    </g>
</svg>