<?xml version="1.0" encoding="UTF-8"?>
<svg width="35px" height="43px" viewBox="0 0 35 43" version="1.1" xmlns="http://www.w3.org/2000/svg" xmlns:xlink="http://www.w3.org/1999/xlink">
    <!-- Generator: sketchtool 52.5 (67469) - http://www.bohemiancoding.com/sketch -->
    <title>8460FB7F-7FD6-4D32-94A0-D92586EAA926</title>
    <desc>Created with sketchtool.</desc>
    <g id="Page-1" stroke="none" stroke-width="1" fill="none" fill-rule="evenodd">
        <g id="Home_updated" transform="translate(-1247.000000, -3485.000000)" fill="#8C886D">
            <g id="Group-29" transform="translate(114.000000, 3279.000000)">
                <g id="Group-19" transform="translate(1093.000000, 206.000000)">
                    <g id="ic_am_concierge" transform="translate(40.000000, 0.000000)">
                        <path d="M33.361,42.5057 L0.75,42.5057 C0.336,42.5057 2.21334062e-12,42.1697 2.21334062e-12,41.7557 L2.21334062e-12,34.7067 C2.21334062e-12,27.2457 4.773,20.7137 11.878,18.4517 C12.272,18.3257 12.695,18.5447 12.82,18.9407 C12.946,19.3347 12.727,19.7557 12.333,19.8817 C5.853,21.9437 1.5,27.9017 1.5,34.7067 L1.5,41.0057 L32.611,41.0057 L32.611,34.7067 C32.611,27.9017 28.257,21.9437 21.778,19.8817 C21.382,19.7557 21.166,19.3347 21.291,18.9407 C21.417,18.5447 21.837,18.3257 22.233,18.4517 C29.338,20.7137 34.111,27.2457 34.111,34.7067 L34.111,41.7557 C34.111,42.1697 33.775,42.5057 33.361,42.5057" id="Fill-1"></path>
                        <path d="M17.0554,21.4921 C11.9144,21.4921 7.7334,17.3091 7.7334,12.1691 L7.7334,7.5101 C7.7334,7.0961 8.0694,6.7601 8.4834,6.7601 C8.8974,6.7601 9.2334,7.0961 9.2334,7.5101 L9.2334,12.1691 C9.2334,16.4821 12.7424,19.9921 17.0554,19.9921 C21.3684,19.9921 24.8784,16.4821 24.8784,12.1691 L24.8784,7.5101 C24.8784,7.0961 25.2144,6.7601 25.6284,6.7601 C26.0424,6.7601 26.3784,7.0961 26.3784,7.5101 L26.3784,12.1691 C26.3784,17.3091 22.1964,21.4921 17.0554,21.4921" id="Fill-3"></path>
                        <path d="M9.232,7.0888 L24.878,7.0888 L24.878,1.4998 L9.232,1.4998 L9.232,7.0888 Z M25.629,8.5888 L8.482,8.5888 C8.069,8.5888 7.732,8.2528 7.732,7.8388 L7.732,0.7498 C7.732,0.3358 8.069,-0.0002 8.482,-0.0002 L25.629,-0.0002 C26.043,-0.0002 26.379,0.3358 26.379,0.7498 L26.379,7.8388 C26.379,8.2528 26.043,8.5888 25.629,8.5888 Z" id="Fill-5"></path>
                        <path d="M10.5602,41.744 C10.1462,41.744 9.8102,41.408 9.8102,40.994 L9.8102,27.873 C9.8102,27.592 9.9672,27.335 10.2162,27.206 L24.0422,20.075 C24.4112,19.887 24.8642,20.03 25.0532,20.398 C25.2442,20.766 25.0992,21.219 24.7312,21.408 L11.3102,28.33 L11.3102,40.994 C11.3102,41.408 10.9742,41.744 10.5602,41.744" id="Fill-7"></path>
                        <path d="M25.6432,33.1376 L20.4362,33.1376 C20.0222,33.1376 19.6862,32.8016 19.6862,32.3876 C19.6862,31.9736 20.0222,31.6376 20.4362,31.6376 L25.6432,31.6376 C26.0572,31.6376 26.3932,31.9736 26.3932,32.3876 C26.3932,32.8016 26.0572,33.1376 25.6432,33.1376" id="Fill-8"></path>
                        <path d="M15.5934,31.618 L14.1234,31.618 C13.7094,31.618 13.3734,31.282 13.3734,30.868 C13.3734,30.454 13.7094,30.118 14.1234,30.118 L15.5934,30.118 C16.0074,30.118 16.3434,30.454 16.3434,30.868 C16.3434,31.282 16.0074,31.618 15.5934,31.618" id="Fill-9"></path>
                        <path d="M15.5934,35.4657 L14.1234,35.4657 C13.7094,35.4657 13.3734,35.1297 13.3734,34.7157 C13.3734,34.3017 13.7094,33.9657 14.1234,33.9657 L15.5934,33.9657 C16.0074,33.9657 16.3434,34.3017 16.3434,34.7157 C16.3434,35.1297 16.0074,35.4657 15.5934,35.4657" id="Fill-10"></path>
                        <path d="M15.5934,39.3143 L14.1234,39.3143 C13.7094,39.3143 13.3734,38.9783 13.3734,38.5643 C13.3734,38.1503 13.7094,37.8143 14.1234,37.8143 L15.5934,37.8143 C16.0074,37.8143 16.3434,38.1503 16.3434,38.5643 C16.3434,38.9783 16.0074,39.3143 15.5934,39.3143" id="Fill-11"></path>
                        <path d="M27.2018,42.5057 C26.7878,42.5057 26.4518,42.1697 26.4518,41.7557 L26.4518,37.2517 C26.4518,36.8377 26.7878,36.5017 27.2018,36.5017 C27.6158,36.5017 27.9518,36.8377 27.9518,37.2517 L27.9518,41.7557 C27.9518,42.1697 27.6158,42.5057 27.2018,42.5057" id="Fill-12"></path>
                        <path d="M6.9099,42.5057 C6.4959,42.5057 6.1599,42.1697 6.1599,41.7557 L6.1599,37.2517 C6.1599,36.8377 6.4959,36.5017 6.9099,36.5017 C7.3239,36.5017 7.6599,36.8377 7.6599,37.2517 L7.6599,41.7557 C7.6599,42.1697 7.3239,42.5057 6.9099,42.5057" id="Fill-13"></path>
                    </g>
                </g>
            </g>
        </g>
    </g>
</svg>