<?xml version="1.0" encoding="UTF-8"?>
<svg width="165px" height="58px" viewBox="0 0 165 58" version="1.1" xmlns="http://www.w3.org/2000/svg" xmlns:xlink="http://www.w3.org/1999/xlink">
    <!-- Generator: sketchtool 52.5 (67469) - http://www.bohemiancoding.com/sketch -->
    <title>B8EA7957-AC4A-404D-92DD-BA7256D1102E</title>
    <desc>Created with sketchtool.</desc>
    <g id="Page-1" stroke="none" stroke-width="1" fill="none" fill-rule="evenodd">
        <g id="Home_updated" transform="translate(-110.000000, -8283.000000)" fill="#8C886D">
            <g id="ic_footer_logo" transform="translate(110.000000, 8283.000000)">
                <path d="M80.799682,15.0335898 C80.5473567,15.0207421 80.3416797,14.9863104 80.1853016,14.9302946 C80.0278633,14.8747927 79.8863279,14.7843451 79.7622856,14.6599797 C79.6260511,14.5227666 79.5322243,14.3490662 79.480805,14.1383645 C79.4299159,13.9286906 79.4044713,13.601846 79.4044713,13.1593725 L79.4044713,7.55727672 L85.6606556,15.1815949 L85.9606895,15.1815949 L85.9606895,8.40727822 C85.9606895,7.97405497 85.9850739,7.65080772 86.035963,7.4385643 C86.0868522,7.22683479 86.180679,7.05159264 86.3179737,6.91437958 C86.5665884,6.66513488 86.9122105,6.54025558 87.35431,6.54025558 L87.35431,6.39225048 L84.2930098,6.39225048 L84.2930098,6.54025558 C84.544275,6.55310325 84.7499519,6.58753499 84.9073902,6.64355081 C85.0642984,6.69853881 85.2047737,6.78950028 85.3282859,6.91437958 C85.4666407,7.05159264 85.5599375,7.22529307 85.6113567,7.43548086 C85.6617158,7.64618256 85.6876905,7.97199934 85.6876905,8.41447292 L85.6876905,13.0632719 L80.2945013,6.39225048 L77.7373217,6.39225048 L77.7373217,6.54025558 C77.9944179,6.55310325 78.200625,6.58753499 78.3591234,6.64355081 C78.5160316,6.69853881 78.6538564,6.78950028 78.7736579,6.91437958 C78.9109526,7.05159264 79.0042494,7.22683479 79.0551385,7.4385643 C79.1060277,7.65080772 79.1320023,7.97405497 79.1320023,8.40727822 L79.1320023,13.1593725 C79.1320023,13.5972209 79.1060277,13.9230377 79.0551385,14.1352811 C79.0042494,14.3470106 78.9109526,14.5227666 78.7736579,14.6599797 C78.6496157,14.7843451 78.5091404,14.8747927 78.3517021,14.9302946 C78.1947939,14.9863104 77.989647,15.0207421 77.7373217,15.0335898 L77.7373217,15.1815949 L80.799682,15.1815949 L80.799682,15.0335898 Z" id="Fill-1"></path>
                <path d="M88.9721701,6.72682324 C89.1948862,6.84708441 89.4214047,7.07013291 89.6522689,7.39648268 L89.9657011,7.84720511 L91.7284172,10.3521323 C91.9962197,10.7345012 92.1738494,11.052114 92.2596765,11.3049708 C92.3362691,11.5244218 92.3759234,11.7243431 92.3759234,11.903707 L92.3683185,13.1592542 C92.3683185,13.6022676 92.3427876,13.9286174 92.2938987,14.1383035 C92.2439234,14.3490175 92.1483185,14.5227281 92.0081703,14.6599492 C91.8810592,14.7848358 91.7360222,14.8747747 91.5719728,14.9307938 C91.4079234,14.9868129 91.1971579,15.0212467 90.93859,15.0335811 L90.93859,15.1815949 L95.2880718,15.1815949 L95.2880718,15.0335811 C94.8258001,15.0335811 94.4689112,14.9092085 94.2201211,14.6599492 C94.0745408,14.5186166 93.9778495,14.3474757 93.9311334,14.1480683 C93.8822445,13.9486609 93.8594297,13.6187136 93.8594297,13.1592542 L93.8594297,11.5819827 C93.8594297,11.2859552 93.878442,11.0757551 93.919726,10.9508685 C93.96101,10.8264958 94.0745408,10.6317138 94.2608618,10.3644668 L95.8122693,8.12421696 C96.1881706,7.57944412 96.530936,7.16932268 96.8411089,6.89436658 C96.9714793,6.78335627 97.1013064,6.70215428 97.2278744,6.65281636 C97.3549855,6.60347844 97.5364176,6.56544713 97.7727139,6.5397503 L97.7727139,6.39225048 L94.641652,6.39225048 L94.641652,6.5397503 C94.9773557,6.5397503 95.2386397,6.61581292 95.4238742,6.76536848 C95.6107385,6.91595192 95.7030841,7.12820775 95.7030841,7.40316385 C95.7030841,7.6436862 95.619973,7.88832004 95.451578,8.13706538 L95.2750347,8.40122881 L93.6959235,10.7324454 L91.8517259,8.00241398 C91.7235283,7.81277136 91.6317259,7.65653462 91.5763184,7.53164801 C91.5192814,7.40727535 91.4899481,7.2957511 91.4899481,7.19656132 C91.4899481,6.92674459 91.6176024,6.73967165 91.8712814,6.63637039 C91.9755777,6.59371365 92.2156765,6.56184957 92.5926642,6.5397503 L92.5926642,6.39225048 L88.1557256,6.39225048 L88.1557256,6.5397503 C88.3599726,6.54848722 88.5185899,6.56544713 88.6321207,6.59114396 C88.7445652,6.6168408 88.8580961,6.66258116 88.9721701,6.72682324" id="Fill-3"></path>
                <path d="M59.0952527,14.2059703 C58.9392138,13.9936693 58.8284262,13.7349607 58.7602892,13.4303781 C58.6921522,13.125262 58.6583438,12.723597 58.6583438,12.2259164 L58.6583438,8.12605273 L60.3945364,8.12605273 C61.6376462,8.12605273 62.5494334,8.37142578 63.1314584,8.86217189 C63.4476972,9.12781489 63.7004802,9.50814313 63.8887671,10.0020898 C64.0760137,10.4965698 64.1701572,11.0315897 64.1701572,11.6092833 C64.1701572,12.6179799 63.8669216,13.4133086 63.2614908,13.9974032 C62.6571002,14.5809643 61.8342552,14.8727449 60.7929557,14.8727449 C59.9903957,14.8727449 59.4250149,14.6508423 59.0952527,14.2059703 Z M58.6583438,1.90691262 L59.5607687,1.90691262 C60.2530612,1.90691262 60.7690297,1.94691909 61.1086744,2.02639863 C61.448319,2.10587816 61.7499942,2.25523567 62.0157804,2.47447116 C62.3195361,2.72624525 62.563997,3.07990251 62.748643,3.53384266 C62.9327689,3.98831623 63.0248318,4.46786053 63.0248318,4.97140871 C63.0248318,5.44935275 62.9358897,5.88569005 62.7580053,6.2798872 C62.580121,6.67515118 62.3262978,6.99840351 61.9960155,7.2501776 C61.821772,7.37713149 61.6293241,7.47581413 61.4186716,7.54889263 C61.2085393,7.62197112 60.9323504,7.68544807 60.5890649,7.73825661 C60.1948067,7.79106516 59.8119913,7.81826957 59.4437395,7.81826957 L58.6583438,7.81826957 L58.6583438,1.90691262 Z M63.8154288,15.021569 C64.3428402,14.9159519 64.7969134,14.7276547 65.1781684,14.4550773 C65.5989532,14.1499612 65.927155,13.7466959 66.1632938,13.2452814 C66.3989125,12.7454672 66.5175021,12.192311 66.5175021,11.5890133 C66.5175021,10.9921167 66.4020333,10.4368268 66.1736964,9.92314364 C65.943279,9.40839365 65.6213188,8.97845738 65.2078157,8.63333485 C64.9290263,8.40823174 64.619029,8.23220324 64.2757435,8.10684962 C63.9334982,7.98042915 63.4513381,7.86414366 62.8308235,7.75745972 C63.2838564,7.59209962 63.6292224,7.44114185 63.868482,7.30511983 C64.1082618,7.16963123 64.3215149,6.99840351 64.5082414,6.79303693 C65.0335723,6.23561336 65.2951975,5.52243124 65.2951975,4.65349058 C65.2951975,4.11633695 65.1802489,3.63199188 64.9513919,3.20098877 C64.7199342,2.76945225 64.3969337,2.42166261 63.9756287,2.15548619 C63.4908679,1.85730459 62.8786754,1.67807557 62.1416518,1.61833257 C61.9403616,1.60499708 61.5174962,1.59806262 60.870455,1.59806262 L54.4962668,1.59806262 L54.4962668,1.82689967 C54.8639984,1.84716961 55.1651534,1.90051158 55.3981715,1.98639215 C55.6306694,2.07280614 55.8345602,2.21202868 56.0088036,2.40405976 C56.2163353,2.61689422 56.35521,2.88520432 56.4264677,3.21005691 C56.4982456,3.53544292 56.5341345,4.04005794 56.5341345,4.72336855 L56.5341345,12.0568224 C56.5341345,12.740133 56.4982456,13.2442146 56.4264677,13.5690672 C56.35521,13.8949866 56.2163353,14.1632967 56.0088036,14.3750643 C55.8345602,14.5617612 55.6322298,14.6988501 55.4028527,14.7884646 C55.1734755,14.8780791 54.8702399,14.9324879 54.4962668,14.9527579 L54.4962668,15.1815949 L61.588754,15.1815949 C62.5457925,15.1815949 63.2874973,15.1282529 63.8154288,15.021569 Z" id="Fill-5"></path>
                <path d="M124.320523,4.09224822 C124.641284,3.61876706 125.047972,3.28391548 125.542723,3.09024181 C126.035873,2.89656814 126.785739,2.77526726 127.793387,2.72481017 C128.263587,2.70034613 128.704433,2.68760444 129.116993,2.68760444 L129.116993,12.2413228 C129.116993,12.8840136 129.079099,13.3585141 129.00438,13.6643146 C128.928059,13.9701151 128.789827,14.2234199 128.586483,14.4232096 C128.403954,14.6041416 128.19634,14.7356358 127.964709,14.8161633 C127.73201,14.8972004 127.426727,14.9471478 127.047791,14.9660055 L127.047791,15.1815949 L133.315172,15.1815949 L133.315172,14.9660055 C132.941573,14.9471478 132.638958,14.8972004 132.406794,14.8161633 C132.175163,14.7356358 131.968082,14.6041416 131.785019,14.4232096 C131.581141,14.2234199 131.44291,13.9690958 131.367656,13.6597276 C131.292937,13.350869 131.254509,12.8773879 131.254509,12.2413228 L131.254509,2.68760444 C132.706206,2.68760444 133.736804,2.77169958 134.344168,2.94039955 C135.064146,3.13458288 135.611734,3.45414444 135.987468,3.90061322 C136.363735,4.347082 136.638596,5.00506281 136.815789,5.87149766 L137.042083,5.85314963 L136.864356,2.39709393 L123.595208,2.39709393 L123.418016,5.85314963 L123.643776,5.87149766 C123.800687,5.12228635 124.026448,4.52954298 124.320523,4.09224822" id="Fill-7"></path>
                <path d="M140.775659,6.59164624 L141.055458,6.59164624 C141.543061,6.59164624 141.918308,6.62093892 142.182289,6.67901036 C142.447362,6.73708181 142.674255,6.83934922 142.866242,6.98478478 C143.11277,7.17749975 143.304757,7.42366101 143.443293,7.72224074 C143.583465,8.02030656 143.652188,8.33892865 143.652188,8.6786209 C143.652188,9.31329554 143.413295,9.84570277 142.934419,10.2753287 C142.720616,10.4639324 142.492632,10.5882978 142.247739,10.6484249 C142.003938,10.708038 141.60033,10.7388724 141.035278,10.7388724 L140.775659,10.7388724 L140.775659,6.59164624 Z M142.210106,15.0335898 C141.946669,15.0207421 141.73232,14.9852826 141.570877,14.9272111 C141.409979,14.8686258 141.267625,14.7807478 141.144906,14.6599797 C141.002553,14.5227666 140.906559,14.3470106 140.854199,14.1352811 C140.800748,13.9230377 140.775659,13.5972209 140.775659,13.1593725 L140.775659,10.8801967 L141.110545,10.8801967 C141.314531,10.8801967 141.487428,10.8981835 141.629237,10.9346708 C141.771045,10.9711582 141.903036,11.0323131 142.025755,11.1186494 C142.267374,11.2902942 142.532992,11.6099441 142.82479,12.078113 C143.116588,12.5503932 143.405659,13.0930785 143.693639,13.706683 L144.170879,14.7308988 C144.20415,14.7951371 144.27669,14.9462257 144.390137,15.1815949 L146.659071,15.1815949 L146.659071,15.0335898 C146.471447,15.016117 146.32473,14.9821991 146.218374,14.9302946 C146.110927,14.8789039 146.000753,14.7864007 145.886761,14.6532989 C145.745498,14.4903905 145.572055,14.2277843 145.363706,13.8649662 C145.156447,13.5021482 144.850469,12.9281145 144.445769,12.1423513 C144.271236,11.7990617 144.141427,11.5595812 144.055796,11.4244238 C143.967984,11.2892664 143.873627,11.1767208 143.767816,11.0862733 C143.636371,10.9706443 143.434021,10.8591266 143.160222,10.7512062 C143.492926,10.6833705 143.758544,10.6098819 143.955985,10.532282 C144.153971,10.4557099 144.335595,10.3565259 144.499766,10.2362718 C145.037547,9.83336901 145.305346,9.29633663 145.305346,8.62671634 C145.305346,8.17602026 145.182082,7.77979828 144.932827,7.4385643 C144.684662,7.09733033 144.335595,6.84089094 143.884535,6.66924614 C143.483654,6.51918541 142.930601,6.42873785 142.223196,6.39944518 C142.050844,6.39482002 141.689232,6.39225048 141.137271,6.39225048 L137.843498,6.39225048 L137.843498,6.54025558 C138.103662,6.55310325 138.315829,6.58753499 138.479454,6.64355081 C138.643079,6.69853881 138.786524,6.78950028 138.909243,6.91437958 C139.054869,7.05159264 139.15359,7.22529307 139.203222,7.43548086 C139.252855,7.64618256 139.279035,7.97199934 139.279035,8.41447292 L139.279035,13.1593725 C139.279035,13.601846 139.252855,13.9286906 139.203222,14.1383645 C139.15359,14.3485523 139.054869,14.5227666 138.909243,14.6599797 C138.786524,14.7807478 138.644716,14.8686258 138.481636,14.9272111 C138.320193,14.9852826 138.106935,15.0207421 137.843498,15.0335898 L137.843498,15.1815949 L142.210106,15.1815949 L142.210106,15.0335898 Z" id="Fill-9"></path>
                <path d="M154.673228,12.6191068 L154.520986,12.6129396 C154.437174,12.998906 154.344874,13.3098377 154.244618,13.5462485 C154.145422,13.7821454 154.01493,13.9923455 153.856853,14.1773627 C153.629817,14.4518049 153.338596,14.6548098 152.978945,14.7858637 C152.619825,14.9169175 152.174771,14.9827014 151.642192,14.9827014 C151.137726,14.9827014 150.731396,14.9102364 150.4232,14.7663341 C150.115004,14.6224318 149.885846,14.3962997 149.735726,14.0869099 C149.646609,13.907032 149.587198,13.6824417 149.556432,13.4141668 C149.525134,13.1458919 149.509751,12.7177826 149.509751,12.1298391 L149.509751,10.654841 L149.887968,10.654841 C150.216852,10.654841 150.486855,10.687219 150.698507,10.7514611 C150.912282,10.8157031 151.085211,10.9169487 151.217295,11.0541697 C151.354684,11.1960163 151.463427,11.3676711 151.539283,11.5691343 C151.618321,11.7716253 151.676141,12.0373305 151.715925,12.3677918 L151.869758,12.3677918 L151.895751,8.91670726 L151.742979,8.90951215 C151.703194,9.2399734 151.653331,9.49077449 151.592859,9.66037358 C151.533448,9.82997267 151.441679,9.97695855 151.317551,10.1008173 C151.18865,10.2344408 151.022086,10.3264355 150.819452,10.3778291 C150.614695,10.4292228 150.311273,10.4554336 149.908656,10.4554336 L149.509751,10.4554336 L149.509751,6.5916579 L151.032165,6.5916579 C151.50109,6.5916579 151.877715,6.62300803 152.16204,6.68519437 C152.444774,6.7473807 152.690907,6.85376559 152.899907,7.00383508 C153.151344,7.18422685 153.344431,7.39288512 153.477576,7.6282681 C153.60966,7.86467896 153.705673,8.16276221 153.763493,8.52354573 L153.916264,8.51686455 L153.804338,6.39225048 L146.659071,6.39225048 L146.659071,6.54026424 C146.915282,6.55259872 147.122691,6.58703247 147.280237,6.64305156 C147.437252,6.69855672 147.576232,6.78900957 147.695585,6.91441011 C147.831913,7.05163119 147.926865,7.22636965 147.977789,7.43862548 C148.028183,7.65088131 148.054705,7.97620321 148.054705,8.41459116 L148.054705,13.1597682 C148.054705,13.5976422 148.028183,13.923478 147.977789,14.1357338 C147.926865,14.3474757 147.831913,14.5232421 147.695585,14.6599492 C147.571458,14.7848358 147.430357,14.8747747 147.273871,14.9307938 C147.116325,14.9868129 146.911038,15.0212467 146.659071,15.0340951 L146.659071,15.1815949 L154.587294,15.1815949 L154.673228,12.6191068 Z" id="Fill-11"></path>
                <path d="M110.451002,15.0335898 C110.198147,15.0207421 109.99406,14.9863104 109.836622,14.9302946 C109.679184,14.8747927 109.539238,14.7843451 109.415196,14.6599797 C109.277371,14.5227666 109.183545,14.3490662 109.133185,14.1383645 C109.082296,13.9286906 109.056322,13.601846 109.056322,13.1593725 L109.056322,7.55727672 L115.313036,15.1815949 L115.61201,15.1815949 L115.61201,8.40727822 C115.61201,7.97405497 115.636924,7.65080772 115.687283,7.4385643 C115.739763,7.22683479 115.833059,7.05159264 115.969824,6.91437958 C116.217909,6.66513488 116.564061,6.54025558 117.00669,6.54025558 L117.00669,6.39225048 L113.94486,6.39225048 L113.94486,6.54025558 C114.197716,6.55310325 114.401802,6.58753499 114.55871,6.64355081 C114.716679,6.69853881 114.856624,6.78950028 114.980136,6.91437958 C115.117431,7.05159264 115.211788,7.22529307 115.262677,7.43548086 C115.313036,7.64618256 115.339541,7.97199934 115.339541,8.41447292 L115.339541,13.0632719 L109.946882,6.39225048 L107.389702,6.39225048 L107.389702,6.54025558 C107.646798,6.55310325 107.853005,6.58753499 108.010444,6.64355081 C108.167882,6.69853881 108.305707,6.78950028 108.425508,6.91437958 C108.562803,7.05159264 108.65769,7.22683479 108.708049,7.4385643 C108.758938,7.65080772 108.783853,7.97405497 108.783853,8.40727822 L108.783853,13.1593725 C108.783853,13.5972209 108.758938,13.9230377 108.708049,14.1352811 C108.65769,14.3470106 108.562803,14.5227666 108.425508,14.6599797 C108.301996,14.7843451 108.160461,14.8747927 108.003022,14.9302946 C107.846644,14.9863104 107.642027,15.0207421 107.389702,15.0335898 L107.389702,15.1815949 L110.451002,15.1815949 L110.451002,15.0335898 Z" id="Fill-13"></path>
                <path d="M163.4888,12.6191068 L163.335539,12.6129396 C163.251218,12.998906 163.158943,13.3098377 163.059773,13.5462485 C162.960604,13.7821454 162.830676,13.9923455 162.670521,14.1773627 C162.445136,14.4518049 162.1524,14.6548098 161.794436,14.7858637 C161.435411,14.9169175 160.989945,14.9827014 160.458567,14.9827014 C159.952644,14.9827014 159.546421,14.9102364 159.238306,14.7663341 C158.931252,14.6224318 158.702155,14.3962997 158.551015,14.0869099 C158.463512,13.907032 158.403587,13.6824417 158.372298,13.4141668 C158.340479,13.1458919 158.3251,12.7177826 158.3251,12.1298391 L158.3251,10.654841 L158.704277,10.654841 C159.032013,10.654841 159.302475,10.687219 159.515132,10.7514611 C159.727259,10.8157031 159.899612,10.9169487 160.033252,11.0541697 C160.170604,11.1960163 160.277728,11.3676711 160.355685,11.5691343 C160.432581,11.7716253 160.491977,12.0373305 160.53175,12.3677918 L160.683951,12.3677918 L160.710998,8.91670726 L160.557736,8.90951215 C160.517962,9.2399734 160.468112,9.49077449 160.409247,9.66037358 C160.349321,9.82997267 160.256516,9.97695855 160.132421,10.1008173 C160.003554,10.2344408 159.838625,10.3264355 159.634453,10.3778291 C159.430811,10.4292228 159.126939,10.4554336 158.724429,10.4554336 L158.3251,10.4554336 L158.3251,6.5916579 L159.847641,6.5916579 C160.316972,6.5916579 160.692437,6.62300803 160.976156,6.68519437 C161.260937,6.7473807 161.505413,6.85376559 161.713828,7.00383508 C161.966789,7.18422685 162.159825,7.39288512 162.292404,7.6282681 C162.425514,7.86467896 162.520971,8.16276221 162.577715,8.52354573 L162.731507,8.51686455 L162.618549,6.39225048 L155.474643,6.39225048 L155.474643,6.54026424 C155.731317,6.55259872 155.939732,6.58703247 156.096706,6.64305156 C156.253149,6.69855672 156.391562,6.78900957 156.510884,6.91441011 C156.648766,7.05163119 156.742632,7.22636965 156.793543,7.43862548 C156.843923,7.65088131 156.870439,7.97620321 156.870439,8.41459116 L156.870439,13.1597682 C156.870439,13.5976422 156.843923,13.923478 156.793543,14.1357338 C156.742632,14.3474757 156.648766,14.5232421 156.510884,14.6599492 C156.38732,14.7848358 156.247846,14.8747747 156.089281,14.9307938 C155.932307,14.9868129 155.727605,15.0212467 155.474643,15.0340951 L155.474643,15.1815949 L163.402359,15.1815949 L163.4888,12.6191068 Z" id="Fill-15"></path>
                <path d="M72.2220128,8.04661253 L73.6041233,11.3820613 L70.9181747,11.3820613 L72.2220128,8.04661253 Z M71.0699915,15.0335811 C70.8020795,15.0125097 70.5824968,14.9436422 70.4117686,14.8274926 C70.2888443,14.7421791 70.1916605,14.6301409 70.1181161,14.4929198 C70.0466729,14.3551848 70.0099007,14.2066571 70.0099007,14.0483646 C70.0099007,13.7780339 70.1086604,13.4064577 70.3056544,12.9346639 L70.4706041,12.5353351 L70.8131112,11.6467387 L73.7091868,11.6467387 L74.3406185,13.1664493 L74.4525111,13.43678 C74.5749101,13.7328075 74.6368976,13.9692184 74.6368976,14.1454986 C74.6368976,14.4410122 74.5008403,14.6727976 74.2292512,14.840341 C74.0748078,14.9349053 73.8037439,14.9991474 73.4123824,15.0335811 L73.4123824,15.1815949 L77.7373217,15.1815949 L77.7373217,15.0335811 C77.4657325,15.0032589 77.261384,14.9683112 77.1258521,14.9277102 C76.9892695,14.8865953 76.8684465,14.8274926 76.7628577,14.7504021 C76.6136675,14.6388778 76.4760343,14.4733902 76.3478568,14.2544532 C76.22073,14.0360301 76.0505271,13.6706212 75.8340962,13.1597682 L72.9721663,6.39225048 L72.5970896,6.39225048 L70.1879833,12.4644119 C69.9678753,13.0184356 69.7918939,13.4331824 69.6579379,13.7107082 C69.5239819,13.9866922 69.386874,14.2138522 69.2466143,14.3901325 C69.0800886,14.6090695 68.9083098,14.7678759 68.7323284,14.8660378 C68.5568723,14.9647136 68.3535744,15.0212467 68.1203335,15.0335811 L68.1203335,15.1815949 L71.0699915,15.1815949 L71.0699915,15.0335811 Z" id="Fill-17"></path>
                <path d="M101.873343,8.04661253 L103.255978,11.3820613 L100.570555,11.3820613 L101.873343,8.04661253 Z M100.721847,15.0335811 C100.45446,15.0125097 100.234352,14.9436422 100.063624,14.8274926 C99.9406994,14.7421791 99.842465,14.6301409 99.7699712,14.4929198 C99.6974774,14.3551848 99.6622811,14.2066571 99.6622811,14.0483646 C99.6622811,13.7780339 99.7605155,13.4064577 99.9580349,12.9346639 L100.122459,12.5353351 L100.464966,11.6467387 L103.360517,11.6467387 L103.992999,13.1664493 L104.105417,13.43678 C104.228341,13.7328075 104.289278,13.9692184 104.289278,14.1454986 C104.289278,14.4410122 104.152695,14.6727976 103.880581,14.840341 C103.727188,14.9349053 103.455599,14.9991474 103.065288,15.0335811 L103.065288,15.1815949 L107.389702,15.1815949 L107.389702,15.0335811 C107.117062,15.0032589 106.912189,14.9683112 106.776657,14.9277102 C106.641125,14.8865953 106.519776,14.8274926 106.415238,14.7504021 C106.266573,14.6388778 106.127364,14.4733902 106.000763,14.2544532 C105.87311,14.0360301 105.702382,13.6706212 105.487527,13.1597682 L102.623496,6.39225048 L102.248945,6.39225048 L99.8398384,12.4644119 C99.6202557,13.0184356 99.443749,13.4331824 99.309793,13.7107082 C99.1768877,13.9866922 99.0382039,14.2138522 98.8979441,14.3901325 C98.7319437,14.6090695 98.5596396,14.7678759 98.3852342,14.8660378 C98.2103034,14.9647136 98.0049043,15.0212467 97.7727139,15.0335811 L97.7727139,15.1815949 L100.721847,15.1815949 L100.721847,15.0335811 Z" id="Fill-19"></path>
                <path d="M72.9288276,49.6336358 C73.1192333,49.6424656 73.2754019,49.6640497 73.3955317,49.6993691 C73.5162621,49.7356696 73.620775,49.7925731 73.711473,49.8715512 C73.8177878,49.9593591 73.8898657,50.0697322 73.9271059,50.2031611 C73.9637455,50.3370804 73.9823656,50.5450725 73.9823656,50.8271371 L73.9823656,53.8464551 C73.9823656,54.1280292 73.9637455,54.3355307 73.9271059,54.4689595 C73.8898657,54.6033694 73.8177878,54.713252 73.711473,54.8005694 C73.620775,54.8775853 73.5168628,54.9339983 73.3979343,54.9712798 C73.2790058,55.0085614 73.1228371,55.0301455 72.9288276,55.0389754 L72.9288276,55.1331604 L76.1344903,55.1331604 L76.1344903,55.0389754 C75.9068444,55.0272022 75.7254485,54.9958072 75.5878999,54.9428281 C75.4503513,54.889849 75.3386306,54.8074371 75.2515366,54.6985356 C75.1914717,54.6195575 75.1476243,54.5140899 75.1205951,54.3831138 C75.0941666,54.2526282 75.0815529,54.0735785 75.0815529,53.8464551 L75.0815529,50.8271371 C75.0815529,50.6372953 75.0905627,50.4719809 75.1115854,50.3262884 C75.1416178,50.1320317 75.2215041,49.9809432 75.3518449,49.8715512 C75.4455461,49.7925731 75.551861,49.7356696 75.6707894,49.6993691 C75.7897179,49.6640497 75.9446853,49.6424656 76.1344903,49.6336358 L76.1344903,49.5399412 L72.9288276,49.5399412 L72.9288276,49.6336358 Z" id="Fill-21"></path>
                <path d="M82.2414194,54.0588621 C82.1718589,54.2153466 82.0828216,54.3551526 81.9748638,54.4772988 C81.8129271,54.6573296 81.6064717,54.791249 81.3543847,54.8775853 C81.1017412,54.9619594 80.790667,55.0056181 80.4222749,55.0056181 C80.0683514,55.0056181 79.7851014,54.9599973 79.5708552,54.8682649 C79.3582785,54.7770232 79.1974548,54.6328023 79.0878276,54.4360928 C79.0266144,54.3247386 78.9837652,54.1790461 78.9626188,54.0024491 C78.9409159,53.824871 78.9297863,53.5545795 78.9297863,53.1915746 L78.9297863,50.8271371 C78.9297863,50.5396764 78.9481502,50.3287411 78.9865476,50.1908974 C79.022719,50.0540347 79.0933924,49.9416994 79.1996808,49.8514387 C79.2831533,49.7798188 79.3794249,49.7283114 79.4884957,49.6959353 C79.5964535,49.6630686 79.7350178,49.6424656 79.9058583,49.6336358 L79.9058583,49.5399412 L76.935906,49.5399412 L76.935906,49.6336358 C77.1028511,49.6390318 77.2403025,49.6586537 77.3477038,49.6910298 C77.4545486,49.724387 77.5508202,49.7758944 77.6387446,49.8465332 C77.74392,49.9343412 77.8145934,50.0476576 77.8535473,50.1855014 C77.8925011,50.3228546 77.911978,50.5372237 77.911978,50.8271371 L77.911978,53.8464551 C77.911978,54.1255765 77.8941705,54.3320968 77.8579991,54.4669973 C77.8234971,54.6018978 77.7578321,54.713252 77.6604475,54.8005694 C77.49072,54.9565634 77.2486497,55.0345604 76.935906,55.0345604 L76.935906,55.1331604 L82.4857156,55.1331604 L82.5458158,53.4525457 L82.4345191,53.4442064 C82.3755319,53.6988004 82.3109798,53.9038491 82.2414194,54.0588621" id="Fill-23"></path>
                <path d="M69.185235,49.6336358 C69.3643001,49.6424656 69.5070011,49.6640497 69.6155421,49.6993691 C69.7246341,49.7356696 69.8232576,49.7925731 69.9081069,49.8715512 C70.0034246,49.9593591 70.0678881,50.0697322 70.104252,50.2031611 C70.1395141,50.3370804 70.1565941,50.5450725 70.1565941,50.8271371 L70.1565941,52.1422941 L66.8893452,52.1422941 L66.8893452,50.8271371 C66.8893452,50.5485063 66.9069763,50.3410048 66.9427893,50.2061043 C66.9775004,50.0707133 67.0425148,49.9593591 67.1372815,49.8715512 C67.2237837,49.7925731 67.3213053,49.7356696 67.4298463,49.6993691 C67.5383873,49.6640497 67.6805374,49.6424656 67.8557457,49.6336358 L67.8557457,49.5399412 L64.9146707,49.5399412 L64.9146707,49.6336358 C65.089879,49.6424656 65.2320291,49.6640497 65.342774,49.6993691 C65.4529679,49.7356696 65.5493875,49.7925731 65.6325839,49.8715512 C65.7306565,49.9593591 65.7967728,50.0697322 65.8309329,50.2031611 C65.864542,50.3370804 65.8821731,50.5450725 65.8821731,50.8271371 L65.8821731,53.8464551 C65.8821731,54.1280292 65.864542,54.3355307 65.8309329,54.4689595 C65.7967728,54.6033694 65.7306565,54.713252 65.6325839,54.8005694 C65.5493875,54.8775853 65.4540698,54.9339983 65.3455288,54.9712798 C65.2358859,55.0085614 65.0926338,55.0301455 64.9146707,55.0389754 L64.9146707,55.1331604 L67.8557457,55.1331604 L67.8557457,55.0389754 C67.6772316,55.0301455 67.5339795,55.0085614 67.4259895,54.9712798 C67.3163466,54.9339983 67.2204779,54.8775853 67.1372815,54.8005694 C67.0425148,54.713252 66.9775004,54.6018978 66.9427893,54.4669973 C66.9069763,54.3320968 66.8893452,54.1255765 66.8893452,53.8464551 L66.8893452,52.3345886 L70.1565941,52.3345886 L70.1565941,53.8464551 C70.1565941,54.1280292 70.1395141,54.3355307 70.104252,54.4689595 C70.0678881,54.6033694 70.0034246,54.713252 69.9081069,54.8005694 C69.8232576,54.8775853 69.7246341,54.9339983 69.6155421,54.9712798 C69.5070011,55.0085614 69.3643001,55.0301455 69.185235,55.0389754 L69.185235,55.1331604 L72.1274119,55.1331604 L72.1274119,55.0389754 C71.9516526,55.0301455 71.8095025,55.0085614 71.7009615,54.9712798 C71.5918696,54.9339983 71.494348,54.8775853 71.4083967,54.8005694 C71.31363,54.7112898 71.2486156,54.598464 71.2128026,54.4655257 C71.1780915,54.3306252 71.1604605,54.1255765 71.1604605,53.8464551 L71.1604605,50.8271371 C71.1604605,50.5485063 71.1780915,50.3410048 71.2128026,50.2061043 C71.2486156,50.0707133 71.31363,49.9593591 71.4083967,49.8715512 C71.494348,49.7925731 71.5918696,49.7356696 71.7009615,49.6993691 C71.8095025,49.6640497 71.9516526,49.6424656 72.1274119,49.6336358 L72.1274119,49.5399412 L69.185235,49.5399412 L69.185235,49.6336358 Z" id="Fill-25"></path>
                <path d="M95.3684668,49.6336358 C95.5599662,49.6424656 95.7148465,49.6640497 95.8355091,49.6993691 C95.9561717,49.7356696 96.0618265,49.7925731 96.1512729,49.8715512 C96.2593289,49.9593591 96.330766,50.0697322 96.3661843,50.2031611 C96.404004,50.3370804 96.4220133,50.5450725 96.4220133,50.8271371 L96.4220133,53.8464551 C96.4220133,54.1280292 96.404004,54.3355307 96.3661843,54.4689595 C96.330766,54.6033694 96.2593289,54.713252 96.1512729,54.8005694 C96.0618265,54.8775853 95.9573723,54.9339983 95.8379103,54.9712798 C95.7190487,55.0085614 95.5629677,55.0301455 95.3684668,55.0389754 L95.3684668,55.1331604 L98.5741296,55.1331604 L98.5741296,55.0389754 C98.3466116,55.0272022 98.1635166,54.9958072 98.0272459,54.9428281 C97.8891743,54.889849 97.7781167,54.8074371 97.6916719,54.6985356 C97.6316407,54.6195575 97.5872177,54.5140899 97.560804,54.3831138 C97.5331897,54.2526282 97.5205831,54.0735785 97.5205831,53.8464551 L97.5205831,50.8271371 C97.5205831,50.6372953 97.5313887,50.4719809 97.5517993,50.3262884 C97.5806143,50.1320317 97.661056,49.9809432 97.7901229,49.8715512 C97.8849721,49.7925731 97.9906269,49.7356696 98.1094886,49.6993691 C98.2289505,49.6640497 98.3832306,49.6424656 98.5741296,49.6336358 L98.5741296,49.5399412 L95.3684668,49.5399412 L95.3684668,49.6336358 Z" id="Fill-27"></path>
                <path d="M88.6516622,54.0588621 C88.5826651,54.2153466 88.4930802,54.3551526 88.3845766,54.4772988 C88.2232124,54.6573296 88.0156647,54.791249 87.7641591,54.8775853 C87.5120971,54.9619594 87.2016101,55.0056181 86.8321418,55.0056181 C86.4793662,55.0056181 86.1950314,54.9599973 85.9808065,54.8682649 C85.7676945,54.7770232 85.6068867,54.6328023 85.4989396,54.4360928 C85.4366197,54.3247386 85.3948876,54.1790461 85.372074,54.0024491 C85.3514861,53.824871 85.3403576,53.5545795 85.3403576,53.1915746 L85.3403576,50.8271371 C85.3403576,50.5396764 85.3587197,50.3287411 85.3965568,50.1908974 C85.4327247,50.0540347 85.5033911,49.9416994 85.6091124,49.8514387 C85.6931331,49.7798188 85.7905081,49.7283114 85.8984551,49.6959353 C86.0052894,49.6630686 86.1460657,49.6424656 86.3168892,49.6336358 L86.3168892,49.5399412 L83.3472315,49.5399412 L83.3472315,49.6336358 C83.5136036,49.6390318 83.6510414,49.6586537 83.7578756,49.6910298 C83.863597,49.724387 83.9620848,49.7758944 84.0483311,49.8465332 C84.1529397,49.9343412 84.2263882,50.0476576 84.2647817,50.1855014 C84.3026189,50.3228546 84.3226503,50.5372237 84.3226503,50.8271371 L84.3226503,53.8464551 C84.3226503,54.1255765 84.305401,54.3320968 84.2692332,54.4669973 C84.2336218,54.6018978 84.1674068,54.713252 84.0711447,54.8005694 C83.9008776,54.9565634 83.6593878,55.0345604 83.3472315,55.0345604 L83.3472315,55.1331604 L88.8959342,55.1331604 L88.9571413,53.4525457 L88.8452993,53.4442064 C88.7857614,53.6988004 88.7212157,53.9038491 88.6516622,54.0588621" id="Fill-29"></path>
                <path d="M132.629079,49.6444363 C132.793953,49.654284 132.929088,49.6783561 133.031352,49.7177469 C133.134659,49.7582319 133.227532,49.8216948 133.30736,49.909777 C133.399189,50.0077069 133.461278,50.1308032 133.494149,50.2796128 C133.527541,50.4289696 133.543715,50.6609376 133.543715,50.9755168 L133.543715,53.5299004 C133.543715,53.9954777 133.537976,54.2909087 133.526497,54.4161933 C133.509279,54.6076763 133.4738,54.7663337 133.419538,54.8905241 C133.365797,55.0163558 133.281794,55.1317927 133.169617,55.237929 C132.985959,55.4097166 132.756909,55.5421135 132.482987,55.6389492 C132.208544,55.7341436 131.918448,55.782835 131.618439,55.782835 C131.30643,55.782835 131.048683,55.7275784 130.844155,55.620895 C130.639105,55.5120233 130.467448,55.3380473 130.328139,55.0962316 C130.233702,54.9375742 130.1737,54.7646924 130.141873,54.5786803 C130.111611,54.3910269 130.097002,54.0862954 130.097002,53.666674 L130.097002,51.0800119 C130.097002,50.7079877 130.111611,50.4459295 130.141873,50.2938373 C130.1737,50.141745 130.235789,50.013725 130.33127,49.909777 C130.410576,49.8216948 130.502405,49.7582319 130.605713,49.7177469 C130.711629,49.6783561 130.846764,49.654284 131.012682,49.6444363 L131.012682,49.5399412 L128.22651,49.5399412 L128.22651,49.6444363 C128.395559,49.654284 128.531215,49.6783561 128.634522,49.7177469 C128.737308,49.7582319 128.828615,49.8216948 128.906879,49.909777 C128.999229,50.0077069 129.062362,50.1308032 129.093667,50.2796128 C129.126016,50.4289696 129.141147,50.6609376 129.141147,50.9755168 L129.141147,53.7487381 C129.141147,54.0988785 129.150538,54.3406942 129.167756,54.4747324 C129.216279,54.8533217 129.369153,55.1575061 129.621161,55.388927 C130.010912,55.7521977 130.61667,55.9321917 131.438956,55.9321917 C132.227327,55.9321917 132.833085,55.7407087 133.25675,55.3566485 C133.442495,55.1892376 133.566673,55.0037726 133.628761,54.8018948 C133.691372,54.5989228 133.723199,54.2843435 133.723199,53.8587041 L133.723199,50.9755168 C133.723199,50.6647672 133.738852,50.4333463 133.772766,50.2828954 C133.806158,50.1318973 133.868247,50.0077069 133.958511,49.909777 C134.038861,49.8216948 134.131733,49.7582319 134.235562,49.7177469 C134.337305,49.6783561 134.472439,49.654284 134.637836,49.6444363 L134.637836,49.5399412 L132.629079,49.5399412 L132.629079,49.6444363 Z" id="Fill-31"></path>
                <path d="M144.517344,52.7152533 L145.385145,50.5931461 L146.306001,52.7152533 L144.517344,52.7152533 Z M148.413518,54.858454 C148.314236,54.7878152 148.221782,54.6828381 148.137208,54.5425416 C148.052109,54.4037167 147.937593,54.1711974 147.794711,53.8464551 L145.886284,49.5399412 L145.635715,49.5399412 L144.029863,53.4044721 C143.882778,53.7561944 143.765635,54.0210899 143.675808,54.1962153 C143.587032,54.3728123 143.496155,54.5165426 143.402651,54.6283874 C143.290761,54.7681933 143.177821,54.869246 143.059102,54.9320361 C142.943536,54.9958072 142.806957,55.0301455 142.651992,55.0389754 L142.651992,55.1331604 L144.617677,55.1331604 L144.617677,55.0389754 C144.439599,55.0247495 144.29409,54.9815813 144.179049,54.9079993 C144.097101,54.853058 144.031439,54.7824192 143.983636,54.6951018 C143.935308,54.6068033 143.911144,54.5126182 143.911144,54.412056 C143.911144,54.2403645 143.976807,54.0034302 144.108658,53.7027248 L144.218972,53.4491119 L144.447479,52.883511 L146.377968,52.883511 L146.799261,53.8503795 L146.872804,54.022071 C146.954226,54.2109317 146.995725,54.3615297 146.995725,54.4728839 C146.995725,54.6617446 146.904847,54.8098898 146.724143,54.9153575 C146.621183,54.9756948 146.439954,55.0173913 146.179929,55.0389754 L146.179929,55.1331604 L149.063318,55.1331604 L149.063318,55.0389754 C148.881563,55.0193535 148.744984,54.9977694 148.654107,54.9712798 C148.563755,54.9452808 148.483383,54.9079993 148.413518,54.858454 Z" id="Fill-33"></path>
                <path d="M149.864734,49.6336358 C150.054539,49.6424656 150.210107,49.6640497 150.330837,49.6993691 C150.450366,49.7356696 150.556681,49.7925731 150.64798,49.8715512 C150.754294,49.9593591 150.826372,50.0697322 150.863012,50.2031611 C150.899051,50.3370804 150.918272,50.5450725 150.918272,50.8271371 L150.918272,53.8464551 C150.918272,54.1280292 150.899051,54.3355307 150.863012,54.4689595 C150.826372,54.6033694 150.754294,54.713252 150.64798,54.8005694 C150.556681,54.8775853 150.452168,54.9339983 150.33324,54.9712798 C150.214311,55.0085614 150.058743,55.0301455 149.864734,55.0389754 L149.864734,55.1331604 L153.070396,55.1331604 L153.070396,55.0389754 C152.84275,55.0272022 152.661355,54.9958072 152.523205,54.9428281 C152.386858,54.889849 152.274537,54.8074371 152.187443,54.6985356 C152.127378,54.6195575 152.084131,54.5140899 152.057702,54.3831138 C152.030673,54.2526282 152.016258,54.0735785 152.016258,53.8464551 L152.016258,50.8271371 C152.016258,50.6372953 152.026469,50.4719809 152.047491,50.3262884 C152.076323,50.1320317 152.156809,49.9809432 152.287751,49.8715512 C152.381452,49.7925731 152.486566,49.7356696 152.606095,49.6993691 C152.725624,49.6640497 152.878789,49.6424656 153.070396,49.6336358 L153.070396,49.5399412 L149.864734,49.5399412 L149.864734,49.6336358 Z" id="Fill-35"></path>
                <path d="M140.330357,54.646047 C140.049075,54.8864152 139.664278,55.0056181 139.179217,55.0056181 C138.804175,55.0056181 138.540779,54.9143764 138.387402,54.7318928 C138.313152,54.6435943 138.261123,54.5376361 138.230231,54.412056 C138.198797,54.2859854 138.182538,54.1201805 138.182538,53.9161128 L138.182538,52.2276494 L138.993322,52.2276494 C139.572144,52.2276494 139.998672,52.3291926 140.268572,52.5308075 C140.417614,52.6406901 140.535763,52.7966841 140.623019,53.0007517 C140.710818,53.2038383 140.754176,53.424094 140.754176,53.6624999 C140.754176,54.0775028 140.612722,54.4051884 140.330357,54.646047 Z M138.182538,49.666993 L138.604189,49.666993 C138.927202,49.666993 139.167836,49.683181 139.32609,49.7165382 C139.484345,49.7484238 139.625256,49.8107233 139.748825,49.9004934 C139.891363,50.0039989 140.004634,50.1496914 140.089723,50.3365899 C140.17698,50.5244695 140.219253,50.7216695 140.219253,50.9296615 C140.219253,51.1253898 140.178606,51.3054206 140.095685,51.4682823 C140.01168,51.6301629 139.895157,51.7631012 139.740154,51.8666066 C139.6594,51.9195857 139.568892,51.9603011 139.470796,51.9907151 C139.373241,52.0201479 139.243711,52.0456563 139.083289,52.0687121 C138.900103,52.0902961 138.721796,52.1005976 138.550534,52.1005976 L138.182538,52.1005976 L138.182538,49.666993 Z M141.238695,52.4361319 C141.109707,52.3434185 140.962833,52.2713081 140.804037,52.2202911 C140.644698,52.1678026 140.418698,52.1202195 140.129287,52.0755797 C140.340112,52.0078842 140.501619,51.9455847 140.614348,51.8901529 C140.725451,51.83374 140.825715,51.7631012 140.911888,51.6792176 C141.1574,51.4496415 141.279343,51.1558037 141.279343,50.7972137 C141.279343,50.576958 141.22623,50.3763242 141.118378,50.2002178 C141.01161,50.0226397 140.859317,49.8784188 140.663667,49.7690268 C140.436582,49.6468805 140.152049,49.5723174 139.8079,49.5472995 C139.715223,49.5433751 139.517405,49.5399412 139.214445,49.5399412 L136.240667,49.5399412 L136.240667,49.6336358 C136.413013,49.6429562 136.553382,49.6640497 136.661776,49.6993691 C136.77017,49.7356696 136.866098,49.7930636 136.946851,49.8715512 C137.043321,49.9593591 137.108358,50.0697322 137.140876,50.2031611 C137.175562,50.337571 137.191821,50.5450725 137.191821,50.8271371 L137.191821,53.8464551 C137.191821,54.1280292 137.175562,54.3355307 137.140876,54.4689595 C137.108358,54.6033694 137.043321,54.713252 136.946851,54.8005694 C136.866098,54.8775853 136.771795,54.9339983 136.663944,54.9712798 C136.557176,55.0085614 136.415181,55.0301455 136.240667,55.0389754 L136.240667,55.1331604 L139.549381,55.1331604 C139.995963,55.1331604 140.342822,55.1110858 140.588875,55.0679176 C140.834929,55.0237684 141.04738,54.9462619 141.225146,54.8334361 C141.420796,54.707856 141.574173,54.5430321 141.684193,54.3365118 C141.794754,54.1299914 141.850577,53.902868 141.850577,53.6536701 C141.850577,53.4074154 141.79638,53.1798015 141.689612,52.9673945 C141.581219,52.7554781 141.431094,52.5783906 141.238695,52.4361319 Z" id="Fill-37"></path>
                <path d="M105.349711,53.4962044 C105.245027,53.8072113 105.090139,54.0819178 104.888249,54.3217954 C104.683155,54.5705028 104.449754,54.7500431 104.190182,54.8604162 C103.930609,54.9717704 103.617627,55.0262211 103.251235,55.0262211 C102.823422,55.0262211 102.514179,54.9202629 102.322971,54.7068749 C102.234311,54.609256 102.173423,54.490053 102.139775,54.3497565 C102.107729,54.2109317 102.091172,54.0078451 102.091172,53.7400064 L102.091172,49.666993 L102.631146,49.666993 C103.018368,49.666993 103.335089,49.698388 103.586115,49.761178 C104.043304,49.8784188 104.437469,50.1187869 104.768077,50.4817919 C105.006285,50.7452157 105.187345,51.0508266 105.316062,51.4005868 C105.44478,51.7503469 105.508338,52.1182573 105.508338,52.5067707 C105.508338,52.8560403 105.455462,53.1861786 105.349711,53.4962044 M105.267459,50.0476576 C104.829498,49.7636308 104.297535,49.599788 103.671037,49.5561293 C103.520955,49.5458278 103.175393,49.5399412 102.631146,49.5399412 L100.176961,49.5399412 L100.176961,49.6336358 C100.460033,49.6478616 100.674207,49.7106517 100.819482,49.822987 C100.935916,49.9122666 101.01336,50.0270546 101.053952,50.1673511 C101.094543,50.3056854 101.114839,50.5269222 101.114839,50.8271371 L101.114839,53.8469457 C101.114839,54.126067 101.09668,54.3320968 101.063031,54.4669973 C101.028849,54.6023883 100.965825,54.7137426 100.872892,54.80106 C100.789573,54.8810192 100.695571,54.9369415 100.591956,54.973242 C100.487807,55.0085614 100.349475,55.0301455 100.176961,55.0389754 L100.176961,55.1331604 L103.473421,55.1331604 C103.857972,55.1331604 104.233978,55.1012749 104.601972,55.0389754 C105.096014,54.9541107 105.508338,54.7559296 105.838945,54.4449227 C106.072881,54.2227048 106.257145,53.9455456 106.390136,53.6109925 C106.521524,53.2759487 106.588286,52.9207925 106.588286,52.5435618 C106.588286,52.0279966 106.471853,51.5497131 106.23952,51.1111639 C106.009323,50.6731053 105.684057,50.3184397 105.267459,50.0476576" id="Fill-39"></path>
                <path d="M93.1196399,52.2263304 L92.4745205,51.92209 C91.8195436,51.6189172 91.4931505,51.2191346 91.4931505,50.7216749 C91.4931505,50.5978438 91.5161513,50.4734788 91.5632483,50.3469789 C91.6103453,50.2220802 91.6760621,50.1137279 91.7576604,50.0213883 C91.9553582,49.7956099 92.2247969,49.6829876 92.5665239,49.6829876 C92.8009137,49.6829876 93.0068261,49.7384981 93.1875472,49.8500529 C93.3666253,49.961074 93.5314648,50.1334769 93.6798751,50.364059 C93.762021,50.4921603 93.8337618,50.6314703 93.8923592,50.7809217 C93.9525996,50.9319744 94.0226975,51.1476115 94.1048434,51.4305016 L94.2099902,51.4305016 L94.1776794,49.6600361 L94.0730803,49.6600361 C94.0358408,49.8121563 93.9641,49.8879495 93.857858,49.8879495 C93.8156897,49.8879495 93.7669498,49.8788757 93.7121858,49.8633968 C93.6568742,49.8463166 93.553918,49.8089538 93.4011266,49.7486395 C93.1957618,49.6659074 93.0331128,49.6114644 92.9109892,49.5815741 C92.7894132,49.5543526 92.6552415,49.5399412 92.5134029,49.5399412 C92.0709102,49.5399412 91.6886578,49.6861901 91.3650028,49.9765529 C91.1820912,50.1398819 91.0386097,50.3368375 90.9367487,50.5647509 C90.8354354,50.7942656 90.7839573,51.0317866 90.7839573,51.2783814 C90.7839573,51.680299 90.9148431,52.0197672 91.1771625,52.2989211 C91.2713565,52.4003346 91.3967659,52.5001468 91.550105,52.5978239 C91.7039917,52.6965686 91.9257857,52.8166635 92.2160346,52.9586423 C92.5446184,53.1235727 92.7894132,53.2580789 92.949324,53.3658974 C93.1108776,53.4715809 93.2351918,53.5836695 93.3228141,53.7000281 C93.4076983,53.8131842 93.4761532,53.9482242 93.526536,54.1051482 C93.5763712,54.2626059 93.6021103,54.4168611 93.6021103,54.5689813 C93.6021103,54.9196584 93.487106,55.2089536 93.2592879,55.4379346 C93.029827,55.6663817 92.7406733,55.7816728 92.3896364,55.7816728 C91.885808,55.7816728 91.4685067,55.5318754 91.1355419,55.0344157 C90.9592019,54.7648694 90.8064105,54.3955109 90.6788105,53.926874 L90.5725684,53.9220702 L90.5599727,55.7635251 L90.6645719,55.7635251 C90.7198835,55.6210125 90.8211968,55.5500231 90.9668689,55.5500231 C91.012323,55.5500231 91.0539436,55.5558944 91.0900878,55.5671033 C91.1267796,55.5793796 91.2395934,55.6258163 91.4290766,55.7053458 C91.7921616,55.857466 92.1700329,55.9321917 92.5626905,55.9321917 C92.9931351,55.9321917 93.3666253,55.8393184 93.6842562,55.6503691 C94.0013395,55.4619535 94.2390151,55.1940085 94.3972829,54.8481352 C94.5106443,54.5988716 94.5670511,54.3383991 94.5670511,54.0651166 C94.5670511,53.6546589 94.442737,53.294908 94.1919181,52.9853301 C93.9734099,52.7077775 93.6152536,52.4547776 93.1196399,52.2263304" id="Fill-41"></path>
                <path d="M112.700513,54.092128 C112.629777,54.2427392 112.538989,54.3766703 112.42815,54.4939214 C112.269967,54.6690621 112.065555,54.7975967 111.8138,54.8814876 C111.562602,54.9653786 111.251806,55.0060976 110.879743,55.0060976 C110.52439,55.0060976 110.240329,54.9604727 110.025335,54.8687323 C109.808669,54.7769919 109.649373,54.633249 109.543547,54.4365223 C109.481165,54.3217242 109.438834,54.179453 109.417669,54.0087276 C109.396504,53.8380022 109.385364,53.5647435 109.385364,53.1914043 L109.385364,52.251924 L109.64993,52.251924 C109.879406,52.251924 110.069893,52.2730194 110.21805,52.314229 C110.366764,52.3554386 110.487629,52.4187247 110.581202,52.5065403 C110.677559,52.5972995 110.752752,52.7062106 110.806779,52.8347452 C110.860806,52.9632798 110.902023,53.1330241 110.930429,53.3425061 L111.036812,53.3425061 L111.055192,51.1461336 L110.947138,51.1422089 C110.920403,51.3526721 110.88587,51.512114 110.842983,51.6190626 C110.80288,51.7274831 110.737156,51.8211858 110.651381,51.9001708 C110.56115,51.9855335 110.443627,52.0434232 110.301597,52.0758021 C110.159567,52.1091623 109.946244,52.1248612 109.664968,52.1248612 L109.385364,52.1248612 L109.385364,49.6670041 L110.451425,49.6670041 C110.77893,49.6670041 111.043496,49.6866277 111.241781,49.7263655 C111.440066,49.7656128 111.611059,49.8333142 111.758102,49.9299605 C111.935222,50.044268 112.070568,50.1767274 112.163027,50.3258668 C112.2566,50.4774592 112.322323,50.6663364 112.362983,50.895442 L112.47048,50.8924985 L112.390832,49.5399412 L107.389702,49.5399412 L107.389702,49.633644 C107.569607,49.6424746 107.714979,49.6640606 107.82359,49.6993831 C107.933872,49.7356867 108.031344,49.7925952 108.114891,49.8715802 C108.211249,49.9593959 108.276415,50.0707599 108.312619,50.2061628 C108.348823,50.3410751 108.367203,50.5481042 108.367203,50.82725 L108.367203,53.8468328 C108.367203,54.1259787 108.348823,54.3325172 108.312619,54.4674295 C108.276415,54.6023418 108.211249,54.7137058 108.114891,54.8010308 C108.028559,54.8814876 107.928859,54.9374149 107.820248,54.9737186 C107.709966,55.0085505 107.566822,55.0306271 107.389702,55.0394577 L107.389702,55.1331604 L112.940015,55.1331604 L112.999612,53.5019479 L112.893229,53.4985138 C112.834746,53.7433183 112.770136,53.9424979 112.700513,54.092128" id="Fill-43"></path>
                <path d="M125.385431,53.4962044 C125.279661,53.8072113 125.125815,54.0819178 124.923892,54.3217954 C124.719298,54.5705028 124.485858,54.7500431 124.225708,54.8604162 C123.965025,54.9717704 123.651456,55.0262211 123.28714,55.0262211 C122.858721,55.0262211 122.548892,54.9202629 122.358187,54.7068749 C122.269512,54.609256 122.208614,54.490053 122.17496,54.3497565 C122.141841,54.2109317 122.124747,54.0078451 122.124747,53.7400064 L122.124747,49.666993 L122.666947,49.666993 C123.052097,49.666993 123.370473,49.698388 123.621007,49.761178 C124.078807,49.8784188 124.473037,50.1187869 124.8037,50.4817919 C125.041948,50.7452157 125.223572,51.0508266 125.351777,51.4005868 C125.480516,51.7503469 125.544085,52.1182573 125.544085,52.5067707 C125.544085,52.8560403 125.4912,53.1861786 125.385431,53.4962044 M125.3037,50.0476576 C124.865131,49.7636308 124.332012,49.599788 123.705409,49.5561293 C123.556371,49.5458278 123.210751,49.5399412 122.666947,49.5399412 L120.212353,49.5399412 L120.212353,49.6336358 C120.494404,49.6478616 120.709148,49.7106517 120.854447,49.822987 C120.969832,49.9122666 121.048358,50.0270546 121.088956,50.1673511 C121.128486,50.3056854 121.148251,50.5269222 121.148251,50.8271371 L121.148251,53.8469457 C121.148251,54.126067 121.131691,54.3320968 121.096969,54.4669973 C121.063849,54.6023883 120.999746,54.7137426 120.907866,54.80106 C120.824533,54.8810192 120.730516,54.9369415 120.625815,54.973242 C120.522716,55.0085614 120.384362,55.0301455 120.212353,55.0389754 L120.212353,55.1331604 L123.508828,55.1331604 C123.893977,55.1331604 124.268978,55.1012749 124.637567,55.0389754 C125.131691,54.9541107 125.544085,54.7559296 125.874747,54.4449227 C126.108721,54.2227048 126.293016,53.9455456 126.425495,53.6109925 C126.557439,53.2759487 126.623679,52.9207925 126.623679,52.5435618 C126.623679,52.0279966 126.50776,51.5497131 126.275922,51.1111639 C126.04355,50.6731053 125.719832,50.3184397 125.3037,50.0476576" id="Fill-45"></path>
                <path d="M153.443259,36.7181565 C153.344607,36.9530256 153.214131,37.1647675 153.053954,37.3497846 C152.82854,37.6242268 152.536826,37.8272318 152.176693,37.9572578 C151.818682,38.0898534 151.373156,38.1540955 150.841708,38.1540955 C150.335718,38.1540955 149.929441,38.0821444 149.622346,37.9382421 C149.314191,37.7948538 149.085594,37.5682077 148.934964,37.2593318 C148.844798,37.079454 148.785925,36.8538358 148.755693,36.5860748 C148.723339,36.316772 148.708489,35.8902046 148.708489,35.3017471 L148.708489,33.8272629 L149.087716,33.8272629 C149.415495,33.8272629 149.684932,33.859127 149.897618,33.9233691 C150.110303,33.9876111 150.282679,34.0883427 150.416867,34.2265917 C150.553177,34.3674103 150.660845,34.5390652 150.739343,34.7420701 C150.815719,34.9435333 150.875122,35.2087246 150.914901,35.5402137 L151.067122,35.5402137 L151.093111,32.0886153 L150.94089,32.0814201 C150.902172,32.4123953 150.851785,32.6631964 150.791851,32.8322816 C150.731387,33.0023946 150.64016,33.1483526 150.51658,33.2732392 C150.387165,33.4063488 150.221684,33.4988574 150.018546,33.5502511 C149.814347,33.6021587 149.510435,33.6268276 149.10734,33.6268276 L148.708489,33.6268276 L148.708489,29.7635659 L150.22911,29.7635659 C150.700094,29.7635659 151.076669,29.7938882 151.359896,29.8571024 C151.643654,29.9192887 151.889223,30.0251597 152.097665,30.1752292 C152.35066,30.3561348 152.543191,30.5647931 152.675258,30.8001761 C152.808915,31.036587 152.902794,31.3346702 152.962197,31.6959677 L153.114419,31.6887726 L153.000916,29.5641585 L145.857655,29.5641585 L145.857655,29.7116583 C146.114363,29.7250207 146.321214,29.7604823 146.478739,29.8149596 C146.636264,29.8704647 146.773635,29.9619454 146.894563,30.0858042 C147.031403,30.2235392 147.126342,30.3977637 147.176729,30.6105335 C147.227646,30.8217614 147.252575,31.1486251 147.252575,31.5854713 L147.252575,36.3321901 C147.252575,36.7690362 147.227646,37.0943581 147.176729,37.3071279 C147.126342,37.5204116 147.031403,37.695664 146.894563,37.8318572 C146.769922,37.9572578 146.628839,38.0471967 146.472905,38.1016739 C146.314849,38.1592349 146.11012,38.1921268 145.857655,38.2060031 L145.857655,38.3535029 L153.785889,38.3535029 L153.871812,35.7905009 L153.719591,35.7848476 C153.634729,36.1703001 153.543502,36.4822596 153.443259,36.7181565" id="Fill-47"></path>
                <path d="M105.53264,35.78125 C105.374012,36.2674341 105.143281,36.7006827 104.839913,37.079454 C104.532272,37.4695319 104.182971,37.7516831 103.792545,37.9259076 C103.403187,38.0991043 102.932645,38.1864735 102.38466,38.1864735 C101.74107,38.1864735 101.276404,38.0194441 100.992797,37.6838435 C100.858204,37.5296625 100.766339,37.3425895 100.717202,37.1241665 C100.668599,36.9042016 100.643497,36.5850469 100.643497,36.1646468 L100.643497,29.7635659 L101.453725,29.7635659 C102.033756,29.7635659 102.511775,29.8129038 102.88511,29.9120936 C103.57303,30.0965968 104.164278,30.4743403 104.659388,31.0453239 C105.016166,31.4575011 105.290693,31.9380318 105.482434,32.4874301 C105.674176,33.0373423 105.76978,33.6165489 105.76978,34.2265917 C105.76978,34.7749621 105.690199,35.2940381 105.53264,35.78125 M105.408729,30.3623021 C104.752855,29.9151772 103.954911,29.6582089 103.012226,29.5893414 C102.790041,29.5723815 102.269828,29.5641585 101.453725,29.5641585 L97.7727139,29.5641585 L97.7727139,29.7116583 C98.1967886,29.7332436 98.5177821,29.8319195 98.7367628,30.0081997 C98.910345,30.1505602 99.0267786,30.330438 99.0882,30.5488611 C99.1480191,30.768826 99.1779286,31.1141914 99.1779286,31.5854713 L99.1779286,36.3316762 C99.1779286,36.7690362 99.1517578,37.0943581 99.1010183,37.3071279 C99.0497448,37.5204116 98.9557434,37.695664 98.8163435,37.8318572 C98.6913643,37.9572578 98.5514304,38.0471967 98.3949393,38.1016739 C98.2395165,38.1587209 98.0312179,38.1921268 97.7727139,38.2060031 L97.7727139,38.3535029 L102.719006,38.3535029 C103.294764,38.3535029 103.858773,38.3046789 104.411566,38.2060031 C105.153429,38.0718656 105.76978,37.7619618 106.265424,37.2716663 C106.617395,36.9242451 106.89299,36.487399 107.091675,35.9611278 C107.29036,35.4353707 107.389702,34.8751797 107.389702,34.2841526 C107.389702,33.4721327 107.215052,32.7228131 106.866819,32.0331101 C106.520189,31.344435 106.03309,30.7883556 105.408729,30.3623021" id="Fill-49"></path>
                <path d="M91.0068275,37.3107255 C90.9602801,37.5209255 90.8701884,37.695664 90.7375535,37.8318572 C90.6244383,37.9521184 90.4938054,38.0410294 90.3451541,38.0991043 C90.1970033,38.158207 90.0008036,38.1921268 89.758557,38.2060031 L89.758557,38.3535029 L93.7656355,38.3535029 L93.7656355,38.2060031 C93.4808456,38.1890432 93.2541148,38.1386774 93.0824401,38.0543918 C92.9102649,37.9701062 92.7711232,37.8436778 92.6620122,37.670995 C92.5869358,37.5466224 92.5323802,37.3821627 92.4993466,37.1750462 C92.465312,36.9699855 92.4492957,36.6878343 92.4492957,36.3316762 L92.4492957,31.5854713 C92.4492957,31.2904717 92.4613079,31.028364 92.4868339,30.8001761 C92.5248726,30.4959256 92.6239735,30.2569451 92.7881406,30.0852902 C92.9052598,29.9619454 93.0373942,29.8704647 93.185545,29.8149596 C93.3346968,29.7599683 93.5278935,29.7245067 93.7656355,29.7116583 L93.7656355,29.5641585 L89.758557,29.5641585 L89.758557,29.7116583 C89.996299,29.7245067 90.1914977,29.7599683 90.3416505,29.8149596 C90.4923038,29.8704647 90.6244383,29.9619454 90.7375535,30.0852902 C90.8701884,30.2235392 90.9602801,30.3977637 91.0068275,30.6069359 C91.0533749,30.8181639 91.0758978,31.1439997 91.0758978,31.5854713 L91.0758978,36.3316762 C91.0758978,36.7741756 91.0533749,37.1000114 91.0068275,37.3107255" id="Fill-51"></path>
                <path d="M118.180997,36.7181565 C118.081821,36.9530256 117.952415,37.1647675 117.79384,37.3497846 C117.566849,37.6242268 117.274624,37.8272318 116.916637,37.9572578 C116.557058,38.0898534 116.111031,38.1540955 115.580148,38.1540955 C115.075783,38.1540955 114.669003,38.0821444 114.360868,37.9382421 C114.052203,37.7948538 113.823621,37.5682077 113.673001,37.2593318 C113.584962,37.079454 113.524502,36.8538358 113.493211,36.5860748 C113.462981,36.316772 113.447601,35.8902046 113.447601,35.3017471 L113.447601,33.8272629 L113.825212,33.8272629 C114.1535,33.8272629 114.42451,33.859127 114.636121,33.9233691 C114.849853,33.9876111 115.022217,34.0883427 115.154805,34.2265917 C115.291636,34.3674103 115.400359,34.5390652 115.47726,34.7420701 C115.555222,34.9435333 115.6125,35.2087246 115.653337,35.5402137 L115.807139,35.5402137 L115.833126,32.0886153 L115.680385,32.0814201 C115.640078,32.4123953 115.590225,32.6631964 115.530825,32.8322816 C115.471426,33.0023946 115.379145,33.1483526 115.254512,33.2732392 C115.126697,33.4063488 114.959636,33.4988574 114.75598,33.5502511 C114.552325,33.6021587 114.248433,33.6268276 113.845365,33.6268276 L113.447601,33.6268276 L113.447601,29.7635659 L114.969182,29.7635659 C115.438014,29.7635659 115.814564,29.7938882 116.098303,29.8571024 C116.382041,29.9192887 116.627594,30.0251597 116.837084,30.1752292 C117.088471,30.3561348 117.280989,30.5647931 117.414638,30.8001761 C117.546695,31.036587 117.642689,31.3346702 117.700498,31.6959677 L117.852178,31.6887726 L117.740274,29.5641585 L110.595365,29.5641585 L110.595365,29.7116583 C110.853647,29.7250207 111.061545,29.7604823 111.219059,29.8149596 C111.374983,29.8704647 111.513935,29.9619454 111.632734,30.0858042 C111.770096,30.2235392 111.865029,30.3977637 111.915412,30.6105335 C111.966326,30.8217614 111.992313,31.1486251 111.992313,31.5854713 L111.992313,36.3321901 C111.992313,36.7690362 111.966326,37.0943581 111.915412,37.3071279 C111.865029,37.5204116 111.770096,37.695664 111.632734,37.8318572 C111.509162,37.9572578 111.368619,38.0471967 111.211104,38.1016739 C111.05412,38.1592349 110.848343,38.1921268 110.595365,38.2060031 L110.595365,38.3535029 L118.523605,38.3535029 L118.609522,35.7905009 L118.457311,35.7848476 C118.374045,36.1703001 118.281234,36.4822596 118.180997,36.7181565" id="Fill-53"></path>
                <path d="M123.132399,37.3071279 C123.081512,37.5204116 122.987161,37.695664 122.849873,37.8318572 C122.725838,37.9572578 122.585901,38.0471967 122.429001,38.1016739 C122.271571,38.1587209 122.066436,38.1921268 121.815185,38.2060031 L121.815185,38.3535029 L124.875256,38.3535029 L124.875256,38.2060031 C124.623474,38.1921268 124.417809,38.1587209 124.260909,38.1016739 C124.10454,38.0471967 123.963542,37.9572578 123.839507,37.8318572 C123.70275,37.695664 123.607868,37.5209255 123.557512,37.3107255 C123.506625,37.1000114 123.480652,36.7741756 123.480652,36.3316762 L123.480652,30.7292528 L129.737552,38.3535029 L130.035979,38.3535029 L130.035979,31.5782762 C130.035979,31.1460555 130.061952,30.8217614 130.112308,30.6105335 C130.163725,30.3977637 130.258076,30.2235392 130.394834,30.0852902 C130.642904,29.8365449 130.987977,29.7116583 131.432173,29.7116583 L131.432173,29.5641585 L128.368921,29.5641585 L128.368921,29.7116583 C128.621763,29.7245067 128.825838,29.7599683 128.982738,29.8149596 C129.141227,29.8704647 129.281165,29.9619454 129.40573,30.0852902 C129.543017,30.2235392 129.636839,30.3977637 129.687725,30.6069359 C129.738612,30.8181639 129.763525,31.1439997 129.763525,31.5854713 L129.763525,36.2345421 L124.371163,29.5641585 L121.815185,29.5641585 L121.815185,29.7116583 C122.071206,29.7245067 122.277932,29.7599683 122.435362,29.8149596 C122.592791,29.8704647 122.731139,29.9619454 122.849873,30.0852902 C122.987161,30.2235392 123.081512,30.3977637 123.132399,30.6105335 C123.183285,30.8217614 123.208728,31.1460555 123.208728,31.5782762 L123.208728,36.3316762 C123.208728,36.7690362 123.183285,37.0943581 123.132399,37.3071279" id="Fill-55"></path>
                <path d="M85.5128134,37.5252962 C85.6712421,37.1517093 85.7514786,36.7589093 85.7514786,36.3506321 C85.7514786,35.7352811 85.5761849,35.1946474 85.2261085,34.7313996 C84.9204944,34.3167181 84.417611,33.9372605 83.723591,33.5935605 L82.8220805,33.1383181 C81.9057492,32.6830758 81.447328,32.0826682 81.447328,31.3376291 C81.447328,31.1497682 81.481058,30.9629747 81.5464738,30.7751139 C81.6124005,30.587253 81.7033693,30.4250095 81.8183579,30.2867824 C82.0943305,29.9473519 82.4730262,29.7776367 82.9493345,29.7776367 C83.2774353,29.7776367 83.5672065,29.861427 83.8191593,30.0290074 C84.071112,30.1955204 84.3005782,30.4527617 84.5090908,30.801265 C84.6240794,30.9928617 84.7242472,31.201003 84.8060169,31.4267562 C84.8893197,31.6514421 84.9884654,31.975929 85.102943,32.398616 L85.2511505,32.398616 L85.2061772,29.7445476 L85.0589918,29.7445476 C85.0078857,29.9719019 84.9077179,30.0861128 84.7584883,30.0861128 C84.6981831,30.0861128 84.629701,30.0727704 84.5525309,30.0487541 C84.4763829,30.0236704 84.3317528,29.9670987 84.1176185,29.8774378 C83.8319358,29.752553 83.6029807,29.6698302 83.4322866,29.6271346 C83.2615924,29.5849726 83.0760775,29.5641585 82.8752308,29.5641585 C82.2558256,29.5641585 81.7212564,29.78244 81.2679458,30.219003 C81.0124157,30.4650367 80.812591,30.7585693 80.6694941,31.1017356 C80.5263972,31.4454356 80.4548488,31.802478 80.4548488,32.1717953 C80.4548488,32.7743377 80.6388305,33.2834833 81.0057719,33.7029681 C81.1381365,33.8550714 81.311897,34.0039724 81.5275645,34.1507387 C81.743232,34.297505 82.0534457,34.4784279 82.4587165,34.6935072 C82.919693,34.9379398 83.2631256,35.1418115 83.48697,35.3008528 C83.7113255,35.4614952 83.8855971,35.6290756 84.0092737,35.8025267 C84.1283508,35.9727756 84.222897,36.1739789 84.2944454,36.4114734 C84.3644607,36.6479006 84.3997239,36.8795245 84.3997239,37.1068789 C84.3997239,37.6331027 84.2392509,38.0669973 83.9193271,38.4106973 C83.5983812,38.7543973 83.1946435,38.9251799 82.7024923,38.9251799 C81.9982511,38.9251799 81.413087,38.5526603 80.9480221,37.8054864 C80.7006688,37.4004115 80.4870456,36.8464354 80.3076634,36.1440919 L80.1609891,36.1376876 L80.1415688,38.8990288 L80.2887542,38.8990288 C80.3654132,38.6839494 80.5059548,38.5788114 80.7114011,38.5788114 C80.7747726,38.5788114 80.8325224,38.5862831 80.8841395,38.6044288 C80.9352455,38.6225744 81.0931632,38.6914212 81.3578925,38.810969 C81.8663976,39.0393907 82.3953451,39.1525342 82.9462681,39.1525342 C83.5482973,39.1525342 84.071112,39.0111049 84.5147125,38.7293136 C84.9588239,38.4475223 85.2910132,38.0461832 85.5128134,37.5252962" id="Fill-57"></path>
                <path d="M76.5073812,36.7181565 C76.4071446,36.9530256 76.2777385,37.1647675 76.1181024,37.3497846 C75.8927026,37.6242268 75.6004784,37.8272318 75.2414297,37.9572578 C74.8823811,38.0898534 74.436885,38.1540955 73.9054717,38.1540955 C73.4005761,38.1540955 72.9943261,38.0821444 72.6861913,37.9382421 C72.3780565,37.7948538 72.1489442,37.5682077 71.9988544,37.2593318 C71.9097552,37.079454 71.8498254,36.8538358 71.8190649,36.5860748 C71.7877741,36.316772 71.7723939,35.8902046 71.7723939,35.3017471 L71.7723939,33.8272629 L72.151596,33.8272629 C72.4793538,33.8272629 72.7493033,33.859127 72.9619746,33.9233691 C73.1751763,33.9876111 73.3475409,34.0883427 73.4806594,34.2265917 C73.6174903,34.3674103 73.7246215,34.5390652 73.8025833,34.7420701 C73.8805452,34.9435333 73.9388839,35.2087246 73.9786604,35.5402137 L74.1319323,35.5402137 L74.1579195,32.0886153 L74.005178,32.0814201 C73.9654016,32.4123953 73.9155484,32.6631964 73.856149,32.8322816 C73.7962191,33.0023946 73.7044681,33.1483526 73.5803656,33.2732392 C73.45149,33.4063488 73.2849593,33.4988574 73.0818343,33.5502511 C72.8781789,33.6021587 72.5742869,33.6268276 72.1717494,33.6268276 L71.7723939,33.6268276 L71.7723939,29.7635659 L73.2939753,29.7635659 C73.7638676,29.7635659 74.1404179,29.7938882 74.4241565,29.8571024 C74.7078951,29.9192887 74.9534483,30.0251597 75.1613465,30.1752292 C75.4137943,30.3561348 75.607373,30.5647931 75.7394307,30.8001761 C75.8725492,31.036587 75.9674823,31.3346702 76.0252907,31.6959677 L76.1780323,31.6887726 L76.0655975,29.5641585 L68.9217491,29.5641585 L68.9217491,29.7116583 C69.1789701,29.7250207 69.3858076,29.7604823 69.5427919,29.8149596 C69.7003066,29.8704647 69.8387286,29.9619454 69.958058,30.0858042 C70.0959496,30.2235392 70.1903524,30.3977637 70.2407358,30.6105335 C70.2916497,30.8217614 70.3171066,31.1486251 70.3171066,31.5854713 L70.3171066,36.3321901 C70.3171066,36.7690362 70.2916497,37.0943581 70.2407358,37.3071279 C70.1903524,37.5204116 70.0959496,37.695664 69.958058,37.8318572 C69.8344858,37.9572578 69.6934121,38.0471967 69.5364277,38.1016739 C69.378913,38.1592349 69.1747273,38.1921268 68.9217491,38.2060031 L68.9217491,38.3535029 L76.8494586,38.3535029 L76.935906,35.7905009 L76.7831645,35.7848476 C76.6988384,36.1703001 76.6070875,36.4822596 76.5073812,36.7181565" id="Fill-59"></path>
                <path d="M142.499211,36.2236126 C142.385416,36.852306 142.199971,37.3529125 141.945512,37.7211625 C141.724769,38.0440484 141.414466,38.2922169 141.014601,38.4683364 C140.614209,38.6439223 140.162188,38.7319821 139.661171,38.7319821 C138.658085,38.7319821 137.853613,38.3797429 137.24565,37.674731 C136.915327,37.2974082 136.664555,36.826155 136.493862,36.2636398 C136.322115,35.7027256 136.234661,35.0718974 136.234661,34.3716887 C136.234661,33.5476627 136.360574,32.8111627 136.611345,32.165391 C136.787834,31.7069464 137.013844,31.2976019 137.290958,30.937891 C137.569651,30.5792476 137.868892,30.3043943 138.188678,30.1122639 C138.555353,29.8934487 138.985247,29.7845748 139.483629,29.7845748 C139.812899,29.7845748 140.110032,29.8379443 140.374501,29.9452172 C140.637917,30.05249 140.89343,30.2238063 141.140514,30.4602335 C141.465042,30.771378 141.713706,31.115078 141.886507,31.4897323 C141.982917,31.698941 142.108829,32.0170236 142.262137,32.4450475 C142.289006,32.5133605 142.325357,32.6104932 142.374879,32.7401812 L142.52608,32.7401812 L142.446528,29.7520193 L142.289006,29.7520193 C142.244225,29.8539552 142.207347,29.9281389 142.176264,29.9719019 C142.106195,30.0652987 142.016107,30.1122639 141.906526,30.1122639 C141.826448,30.1122639 141.734252,30.0919835 141.628359,30.05249 L141.087304,29.8715672 C140.493565,29.666628 139.930909,29.5641585 139.397756,29.5641585 C138.838788,29.5641585 138.280874,29.6586226 137.72454,29.8480846 C137.166625,30.0364791 136.689316,30.2931867 136.287871,30.6139378 C135.769469,31.0328889 135.364336,31.5857975 135.075105,32.2753323 C134.783768,32.9648671 134.637836,33.7157768 134.637836,34.5328648 C134.637836,35.5981213 134.8865,36.5150104 135.384355,37.2845995 C135.881684,38.0525875 136.572887,38.5841484 137.456383,38.879282 C138.011663,39.0612723 138.591177,39.1525342 139.19914,39.1525342 C139.850304,39.1525342 140.423496,39.0479299 140.918191,38.8381875 C141.413412,38.6300462 141.802214,38.3269071 142.084068,37.9293038 C142.379621,37.5146223 142.568226,36.955843 142.651992,36.2502974 L142.499211,36.2236126 Z" id="Fill-61"></path>
                <path d="M60.1013809,32.1471167 C59.7464987,32.239939 59.1582254,32.2863502 58.3365612,32.2863502 L57.9587662,32.2863502 L57.9587662,25.8778762 L58.3664012,25.8778762 C59.0756327,25.8778762 59.622876,25.922687 60.0070653,26.011775 C60.3907218,26.1008631 60.7226912,26.2587678 61.0008421,26.4849555 C61.3589214,26.7831605 61.6386709,27.1629851 61.8406234,27.6238959 C62.0431088,28.0853402 62.1438186,28.5777253 62.1438186,29.1010511 C62.1438186,30.0842208 61.7958635,30.9062851 61.0999533,31.5709782 C60.7887653,31.8617148 60.4557302,32.0542944 60.1013809,32.1471167 Z M66.5175021,38.9247461 C66.2457454,38.8970061 66.0320701,38.8452603 65.8764761,38.7641742 C65.7208821,38.6841549 65.5599595,38.5433211 65.3942413,38.3374049 C65.1890916,38.0845441 64.9354521,37.6780464 64.6338555,37.1179117 C64.3322589,36.5567102 63.8867911,35.6695635 63.2969194,34.4559384 C63.0454112,33.9256776 62.8562473,33.5554553 62.7304932,33.3458049 C62.6047392,33.1361545 62.4656637,32.9633129 62.3132669,32.8246129 C62.1209058,32.6448364 61.8262363,32.4725283 61.4281927,32.3060883 C61.9120262,32.1999294 62.2983469,32.087369 62.5866221,31.9673402 C62.8743644,31.8489117 63.1381282,31.6968751 63.3763149,31.5096301 C64.1585478,30.8860135 64.5491314,30.0570142 64.5491314,29.0220988 C64.5491314,28.3253979 64.369026,27.7135175 64.0077495,27.185924 C63.646473,26.6583305 63.1381282,26.262502 62.4816494,25.9963047 C61.8987047,25.7647823 61.0930262,25.6255489 60.0662124,25.5786042 C59.8147042,25.5727362 59.2877095,25.5690019 58.4857609,25.5690019 L53.6948511,25.5690019 L53.6948511,25.7973235 C54.0726461,25.817595 54.380637,25.8704077 54.6188237,25.9568285 C54.8575432,26.0432493 55.0664229,26.1824828 55.2454625,26.3750624 C55.4575393,26.5873801 55.5998119,26.8562447 55.6728132,27.1811228 C55.7458145,27.5060009 55.7820487,28.0101221 55.7820487,28.6934864 L55.7820487,36.0285832 C55.7820487,36.7108805 55.7458145,37.2160687 55.6728132,37.5409468 C55.5998119,37.8663583 55.4575393,38.134156 55.2454625,38.3470072 C55.0664229,38.5321184 54.8596747,38.6702849 54.6241522,38.759373 C54.3886298,38.8500615 54.0790404,38.905008 53.6948511,38.9247461 L53.6948511,39.1525342 L60.0464967,39.1525342 L60.0464967,38.9247461 C59.6623074,38.905008 59.3521851,38.8500615 59.1171955,38.759373 C58.8816731,38.6702849 58.674392,38.5321184 58.4958852,38.3470072 C58.2907356,38.134156 58.1495287,37.8652914 58.0738631,37.5356122 C57.9971318,37.2080667 57.9587662,36.7055459 57.9587662,36.0285832 L57.9587662,32.5056029 L58.4463296,32.5056029 C58.744729,32.5056029 58.9962372,32.5338764 59.2019196,32.5904233 C59.4070693,32.6459033 59.5988975,32.7408594 59.77847,32.8731579 C60.1296222,33.1388218 60.5175415,33.6333407 60.9411622,34.357248 C61.3653157,35.0854231 61.7862721,35.9250916 62.2034985,36.8741198 L62.8994086,38.4563668 C62.9452343,38.5555907 63.0518055,38.7876465 63.2180566,39.1525342 L66.5175021,39.1525342 L66.5175021,38.9247461 Z" id="Fill-63"></path>
                <path d="M160.440792,38.9251799 C159.735911,38.9251799 159.151152,38.5526603 158.686002,37.8054864 C158.438092,37.4004115 158.225453,36.8464354 158.045015,36.1440919 L157.898314,36.1376876 L157.87889,38.8990288 L158.025592,38.8990288 C158.103287,38.6839494 158.243343,38.5788114 158.449849,38.5788114 C158.513232,38.5788114 158.570481,38.5862831 158.621085,38.6044288 C158.672201,38.6225744 158.830658,38.6914212 159.094925,38.810969 C159.604034,39.0393907 160.133077,39.1525342 160.684612,39.1525342 C161.286751,39.1525342 161.809661,39.0111049 162.253853,38.7293136 C162.697535,38.4475223 163.029784,38.0461832 163.252136,37.5252962 C163.410083,37.1517093 163.4888,36.7589093 163.4888,36.3506321 C163.4888,35.7352811 163.314497,35.1946474 162.964868,34.7313996 C162.657154,34.3167181 162.156734,33.9372605 161.462077,33.5935605 L160.560402,33.1383181 C159.643392,32.6830758 159.184377,32.0826682 159.184377,31.3376291 C159.184377,31.1497682 159.218113,30.9629747 159.284051,30.7751139 C159.349479,30.587253 159.440976,30.4250095 159.556496,30.2867824 C159.83303,29.9473519 160.20975,29.7776367 160.687679,29.7776367 C161.01584,29.7776367 161.304641,29.861427 161.557662,30.0290074 C161.808128,30.1955204 162.03968,30.4527617 162.24772,30.801265 C162.362729,30.9928617 162.461382,31.201003 162.5447,31.4267562 C162.628018,31.6514421 162.727182,31.975929 162.842191,32.398616 L162.990426,32.398616 L162.944422,29.7445476 L162.797721,29.7445476 C162.746094,29.9719019 162.646419,30.0861128 162.49614,30.0861128 C162.436335,30.0861128 162.367841,30.0727704 162.290656,30.0487541 C162.215006,30.0236704 162.069838,29.9670987 161.855665,29.8774378 C161.56993,29.752553 161.340933,29.6698302 161.170719,29.6271346 C161.000505,29.5849726 160.813934,29.5641585 160.613562,29.5641585 C159.994555,29.5641585 159.458355,29.78244 159.006495,30.219003 C158.749896,30.4650367 158.550546,30.7585693 158.407423,31.1017356 C158.263278,31.4454356 158.192228,31.802478 158.192228,32.1717953 C158.192228,32.773804 158.376754,33.2834833 158.74274,33.7029681 C158.875129,33.8550714 159.049432,34.0039724 159.264628,34.1507387 C159.480846,34.297505 159.791627,34.4784279 160.197483,34.6935072 C160.658543,34.9379398 161.001527,35.1418115 161.224901,35.3008528 C161.449298,35.4614952 161.622579,35.6290756 161.747811,35.8025267 C161.867421,35.9727756 161.961985,36.1739789 162.031502,36.4114734 C162.102041,36.6479006 162.138333,36.8795245 162.138333,37.1068789 C162.138333,37.6331027 161.977319,38.0669973 161.657337,38.4106973 C161.337355,38.7543973 160.931499,38.9251799 160.440792,38.9251799" id="Fill-65"></path>
                <path d="M32.6625399,39.4190504 C31.9681554,42.9127058 32.1996169,45.7144292 31.5816833,49.0987772 C31.0491636,45.8776059 30.9363327,42.9890642 30.9632223,39.7255297 C30.977458,37.9938691 31.0707808,35.5640003 31.1577765,34.6414243 C32.0082262,34.4013662 32.9546349,34.1780442 33.9121157,33.9761653 C33.6680003,34.9112934 33.0047234,37.6973268 32.6625399,39.4190504 M22.5815742,32.9568338 C22.3089874,27.802123 22.9379933,18.2667449 24.1395896,11.5770223 C25.2468086,5.41553204 28.0153835,0.657257006 28.0153835,0.657257006 L24.6035671,0.198060976 C24.6035671,0.198060976 23.1035489,3.12791993 21.6541464,7.11999658 C21.1748788,6.3323551 20.1525465,5.37421486 19.2288095,4.22779379 C18.0804652,2.80313549 17.9591983,2.17814773 16.3758751,0.504017328 L11.7281913,0.292724394 C11.7281913,0.292724394 15.9857122,5.57975477 18.2428573,9.26482906 C18.8692269,10.2878216 19.3332044,10.830698 19.790855,11.9216808 C19.4655435,13.6601405 19.2008654,15.3274719 18.9936572,16.3855055 C18.1790604,20.55488 17.5743079,23.5778333 17.1161301,26.7911595 C15.3461614,26.0913825 13.559848,25.7205738 11.2647411,25.1149371 C7.30775113,24.0699785 5.05166052,23.5605743 1.02876466,22.8027439 L0.874281246,26.0333292 C1.65566154,26.1813389 3.97765805,26.1870919 6.46204668,26.9538133 C7.91144913,27.3999342 8.7060106,27.7602828 10.0288737,28.4992851 C8.24150585,34.5127657 7.41372781,38.7830796 6.46204668,44.1825554 C5.62583268,48.9256634 5.26361388,54.4349698 5.26361388,54.4349698 L9.71937965,56.3271921 C9.71937965,56.3271921 10.080544,48.8995133 10.6468074,44.1825554 C11.0733504,40.6245707 11.0079717,38.5351765 12.0366309,35.1021893 C12.6819815,32.9495118 13.2134466,31.9108292 14.1651277,29.7466456 C14.1651277,29.7466456 16.064272,30.6472556 16.8525065,31.1048826 C16.6089183,35.7365911 16.1370321,40.4477959 15.9118976,46.799659 C15.7769223,50.634312 16.0658538,56.8800056 16.0658538,56.8800056 C16.0658538,56.8800056 18.5860952,57.4631532 20.394553,57.5259134 C21.6799815,57.5703686 24.9120067,57.2602283 24.9120067,57.2602283 C24.9120067,57.2602283 22.9569742,47.2232909 22.7365849,37.7192929 C23.4009163,37.3997385 24.3035634,36.8704601 25.3754569,36.4938984 C26.2617594,36.1821891 26.7795161,36.2522714 27.7058894,35.8809397 C27.6663458,37.062402 27.9094068,42.7636502 27.9399871,46.1401531 C27.9742582,49.9068157 29.405207,57.1551048 29.405207,57.1551048 L34.9934997,55.2555604 C34.9934997,55.2555604 34.8374345,52.443377 34.838489,50.644249 C34.8411252,47.0946323 34.8458704,45.0617223 35.4569499,41.5638829 C36.03534,38.2538012 37.3270956,34.4442524 37.7742012,33.2627902 C39.3121812,33.0164561 40.5680839,32.6487854 40.5680839,32.6487854 L40.6418985,29.5358757 C36.9949299,29.7727957 35.0209165,29.9867037 31.5052324,30.7262289 C27.8719722,31.4913813 25.5752836,31.7675265 22.5815742,32.9568338" id="Fill-69"></path>
                <path d="M8.5877678,29.1928414 C8.5877678,29.1928414 6.42691539,27.6958925 4.09752998,28.0670789 C1.76970026,28.4377568 -0.000155568928,31.8511459 -0.000155568928,31.8511459 C-0.000155568928,31.8511459 2.04557583,33.8428404 4.6269829,33.1319931 C8.36530423,32.1028408 8.5877678,29.1928414 8.5877678,29.1928414" id="Fill-72"></path>
                <path d="M17.0247188,9.14285545 C16.020782,6.75335384 14.8936731,5.44081803 12.6045846,3.99515655 C10.9926614,6.43510031 10.7991856,8.65403466 11.9656646,11.3014672 C13.0640896,13.7923732 17.446541,15.9806262 17.446541,15.9806262 C17.446541,15.9806262 18.0702754,11.6322013 17.0247188,9.14285545" id="Fill-75"></path>
                <path d="M8.55681318,15.232786 C7.82157709,17.8352303 7.53288881,19.4546744 9.6812919,22.0783699 C11.8302356,24.7026103 16.0010785,25.5690019 16.0010785,25.5690019 C16.0010785,25.5690019 16.3805901,19.6344915 14.3062512,17.3922263 C12.2313718,15.1494162 10.9447086,15.0758546 8.55681318,15.232786" id="Fill-77"></path>
                <path d="M6.4113255,16.7796575 C6.4113255,16.7796575 6.12058013,13.6580837 4.95511365,12.2868703 C3.9765194,11.1350511 3.1112413,10.6339592 1.67590347,10.387407 C1.43933117,12.1377675 1.76635759,13.3896986 2.81552592,14.7550544 C3.82244921,16.0666266 6.4113255,16.7796575 6.4113255,16.7796575" id="Fill-79"></path>
                <path d="M10.4184039,13.5835323 C10.4184039,13.5835323 9.96981752,9.89136569 8.53659159,7.94692125 C7.10336566,6.00247682 5.79392299,5.29117047 3.55559441,4.79418786 C2.95816119,7.05287026 3.0108458,8.56400798 4.6271891,10.6901617 C6.69314182,13.4090707 10.4184039,13.5835323 10.4184039,13.5835323" id="Fill-81"></path>
                <path d="M8.81557256,22.370333 C8.81557256,22.370333 7.60421762,18.6640987 5.76705856,17.3455612 C4.12526203,16.1675419 2.78670676,15.8181906 0.801415688,16.0464631 C0.809466341,18.0387098 1.35315379,19.3600243 2.736256,20.745766 C4.49559207,22.5086295 8.81557256,22.370333 8.81557256,22.370333" id="Fill-83"></path>
                <path d="M9.78890808,7.19128179 C9.78890808,7.19128179 10.6670011,5.30759719 10.3490171,4.13771388 C9.99154494,2.82324396 9.22308362,2.02573462 7.90022865,1.59806262 C7.13072817,2.72025771 7.01278312,3.7836035 7.51833611,5.0407461 C7.96881343,6.16192654 9.78890808,7.19128179 9.78890808,7.19128179" id="Fill-85"></path>
                <path d="M32.3967125,6.59093763 C33.8211994,5.75933141 34.4608746,2.40667133 34.4608746,2.40667133 C34.4608746,2.40667133 31.1700412,2.23292503 29.6616978,3.3654935 C28.1533544,4.49756697 27.2481334,7.9903131 27.2481334,7.9903131 C27.2481334,7.9903131 30.9733008,7.42254386 32.3967125,6.59093763" id="Fill-87"></path>
                <path d="M33.1325349,15.8878834 C34.9916129,13.3679082 35.5524027,11.1509818 35.1283022,7.99992665 C31.8836211,7.87555719 29.5983637,8.95197762 27.5386695,11.5745983 C25.4950869,14.1765813 25.6478879,19.9757828 25.6478879,19.9757828 C25.6478879,19.9757828 31.1227349,18.6147789 33.1325349,15.8878834" id="Fill-89"></path>
                <path d="M37.3137306,6.23493525 C38.3620756,5.82775204 39.1468762,4.61104408 39.2693687,4.25179327 C38.8753776,4.1404352 37.5799265,3.81023431 36.5989258,4.13317271 C35.4636163,4.50840099 34.4974632,6.17828788 34.4608746,6.17731955 C34.4985238,6.14536463 36.289778,6.63340347 37.3137306,6.23493525" id="Fill-91"></path>
                <path d="M24.1613653,29.5626648 C24.8187332,29.6197728 30.0792891,28.0360465 32.3986208,25.3682885 C34.6169016,22.8147465 34.4572628,21.8275945 34.4588753,19.366343 C31.0645348,18.7468235 28.3469123,19.6406652 26.0845562,22.1202728 C24.0221516,24.3790969 23.8555253,27.9192811 24.1613653,29.5626648" id="Fill-93"></path>
                <path d="M41.6674289,20.9320348 C39.2045809,20.6537575 38.1171751,20.4609436 35.6757242,22.9534536 C34.1751919,24.4844998 33.6567265,28.0359227 33.6594697,27.9650505 C33.7340848,27.967135 37.5323242,27.7268994 39.2418885,26.2891333 C41.0353948,24.7820585 41.7486277,23.2046327 41.6674289,20.9320348" id="Fill-95"></path>
                <path d="M35.7143765,15.4012655 C34.6958009,17.2095968 35.7122882,20.7459614 35.7436129,20.7747167 C35.7498779,20.787738 38.6072148,19.493205 39.6592034,17.8823633 C40.7487818,16.2134683 41.0531537,14.8397225 40.7754078,12.8442102 C38.6014719,12.5349547 36.8227497,13.4328809 35.7143765,15.4012655" id="Fill-97"></path>
                <polygon id="Fill-99" points="53.6948511 52.7360665 62.5104236 52.7360665 62.5104236 51.9370352 53.6948511 51.9370352"></polygon>
                <polygon id="Fill-101" points="53.6948511 21.5738454 164.290216 21.5738454 164.290216 20.7748141 53.6948511 20.7748141"></polygon>
                <polygon id="Fill-102" points="155.474643 52.7360665 164.290216 52.7360665 164.290216 51.9370352 155.474643 51.9370352"></polygon>
            </g>
        </g>
    </g>
</svg>