<?xml version="1.0" encoding="UTF-8"?>
<svg width="112px" height="123px" viewBox="0 0 112 123" version="1.1" xmlns="http://www.w3.org/2000/svg" xmlns:xlink="http://www.w3.org/1999/xlink">
    <!-- Generator: sketchtool 52.5 (67469) - http://www.bohemiancoding.com/sketch -->
    <title>6744CBB8-4DC5-42E7-9EC8-B727FCDBEB61</title>
    <desc>Created with sketchtool.</desc>
    <g id="Page-1" stroke="none" stroke-width="1" fill="none" fill-rule="evenodd">
        <g id="Home_updated" transform="translate(-664.000000, -880.000000)" fill="#8C886D">
            <g id="ic_logo_color" transform="translate(664.000000, 880.000000)">
                <g id="Group-37" transform="translate(0.000000, 68.000000)">
                    <path d="M27.799682,14.0335898 C27.5473567,14.0207421 27.3416797,13.9863104 27.1853016,13.9302946 C27.0278633,13.8747927 26.8863279,13.7843451 26.7622856,13.6599797 C26.6260511,13.5227666 26.5322243,13.3490662 26.480805,13.1383645 C26.4299159,12.9286906 26.4044713,12.601846 26.4044713,12.1593725 L26.4044713,6.55727672 L32.6606556,14.1815949 L32.9606895,14.1815949 L32.9606895,7.40727822 C32.9606895,6.97405497 32.9850739,6.65080772 33.035963,6.4385643 C33.0868522,6.22683479 33.180679,6.05159264 33.3179737,5.91437958 C33.5665884,5.66513488 33.9122105,5.54025558 34.35431,5.54025558 L34.35431,5.39225048 L31.2930098,5.39225048 L31.2930098,5.54025558 C31.544275,5.55310325 31.7499519,5.58753499 31.9073902,5.64355081 C32.0642984,5.69853881 32.2047737,5.78950028 32.3282859,5.91437958 C32.4666407,6.05159264 32.5599375,6.22529307 32.6113567,6.43548086 C32.6617158,6.64618256 32.6876905,6.97199934 32.6876905,7.41447292 L32.6876905,12.0632719 L27.2945013,5.39225048 L24.7373217,5.39225048 L24.7373217,5.54025558 C24.9944179,5.55310325 25.200625,5.58753499 25.3591234,5.64355081 C25.5160316,5.69853881 25.6538564,5.78950028 25.7736579,5.91437958 C25.9109526,6.05159264 26.0042494,6.22683479 26.0551385,6.4385643 C26.1060277,6.65080772 26.1320023,6.97405497 26.1320023,7.40727822 L26.1320023,12.1593725 C26.1320023,12.5972209 26.1060277,12.9230377 26.0551385,13.1352811 C26.0042494,13.3470106 25.9109526,13.5227666 25.7736579,13.6599797 C25.6496157,13.7843451 25.5091404,13.8747927 25.3517021,13.9302946 C25.1947939,13.9863104 24.989647,14.0207421 24.7373217,14.0335898 L24.7373217,14.1815949 L27.799682,14.1815949 L27.799682,14.0335898 Z" id="Fill-1"></path>
                    <path d="M35.9721701,5.72682324 C36.1948862,5.84708441 36.4214047,6.07013291 36.6522689,6.39648268 L36.9657011,6.84720511 L38.7284172,9.35213229 C38.9962197,9.73450115 39.1738494,10.052114 39.2596765,10.3049708 C39.3362691,10.5244218 39.3759234,10.7243431 39.3759234,10.903707 L39.3683185,12.1592542 C39.3683185,12.6022676 39.3427876,12.9286174 39.2938987,13.1383035 C39.2439234,13.3490175 39.1483185,13.5227281 39.0081703,13.6599492 C38.8810592,13.7848358 38.7360222,13.8747747 38.5719728,13.9307938 C38.4079234,13.9868129 38.1971579,14.0212467 37.93859,14.0335811 L37.93859,14.1815949 L42.2880718,14.1815949 L42.2880718,14.0335811 C41.8258001,14.0335811 41.4689112,13.9092085 41.2201211,13.6599492 C41.0745408,13.5186166 40.9778495,13.3474757 40.9311334,13.1480683 C40.8822445,12.9486609 40.8594297,12.6187136 40.8594297,12.1592542 L40.8594297,10.5819827 C40.8594297,10.2859552 40.878442,10.0757551 40.919726,9.95086848 C40.96101,9.82649581 41.0745408,9.63171383 41.2608618,9.36446677 L42.8122693,7.12421696 C43.1881706,6.57944412 43.530936,6.16932268 43.8411089,5.89436658 C43.9714793,5.78335627 44.1013064,5.70215428 44.2278744,5.65281636 C44.3549855,5.60347844 44.5364176,5.56544713 44.7727139,5.5397503 L44.7727139,5.39225048 L41.641652,5.39225048 L41.641652,5.5397503 C41.9773557,5.5397503 42.2386397,5.61581292 42.4238742,5.76536848 C42.6107385,5.91595192 42.7030841,6.12820775 42.7030841,6.40316385 C42.7030841,6.6436862 42.619973,6.88832004 42.451578,7.13706538 L42.2750347,7.40122881 L40.6959235,9.73244541 L38.8517259,7.00241398 C38.7235283,6.81277136 38.6317259,6.65653462 38.5763184,6.53164801 C38.5192814,6.40727535 38.4899481,6.2957511 38.4899481,6.19656132 C38.4899481,5.92674459 38.6176024,5.73967165 38.8712814,5.63637039 C38.9755777,5.59371365 39.2156765,5.56184957 39.5926642,5.5397503 L39.5926642,5.39225048 L35.1557256,5.39225048 L35.1557256,5.5397503 C35.3599726,5.54848722 35.5185899,5.56544713 35.6321207,5.59114396 C35.7445652,5.6168408 35.8580961,5.66258116 35.9721701,5.72682324" id="Fill-3"></path>
                    <path d="M6.09525269,13.2059703 C5.93921381,12.9936693 5.8284262,12.7349607 5.76028922,12.4303781 C5.69215225,12.125262 5.65834382,11.723597 5.65834382,11.2259164 L5.65834382,7.12605273 L7.39453643,7.12605273 C8.63764617,7.12605273 9.54943336,7.37142578 10.1314584,7.86217189 C10.4476972,8.12781489 10.7004802,8.50814313 10.8887671,9.00208976 C11.0760137,9.49656981 11.1701572,10.0315897 11.1701572,10.6092833 C11.1701572,11.6179799 10.8669216,12.4133086 10.2614908,12.9974032 C9.65710019,13.5809643 8.83425516,13.8727449 7.7929557,13.8727449 C6.99039573,13.8727449 6.42501485,13.6508423 6.09525269,13.2059703 Z M5.65834382,0.906912618 L6.56076868,0.906912618 C7.25306118,0.906912618 7.76902974,0.946919095 8.10867437,1.02639863 C8.448319,1.10587816 8.74999416,1.25523567 9.01578039,1.47447116 C9.31953608,1.72624525 9.56399699,2.07990251 9.748643,2.53384266 C9.93276887,2.98831623 10.0248318,3.46786053 10.0248318,3.97140871 C10.0248318,4.44935275 9.93588965,4.88569005 9.75800533,5.2798872 C9.58012101,5.67515118 9.32629776,5.99840351 8.99601546,6.2501776 C8.82177205,6.37713149 8.6293241,6.47581413 8.41867161,6.54889263 C8.20853925,6.62197112 7.93235043,6.68544807 7.5890649,6.73825661 C7.19480666,6.79106516 6.81199127,6.81826957 6.44373952,6.81826957 L5.65834382,6.81826957 L5.65834382,0.906912618 Z M10.8154288,14.021569 C11.3428402,13.9159519 11.7969134,13.7276547 12.1781684,13.4550773 C12.5989532,13.1499612 12.927155,12.7466959 13.1632938,12.2452814 C13.3989125,11.7454672 13.5175021,11.192311 13.5175021,10.5890133 C13.5175021,9.99211669 13.4020333,9.4368268 13.1736964,8.92314364 C12.943279,8.40839365 12.6213188,7.97845738 12.2078157,7.63333485 C11.9290263,7.40823174 11.619029,7.23220324 11.2757435,7.10684962 C10.9334982,6.98042915 10.4513381,6.86414366 9.83082347,6.75745972 C10.2838564,6.59209962 10.6292224,6.44114185 10.868482,6.30511983 C11.1082618,6.16963123 11.3215149,5.99840351 11.5082414,5.79303693 C12.0335723,5.23561336 12.2951975,4.52243124 12.2951975,3.65349058 C12.2951975,3.11633695 12.1802489,2.63199188 11.9513919,2.20098877 C11.7199342,1.76945225 11.3969337,1.42166261 10.9756287,1.15548619 C10.4908679,0.857304588 9.8786754,0.678075574 9.14165175,0.618332569 C8.9403616,0.604997077 8.51749623,0.598062621 7.87045501,0.598062621 L1.49626676,0.598062621 L1.49626676,0.826899666 C1.86399839,0.847169614 2.16515343,0.900511582 2.39817149,0.986392151 C2.63066942,1.07280614 2.83456022,1.21202868 3.00880364,1.40405976 C3.21633535,1.61689422 3.35520995,1.88520432 3.42646771,2.21005691 C3.49824559,2.53544292 3.53413454,3.04005794 3.53413454,3.72336855 L3.53413454,11.0568224 C3.53413454,11.740133 3.49824559,12.2442146 3.42646771,12.5690672 C3.35520995,12.8949866 3.21633535,13.1632967 3.00880364,13.3750643 C2.83456022,13.5617612 2.63222981,13.6988501 2.40285266,13.7884646 C2.1734755,13.8780791 1.87023994,13.9324879 1.49626676,13.9527579 L1.49626676,14.1815949 L8.58875399,14.1815949 C9.54579245,14.1815949 10.2874973,14.1282529 10.8154288,14.021569 Z" id="Fill-5"></path>
                    <path d="M71.3205229,3.09224822 C71.6412838,2.61876706 72.0479724,2.28391548 72.5427234,2.09024181 C73.0358734,1.89656814 73.7857387,1.77526726 74.793387,1.72481017 C75.2635873,1.70034613 75.7044334,1.68760444 76.1169928,1.68760444 L76.1169928,11.2413228 C76.1169928,11.8840136 76.0790993,12.3585141 76.0043796,12.6643146 C75.9280588,12.9701151 75.7898274,13.2234199 75.5864831,13.4232096 C75.4039536,13.6041416 75.1963396,13.7356358 74.9647086,13.8161633 C74.7320101,13.8972004 74.4267269,13.9471478 74.0477913,13.9660055 L74.0477913,14.1815949 L80.3151716,14.1815949 L80.3151716,13.9660055 C79.9415732,13.9471478 79.6389584,13.8972004 79.4067937,13.8161633 C79.1751627,13.7356358 78.9680824,13.6041416 78.7850192,13.4232096 C78.5811412,13.2234199 78.4429098,12.9690958 78.3676564,12.6597276 C78.2929367,12.350869 78.2545095,11.8773879 78.2545095,11.2413228 L78.2545095,1.68760444 C79.7062062,1.68760444 80.7368041,1.77169958 81.3441683,1.94039955 C82.0641459,2.13458288 82.6117344,2.45414444 82.9874676,2.90061322 C83.3637346,3.347082 83.6385963,4.00506281 83.8157887,4.87149766 L84.0420826,4.85314963 L83.8643565,1.39709393 L70.5952083,1.39709393 L70.4180159,4.85314963 L70.6437761,4.87149766 C70.8006874,4.12228635 71.0264476,3.52954298 71.3205229,3.09224822" id="Fill-7"></path>
                    <path d="M87.7756593,5.59164624 L88.0554581,5.59164624 C88.5430608,5.59164624 88.9183076,5.62093892 89.1822893,5.67901036 C89.4473619,5.73708181 89.6742553,5.83934922 89.8662421,5.98478478 C90.1127705,6.17749975 90.3047572,6.42366101 90.4432931,6.72224074 C90.5834652,7.02030656 90.6521877,7.33892865 90.6521877,7.6786209 C90.6521877,8.31329554 90.4132952,8.84570277 89.9344192,9.27532868 C89.7206158,9.4639324 89.4926315,9.58829779 89.2477394,9.64842486 C89.003938,9.70803803 88.6003296,9.73887242 88.0352777,9.73887242 L87.7756593,9.73887242 L87.7756593,5.59164624 Z M89.2101056,14.0335898 C88.9466693,14.0207421 88.7323204,13.9852826 88.570877,13.9272111 C88.4099791,13.8686258 88.2676253,13.7807478 88.1449065,13.6599797 C88.0025527,13.5227666 87.9065593,13.3470106 87.8541993,13.1352811 C87.8007484,12.9230377 87.7756593,12.5972209 87.7756593,12.1593725 L87.7756593,9.88019674 L88.1105452,9.88019674 C88.3145311,9.88019674 88.4874283,9.89818347 88.6292366,9.93467084 C88.771045,9.9711582 88.9030359,10.0323131 89.0257547,10.1186494 C89.2673744,10.2902942 89.5329924,10.6099441 89.8247904,11.078113 C90.1165884,11.5503932 90.4056593,12.0930785 90.6936394,12.706683 L91.1708792,13.7308988 C91.2041496,13.7951371 91.27669,13.9462257 91.3901367,14.1815949 L93.6590708,14.1815949 L93.6590708,14.0335898 C93.4714474,14.016117 93.3247303,13.9821991 93.218374,13.9302946 C93.1109269,13.8789039 93.0007527,13.7864007 92.8867606,13.6532989 C92.7454976,13.4903905 92.5720551,13.2277843 92.3637058,12.8649662 C92.1564474,12.5021482 91.8504686,11.9281145 91.4457693,11.1423513 C91.2712359,10.7990617 91.1414267,10.5595812 91.0557962,10.4244238 C90.9679841,10.2892664 90.873627,10.1767208 90.7678161,10.0862733 C90.6363707,9.9706443 90.434021,9.85912657 90.1602217,9.75120618 C90.492926,9.68337051 90.758544,9.60988187 90.9559849,9.53228198 C91.1539712,9.45570989 91.3355951,9.35652592 91.4997655,9.23627178 C92.0375465,8.83336901 92.3053462,8.29633663 92.3053462,7.62671634 C92.3053462,7.17602026 92.182082,6.77979828 91.9328265,6.4385643 C91.6846618,6.09733033 91.3355951,5.84089094 90.8845353,5.66924614 C90.4836539,5.51918541 89.9306013,5.42873785 89.2231956,5.39944518 C89.0508439,5.39482002 88.6892325,5.39225048 88.1372706,5.39225048 L84.8434983,5.39225048 L84.8434983,5.54025558 C85.1036621,5.55310325 85.3158293,5.58753499 85.4794543,5.64355081 C85.6430794,5.69853881 85.786524,5.78950028 85.9092428,5.91437958 C86.0548691,6.05159264 86.1535896,6.22529307 86.2032225,6.43548086 C86.2528554,6.64618256 86.2790354,6.97199934 86.2790354,7.41447292 L86.2790354,12.1593725 C86.2790354,12.601846 86.2528554,12.9286906 86.2032225,13.1383645 C86.1535896,13.3485523 86.0548691,13.5227666 85.9092428,13.6599797 C85.786524,13.7807478 85.6447156,13.8686258 85.481636,13.9272111 C85.3201926,13.9852826 85.1069346,14.0207421 84.8434983,14.0335898 L84.8434983,14.1815949 L89.2101056,14.1815949 L89.2101056,14.0335898 Z" id="Fill-9"></path>
                    <path d="M101.673228,11.6191068 L101.520986,11.6129396 C101.437174,11.998906 101.344874,12.3098377 101.244618,12.5462485 C101.145422,12.7821454 101.01493,12.9923455 100.856853,13.1773627 C100.629817,13.4518049 100.338596,13.6548098 99.9789454,13.7858637 C99.6198255,13.9169175 99.1747713,13.9827014 98.6421917,13.9827014 C98.1377263,13.9827014 97.7313956,13.9102364 97.4231996,13.7663341 C97.1150036,13.6224318 96.8858458,13.3962997 96.7357263,13.0869099 C96.6466093,12.907032 96.5871981,12.6824417 96.5564315,12.4141668 C96.5251345,12.1458919 96.5097512,11.7177826 96.5097512,11.1298391 L96.5097512,9.65484097 L96.8879676,9.65484097 C97.2168515,9.65484097 97.4868545,9.68721898 97.6985072,9.75146106 C97.9122817,9.81570314 98.085211,9.91694866 98.217295,10.0541697 C98.3546835,10.1960163 98.4634274,10.3676711 98.5392829,10.5691343 C98.6183211,10.7716253 98.676141,11.0373305 98.7159253,11.3677918 L98.8697581,11.3677918 L98.8957505,7.91670726 L98.7429787,7.90951215 C98.7031943,8.2399734 98.6533313,8.49077449 98.5928591,8.66037358 C98.5334478,8.82997267 98.4416786,8.97695855 98.3175515,9.10081728 C98.1886502,9.2344408 98.0220865,9.32643546 97.8194516,9.37782913 C97.6146949,9.42922279 97.311273,9.45543356 96.9086555,9.45543356 L96.5097512,9.45543356 L96.5097512,5.5916579 L98.0321652,5.5916579 C98.5010899,5.5916579 98.877715,5.62300803 99.1620404,5.68519437 C99.4447744,5.7473807 99.6909068,5.85376559 99.8999072,6.00383508 C100.151344,6.18422685 100.344431,6.39288512 100.477576,6.6282681 C100.60966,6.86467896 100.705673,7.16276221 100.763493,7.52354573 L100.916264,7.51686455 L100.804338,5.39225048 L93.6590708,5.39225048 L93.6590708,5.54026424 C93.915282,5.55259872 94.122691,5.58703247 94.280237,5.64305156 C94.4372525,5.69855672 94.5762324,5.78900957 94.6955854,5.91441011 C94.8319131,6.05163119 94.9268651,6.22636965 94.977789,6.43862548 C95.0281825,6.65088131 95.0547054,6.97620321 95.0547054,7.41459116 L95.0547054,12.1597682 C95.0547054,12.5976422 95.0281825,12.923478 94.977789,13.1357338 C94.9268651,13.3474757 94.8319131,13.5232421 94.6955854,13.6599492 C94.5714583,13.7848358 94.4303565,13.8747747 94.2738715,13.9307938 C94.1163255,13.9868129 93.9110383,14.0212467 93.6590708,14.0340951 L93.6590708,14.1815949 L101.587294,14.1815949 L101.673228,11.6191068 Z" id="Fill-11"></path>
                    <path d="M57.4510023,14.0335898 C57.1981468,14.0207421 56.9940602,13.9863104 56.8366219,13.9302946 C56.6791836,13.8747927 56.5392384,13.7843451 56.4151961,13.6599797 C56.2773714,13.5227666 56.1835445,13.3490662 56.1331855,13.1383645 C56.0822963,12.9286906 56.0563217,12.601846 56.0563217,12.1593725 L56.0563217,6.55727672 L62.313036,14.1815949 L62.6120098,14.1815949 L62.6120098,7.40727822 C62.6120098,6.97405497 62.6369242,6.65080772 62.6872833,6.4385643 C62.7397627,6.22683479 62.8330595,6.05159264 62.9698241,5.91437958 C63.2179087,5.66513488 63.5640609,5.54025558 64.0066904,5.54025558 L64.0066904,5.39225048 L60.9448602,5.39225048 L60.9448602,5.54025558 C61.1977156,5.55310325 61.4018023,5.58753499 61.5587105,5.64355081 C61.7166789,5.69853881 61.856624,5.78950028 61.9801362,5.91437958 C62.1174309,6.05159264 62.2117878,6.22529307 62.262677,6.43548086 C62.313036,6.64618256 62.3395408,6.97199934 62.3395408,7.41447292 L62.3395408,12.0632719 L56.9468817,5.39225048 L54.3897021,5.39225048 L54.3897021,5.54025558 C54.6467984,5.55310325 54.8530054,5.58753499 55.0104437,5.64355081 C55.167882,5.69853881 55.3057068,5.78950028 55.4255083,5.91437958 C55.562803,6.05159264 55.65769,6.22683479 55.7080491,6.4385643 C55.7589382,6.65080772 55.7838527,6.97405497 55.7838527,7.40727822 L55.7838527,12.1593725 C55.7838527,12.5972209 55.7589382,12.9230377 55.7080491,13.1352811 C55.65769,13.3470106 55.562803,13.5227666 55.4255083,13.6599797 C55.3019961,13.7843451 55.1604607,13.8747927 55.0030224,13.9302946 C54.8466443,13.9863104 54.6420275,14.0207421 54.3897021,14.0335898 L54.3897021,14.1815949 L57.4510023,14.1815949 L57.4510023,14.0335898 Z" id="Fill-13"></path>
                    <path d="M110.4888,11.6191068 L110.335539,11.6129396 C110.251218,11.998906 110.158943,12.3098377 110.059773,12.5462485 C109.960604,12.7821454 109.830676,12.9923455 109.670521,13.1773627 C109.445136,13.4518049 109.1524,13.6548098 108.794436,13.7858637 C108.435411,13.9169175 107.989945,13.9827014 107.458567,13.9827014 C106.952644,13.9827014 106.546421,13.9102364 106.238306,13.7663341 C105.931252,13.6224318 105.702155,13.3962997 105.551015,13.0869099 C105.463512,12.907032 105.403587,12.6824417 105.372298,12.4141668 C105.340479,12.1458919 105.3251,11.7177826 105.3251,11.1298391 L105.3251,9.65484097 L105.704277,9.65484097 C106.032013,9.65484097 106.302475,9.68721898 106.515132,9.75146106 C106.727259,9.81570314 106.899612,9.91694866 107.033252,10.0541697 C107.170604,10.1960163 107.277728,10.3676711 107.355685,10.5691343 C107.432581,10.7716253 107.491977,11.0373305 107.53175,11.3677918 L107.683951,11.3677918 L107.710998,7.91670726 L107.557736,7.90951215 C107.517962,8.2399734 107.468112,8.49077449 107.409247,8.66037358 C107.349321,8.82997267 107.256516,8.97695855 107.132421,9.10081728 C107.003554,9.2344408 106.838625,9.32643546 106.634453,9.37782913 C106.430811,9.42922279 106.126939,9.45543356 105.724429,9.45543356 L105.3251,9.45543356 L105.3251,5.5916579 L106.847641,5.5916579 C107.316972,5.5916579 107.692437,5.62300803 107.976156,5.68519437 C108.260937,5.7473807 108.505413,5.85376559 108.713828,6.00383508 C108.966789,6.18422685 109.159825,6.39288512 109.292404,6.6282681 C109.425514,6.86467896 109.520971,7.16276221 109.577715,7.52354573 L109.731507,7.51686455 L109.618549,5.39225048 L102.474643,5.39225048 L102.474643,5.54026424 C102.731317,5.55259872 102.939732,5.58703247 103.096706,5.64305156 C103.253149,5.69855672 103.391562,5.78900957 103.510884,5.91441011 C103.648766,6.05163119 103.742632,6.22636965 103.793543,6.43862548 C103.843923,6.65088131 103.870439,6.97620321 103.870439,7.41459116 L103.870439,12.1597682 C103.870439,12.5976422 103.843923,12.923478 103.793543,13.1357338 C103.742632,13.3474757 103.648766,13.5232421 103.510884,13.6599492 C103.38732,13.7848358 103.247846,13.8747747 103.089281,13.9307938 C102.932307,13.9868129 102.727605,14.0212467 102.474643,14.0340951 L102.474643,14.1815949 L110.402359,14.1815949 L110.4888,11.6191068 Z" id="Fill-15"></path>
                    <path d="M19.2220128,7.04661253 L20.6041233,10.3820613 L17.9181747,10.3820613 L19.2220128,7.04661253 Z M18.0699915,14.0335811 C17.8020795,14.0125097 17.5824968,13.9436422 17.4117686,13.8274926 C17.2888443,13.7421791 17.1916605,13.6301409 17.1181161,13.4929198 C17.0466729,13.3551848 17.0099007,13.2066571 17.0099007,13.0483646 C17.0099007,12.7780339 17.1086604,12.4064577 17.3056544,11.9346639 L17.4706041,11.5353351 L17.8131112,10.6467387 L20.7091868,10.6467387 L21.3406185,12.1664493 L21.4525111,12.43678 C21.5749101,12.7328075 21.6368976,12.9692184 21.6368976,13.1454986 C21.6368976,13.4410122 21.5008403,13.6727976 21.2292512,13.840341 C21.0748078,13.9349053 20.8037439,13.9991474 20.4123824,14.0335811 L20.4123824,14.1815949 L24.7373217,14.1815949 L24.7373217,14.0335811 C24.4657325,14.0032589 24.261384,13.9683112 24.1258521,13.9277102 C23.9892695,13.8865953 23.8684465,13.8274926 23.7628577,13.7504021 C23.6136675,13.6388778 23.4760343,13.4733902 23.3478568,13.2544532 C23.22073,13.0360301 23.0505271,12.6706212 22.8340962,12.1597682 L19.9721663,5.39225048 L19.5970896,5.39225048 L17.1879833,11.4644119 C16.9678753,12.0184356 16.7918939,12.4331824 16.6579379,12.7107082 C16.5239819,12.9866922 16.386874,13.2138522 16.2466143,13.3901325 C16.0800886,13.6090695 15.9083098,13.7678759 15.7323284,13.8660378 C15.5568723,13.9647136 15.3535744,14.0212467 15.1203335,14.0335811 L15.1203335,14.1815949 L18.0699915,14.1815949 L18.0699915,14.0335811 Z" id="Fill-17"></path>
                    <path d="M48.8733426,7.04661253 L50.2559784,10.3820613 L47.5705551,10.3820613 L48.8733426,7.04661253 Z M47.7218466,14.0335811 C47.45446,14.0125097 47.2343519,13.9436422 47.0636237,13.8274926 C46.9406994,13.7421791 46.842465,13.6301409 46.7699712,13.4929198 C46.6974774,13.3551848 46.6622811,13.2066571 46.6622811,13.0483646 C46.6622811,12.7780339 46.7605155,12.4064577 46.9580349,11.9346639 L47.1224593,11.5353351 L47.4649663,10.6467387 L50.3605166,10.6467387 L50.9929989,12.1664493 L51.1054169,12.43678 C51.2283412,12.7328075 51.289278,12.9692184 51.289278,13.1454986 C51.289278,13.4410122 51.1526955,13.6727976 50.880581,13.840341 C50.7271882,13.9349053 50.4555991,13.9991474 50.0652881,14.0335811 L50.0652881,14.1815949 L54.3897021,14.1815949 L54.3897021,14.0335811 C54.1170623,14.0032589 53.9121885,13.9683112 53.7766566,13.9277102 C53.6411247,13.8865953 53.5197763,13.8274926 53.4152381,13.7504021 C53.2665732,13.6388778 53.1273641,13.4733902 53.0007626,13.2544532 C52.8731104,13.0360301 52.7023822,12.6706212 52.4875273,12.1597682 L49.6234961,5.39225048 L49.2489447,5.39225048 L46.8398384,11.4644119 C46.6202557,12.0184356 46.443749,12.4331824 46.309793,12.7107082 C46.1768877,12.9866922 46.0382039,13.2138522 45.8979441,13.3901325 C45.7319437,13.6090695 45.5596396,13.7678759 45.3852342,13.8660378 C45.2103034,13.9647136 45.0049043,14.0212467 44.7727139,14.0335811 L44.7727139,14.1815949 L47.7218466,14.1815949 L47.7218466,14.0335811 Z" id="Fill-19"></path>
                    <path d="M19.9288276,48.6336358 C20.1192333,48.6424656 20.2754019,48.6640497 20.3955317,48.6993691 C20.5162621,48.7356696 20.620775,48.7925731 20.711473,48.8715512 C20.8177878,48.9593591 20.8898657,49.0697322 20.9271059,49.2031611 C20.9637455,49.3370804 20.9823656,49.5450725 20.9823656,49.8271371 L20.9823656,52.8464551 C20.9823656,53.1280292 20.9637455,53.3355307 20.9271059,53.4689595 C20.8898657,53.6033694 20.8177878,53.713252 20.711473,53.8005694 C20.620775,53.8775853 20.5168628,53.9339983 20.3979343,53.9712798 C20.2790058,54.0085614 20.1228371,54.0301455 19.9288276,54.0389754 L19.9288276,54.1331604 L23.1344903,54.1331604 L23.1344903,54.0389754 C22.9068444,54.0272022 22.7254485,53.9958072 22.5878999,53.9428281 C22.4503513,53.889849 22.3386306,53.8074371 22.2515366,53.6985356 C22.1914717,53.6195575 22.1476243,53.5140899 22.1205951,53.3831138 C22.0941666,53.2526282 22.0815529,53.0735785 22.0815529,52.8464551 L22.0815529,49.8271371 C22.0815529,49.6372953 22.0905627,49.4719809 22.1115854,49.3262884 C22.1416178,49.1320317 22.2215041,48.9809432 22.3518449,48.8715512 C22.4455461,48.7925731 22.551861,48.7356696 22.6707894,48.6993691 C22.7897179,48.6640497 22.9446853,48.6424656 23.1344903,48.6336358 L23.1344903,48.5399412 L19.9288276,48.5399412 L19.9288276,48.6336358 Z" id="Fill-21"></path>
                    <path d="M29.2414194,53.0588621 C29.1718589,53.2153466 29.0828216,53.3551526 28.9748638,53.4772988 C28.8129271,53.6573296 28.6064717,53.791249 28.3543847,53.8775853 C28.1017412,53.9619594 27.790667,54.0056181 27.4222749,54.0056181 C27.0683514,54.0056181 26.7851014,53.9599973 26.5708552,53.8682649 C26.3582785,53.7770232 26.1974548,53.6328023 26.0878276,53.4360928 C26.0266144,53.3247386 25.9837652,53.1790461 25.9626188,53.0024491 C25.9409159,52.824871 25.9297863,52.5545795 25.9297863,52.1915746 L25.9297863,49.8271371 C25.9297863,49.5396764 25.9481502,49.3287411 25.9865476,49.1908974 C26.022719,49.0540347 26.0933924,48.9416994 26.1996808,48.8514387 C26.2831533,48.7798188 26.3794249,48.7283114 26.4884957,48.6959353 C26.5964535,48.6630686 26.7350178,48.6424656 26.9058583,48.6336358 L26.9058583,48.5399412 L23.935906,48.5399412 L23.935906,48.6336358 C24.1028511,48.6390318 24.2403025,48.6586537 24.3477038,48.6910298 C24.4545486,48.724387 24.5508202,48.7758944 24.6387446,48.8465332 C24.74392,48.9343412 24.8145934,49.0476576 24.8535473,49.1855014 C24.8925011,49.3228546 24.911978,49.5372237 24.911978,49.8271371 L24.911978,52.8464551 C24.911978,53.1255765 24.8941705,53.3320968 24.8579991,53.4669973 C24.8234971,53.6018978 24.7578321,53.713252 24.6604475,53.8005694 C24.49072,53.9565634 24.2486497,54.0345604 23.935906,54.0345604 L23.935906,54.1331604 L29.4857156,54.1331604 L29.5458158,52.4525457 L29.4345191,52.4442064 C29.3755319,52.6988004 29.3109798,52.9038491 29.2414194,53.0588621" id="Fill-23"></path>
                    <path d="M16.185235,48.6336358 C16.3643001,48.6424656 16.5070011,48.6640497 16.6155421,48.6993691 C16.7246341,48.7356696 16.8232576,48.7925731 16.9081069,48.8715512 C17.0034246,48.9593591 17.0678881,49.0697322 17.104252,49.2031611 C17.1395141,49.3370804 17.1565941,49.5450725 17.1565941,49.8271371 L17.1565941,51.1422941 L13.8893452,51.1422941 L13.8893452,49.8271371 C13.8893452,49.5485063 13.9069763,49.3410048 13.9427893,49.2061043 C13.9775004,49.0707133 14.0425148,48.9593591 14.1372815,48.8715512 C14.2237837,48.7925731 14.3213053,48.7356696 14.4298463,48.6993691 C14.5383873,48.6640497 14.6805374,48.6424656 14.8557457,48.6336358 L14.8557457,48.5399412 L11.9146707,48.5399412 L11.9146707,48.6336358 C12.089879,48.6424656 12.2320291,48.6640497 12.342774,48.6993691 C12.4529679,48.7356696 12.5493875,48.7925731 12.6325839,48.8715512 C12.7306565,48.9593591 12.7967728,49.0697322 12.8309329,49.2031611 C12.864542,49.3370804 12.8821731,49.5450725 12.8821731,49.8271371 L12.8821731,52.8464551 C12.8821731,53.1280292 12.864542,53.3355307 12.8309329,53.4689595 C12.7967728,53.6033694 12.7306565,53.713252 12.6325839,53.8005694 C12.5493875,53.8775853 12.4540698,53.9339983 12.3455288,53.9712798 C12.2358859,54.0085614 12.0926338,54.0301455 11.9146707,54.0389754 L11.9146707,54.1331604 L14.8557457,54.1331604 L14.8557457,54.0389754 C14.6772316,54.0301455 14.5339795,54.0085614 14.4259895,53.9712798 C14.3163466,53.9339983 14.2204779,53.8775853 14.1372815,53.8005694 C14.0425148,53.713252 13.9775004,53.6018978 13.9427893,53.4669973 C13.9069763,53.3320968 13.8893452,53.1255765 13.8893452,52.8464551 L13.8893452,51.3345886 L17.1565941,51.3345886 L17.1565941,52.8464551 C17.1565941,53.1280292 17.1395141,53.3355307 17.104252,53.4689595 C17.0678881,53.6033694 17.0034246,53.713252 16.9081069,53.8005694 C16.8232576,53.8775853 16.7246341,53.9339983 16.6155421,53.9712798 C16.5070011,54.0085614 16.3643001,54.0301455 16.185235,54.0389754 L16.185235,54.1331604 L19.1274119,54.1331604 L19.1274119,54.0389754 C18.9516526,54.0301455 18.8095025,54.0085614 18.7009615,53.9712798 C18.5918696,53.9339983 18.494348,53.8775853 18.4083967,53.8005694 C18.31363,53.7112898 18.2486156,53.598464 18.2128026,53.4655257 C18.1780915,53.3306252 18.1604605,53.1255765 18.1604605,52.8464551 L18.1604605,49.8271371 C18.1604605,49.5485063 18.1780915,49.3410048 18.2128026,49.2061043 C18.2486156,49.0707133 18.31363,48.9593591 18.4083967,48.8715512 C18.494348,48.7925731 18.5918696,48.7356696 18.7009615,48.6993691 C18.8095025,48.6640497 18.9516526,48.6424656 19.1274119,48.6336358 L19.1274119,48.5399412 L16.185235,48.5399412 L16.185235,48.6336358 Z" id="Fill-25"></path>
                    <path d="M42.3684668,48.6336358 C42.5599662,48.6424656 42.7148465,48.6640497 42.8355091,48.6993691 C42.9561717,48.7356696 43.0618265,48.7925731 43.1512729,48.8715512 C43.2593289,48.9593591 43.330766,49.0697322 43.3661843,49.2031611 C43.404004,49.3370804 43.4220133,49.5450725 43.4220133,49.8271371 L43.4220133,52.8464551 C43.4220133,53.1280292 43.404004,53.3355307 43.3661843,53.4689595 C43.330766,53.6033694 43.2593289,53.713252 43.1512729,53.8005694 C43.0618265,53.8775853 42.9573723,53.9339983 42.8379103,53.9712798 C42.7190487,54.0085614 42.5629677,54.0301455 42.3684668,54.0389754 L42.3684668,54.1331604 L45.5741296,54.1331604 L45.5741296,54.0389754 C45.3466116,54.0272022 45.1635166,53.9958072 45.0272459,53.9428281 C44.8891743,53.889849 44.7781167,53.8074371 44.6916719,53.6985356 C44.6316407,53.6195575 44.5872177,53.5140899 44.560804,53.3831138 C44.5331897,53.2526282 44.5205831,53.0735785 44.5205831,52.8464551 L44.5205831,49.8271371 C44.5205831,49.6372953 44.5313887,49.4719809 44.5517993,49.3262884 C44.5806143,49.1320317 44.661056,48.9809432 44.7901229,48.8715512 C44.8849721,48.7925731 44.9906269,48.7356696 45.1094886,48.6993691 C45.2289505,48.6640497 45.3832306,48.6424656 45.5741296,48.6336358 L45.5741296,48.5399412 L42.3684668,48.5399412 L42.3684668,48.6336358 Z" id="Fill-27"></path>
                    <path d="M35.6516622,53.0588621 C35.5826651,53.2153466 35.4930802,53.3551526 35.3845766,53.4772988 C35.2232124,53.6573296 35.0156647,53.791249 34.7641591,53.8775853 C34.5120971,53.9619594 34.2016101,54.0056181 33.8321418,54.0056181 C33.4793662,54.0056181 33.1950314,53.9599973 32.9808065,53.8682649 C32.7676945,53.7770232 32.6068867,53.6328023 32.4989396,53.4360928 C32.4366197,53.3247386 32.3948876,53.1790461 32.372074,53.0024491 C32.3514861,52.824871 32.3403576,52.5545795 32.3403576,52.1915746 L32.3403576,49.8271371 C32.3403576,49.5396764 32.3587197,49.3287411 32.3965568,49.1908974 C32.4327247,49.0540347 32.5033911,48.9416994 32.6091124,48.8514387 C32.6931331,48.7798188 32.7905081,48.7283114 32.8984551,48.6959353 C33.0052894,48.6630686 33.1460657,48.6424656 33.3168892,48.6336358 L33.3168892,48.5399412 L30.3472315,48.5399412 L30.3472315,48.6336358 C30.5136036,48.6390318 30.6510414,48.6586537 30.7578756,48.6910298 C30.863597,48.724387 30.9620848,48.7758944 31.0483311,48.8465332 C31.1529397,48.9343412 31.2263882,49.0476576 31.2647817,49.1855014 C31.3026189,49.3228546 31.3226503,49.5372237 31.3226503,49.8271371 L31.3226503,52.8464551 C31.3226503,53.1255765 31.305401,53.3320968 31.2692332,53.4669973 C31.2336218,53.6018978 31.1674068,53.713252 31.0711447,53.8005694 C30.9008776,53.9565634 30.6593878,54.0345604 30.3472315,54.0345604 L30.3472315,54.1331604 L35.8959342,54.1331604 L35.9571413,52.4525457 L35.8452993,52.4442064 C35.7857614,52.6988004 35.7212157,52.9038491 35.6516622,53.0588621" id="Fill-29"></path>
                    <path d="M79.6290788,48.6444363 C79.7939533,48.654284 79.9290879,48.6783561 80.0313519,48.7177469 C80.1346594,48.7582319 80.2275318,48.8216948 80.3073603,48.909777 C80.3991891,49.0077069 80.461278,49.1308032 80.4941486,49.2796128 C80.5275409,49.4289696 80.5437153,49.6609376 80.5437153,49.9755168 L80.5437153,52.5299004 C80.5437153,52.9954777 80.537976,53.2909087 80.5264974,53.4161933 C80.5092795,53.6076763 80.4738001,53.7663337 80.4195376,53.8905241 C80.3657968,54.0163558 80.2817943,54.1317927 80.1696169,54.237929 C79.9859592,54.4097166 79.7569087,54.5421135 79.4829874,54.6389492 C79.2085442,54.7341436 78.9184484,54.782835 78.6184393,54.782835 C78.3064298,54.782835 78.0486829,54.7275784 77.8441549,54.620895 C77.6391052,54.5120233 77.4674478,54.3380473 77.3281392,54.0962316 C77.2337015,53.9375742 77.1736997,53.7646924 77.1418727,53.5786803 C77.1116109,53.3910269 77.0970017,53.0862954 77.0970017,52.666674 L77.0970017,50.0800119 C77.0970017,49.7079877 77.1116109,49.4459295 77.1418727,49.2938373 C77.1736997,49.141745 77.2357886,49.013725 77.3312697,48.909777 C77.4105765,48.8216948 77.5024054,48.7582319 77.6057129,48.7177469 C77.7116291,48.6783561 77.8467637,48.654284 78.0126818,48.6444363 L78.0126818,48.5399412 L75.22651,48.5399412 L75.22651,48.6444363 C75.3955587,48.654284 75.531215,48.6783561 75.6345224,48.7177469 C75.7373082,48.7582319 75.8286153,48.8216948 75.9068786,48.909777 C75.9992292,49.0077069 76.0623615,49.1308032 76.0936668,49.2796128 C76.1260157,49.4289696 76.1411466,49.6609376 76.1411466,49.9755168 L76.1411466,52.7487381 C76.1411466,53.0988785 76.1505381,53.3406942 76.1677561,53.4747324 C76.2162793,53.8533217 76.3691535,54.1575061 76.6211612,54.388927 C77.0109121,54.7521977 77.6166697,54.9321917 78.4389556,54.9321917 C79.2273274,54.9321917 79.833085,54.7407087 80.25675,54.3566485 C80.4424948,54.1892376 80.5666725,54.0037726 80.6287614,53.8018948 C80.691372,53.5989228 80.723199,53.2843435 80.723199,52.8587041 L80.723199,49.9755168 C80.723199,49.6647672 80.7388517,49.4333463 80.7727657,49.2828954 C80.8061581,49.1318973 80.8682469,49.0077069 80.9585105,48.909777 C81.0388608,48.8216948 81.1317332,48.7582319 81.2355624,48.7177469 C81.3373046,48.6783561 81.4724392,48.654284 81.6378355,48.6444363 L81.6378355,48.5399412 L79.6290788,48.5399412 L79.6290788,48.6444363 Z" id="Fill-31"></path>
                    <path d="M91.5173441,51.7152533 L92.3851449,49.5931461 L93.3060014,51.7152533 L91.5173441,51.7152533 Z M95.4135179,53.858454 C95.3142356,53.7878152 95.2217822,53.6828381 95.1372084,53.5425416 C95.0521093,53.4037167 94.9375932,53.1711974 94.7947107,52.8464551 L92.8862842,48.5399412 L92.6357146,48.5399412 L91.0298627,52.4044721 C90.8827778,52.7561944 90.7656352,53.0210899 90.6758083,53.1962153 C90.5870321,53.3728123 90.4961546,53.5165426 90.4026507,53.6283874 C90.2907611,53.7681933 90.1778209,53.869246 90.0591024,53.9320361 C89.9435357,53.9958072 89.8069568,54.0301455 89.6519924,54.0389754 L89.6519924,54.1331604 L91.617677,54.1331604 L91.617677,54.0389754 C91.4395992,54.0247495 91.2940902,53.9815813 91.1790488,53.9079993 C91.0971015,53.853058 91.0314386,53.7824192 90.983636,53.6951018 C90.9353081,53.6068033 90.9111442,53.5126182 90.9111442,53.412056 C90.9111442,53.2403645 90.9768071,53.0034302 91.1086582,52.7027248 L91.2189718,52.4491119 L91.4474787,51.883511 L93.377968,51.883511 L93.7992611,52.8503795 L93.8728036,53.022071 C93.9542256,53.2109317 93.9957245,53.3615297 93.9957245,53.4728839 C93.9957245,53.6617446 93.9048471,53.8098898 93.7241428,53.9153575 C93.6211834,53.9756948 93.4399537,54.0173913 93.1799287,54.0389754 L93.1799287,54.1331604 L96.0633179,54.1331604 L96.0633179,54.0389754 C95.881563,54.0193535 95.7449842,53.9977694 95.6541067,53.9712798 C95.5637546,53.9452808 95.4833832,53.9079993 95.4135179,53.858454 Z" id="Fill-33"></path>
                    <path d="M96.8647336,48.6336358 C97.0545386,48.6424656 97.2101067,48.6640497 97.3308371,48.6993691 C97.4503662,48.7356696 97.556681,48.7925731 97.6479797,48.8715512 C97.7542945,48.9593591 97.8263724,49.0697322 97.8630119,49.2031611 C97.8990509,49.3370804 97.9182716,49.5450725 97.9182716,49.8271371 L97.9182716,52.8464551 C97.9182716,53.1280292 97.8990509,53.3355307 97.8630119,53.4689595 C97.8263724,53.6033694 97.7542945,53.713252 97.6479797,53.8005694 C97.556681,53.8775853 97.4521681,53.9339983 97.3332397,53.9712798 C97.2143112,54.0085614 97.0587432,54.0301455 96.8647336,54.0389754 L96.8647336,54.1331604 L100.070396,54.1331604 L100.070396,54.0389754 C99.8427504,54.0272022 99.6613545,53.9958072 99.5232053,53.9428281 C99.386858,53.889849 99.2745367,53.8074371 99.1874426,53.6985356 C99.1273777,53.6195575 99.084131,53.5140899 99.0577024,53.3831138 C99.0306732,53.2526282 99.0162577,53.0735785 99.0162577,52.8464551 L99.0162577,49.8271371 C99.0162577,49.6372953 99.0264687,49.4719809 99.0474914,49.3262884 C99.0763226,49.1320317 99.1568095,48.9809432 99.2877509,48.8715512 C99.3814522,48.7925731 99.4865657,48.7356696 99.6060948,48.6993691 C99.7256239,48.6640497 99.8787894,48.6424656 100.070396,48.6336358 L100.070396,48.5399412 L96.8647336,48.5399412 L96.8647336,48.6336358 Z" id="Fill-35"></path>
                    <path d="M87.3303567,53.646047 C87.0490754,53.8864152 86.6642782,54.0056181 86.1792169,54.0056181 C85.8041751,54.0056181 85.5407787,53.9143764 85.3874018,53.7318928 C85.3131522,53.6435943 85.2611233,53.5376361 85.2302311,53.412056 C85.198797,53.2859854 85.1825379,53.1201805 85.1825379,52.9161128 L85.1825379,51.2276494 L85.9933219,51.2276494 C86.5721436,51.2276494 86.9986724,51.3291926 87.2685724,51.5308075 C87.4176136,51.6406901 87.5357626,51.7966841 87.6230194,52.0007517 C87.7108182,52.2038383 87.7541756,52.424094 87.7541756,52.6624999 C87.7541756,53.0775028 87.612722,53.4051884 87.3303567,53.646047 Z M85.1825379,48.666993 L85.604189,48.666993 C85.9272018,48.666993 86.1678356,48.683181 86.3260902,48.7165382 C86.4843448,48.7484238 86.6252565,48.8107233 86.7488252,48.9004934 C86.8913627,49.0039989 87.004634,49.1496914 87.089723,49.3365899 C87.1769798,49.5244695 87.2192533,49.7216695 87.2192533,49.9296615 C87.2192533,50.1253898 87.1786057,50.3054206 87.0956846,50.4682823 C87.0116796,50.6301629 86.8951565,50.7631012 86.7401537,50.8666066 C86.6594005,50.9195857 86.5688918,50.9603011 86.4707956,50.9907151 C86.3732414,51.0201479 86.2437111,51.0456563 86.0832886,51.0687121 C85.9001034,51.0902961 85.721796,51.1005976 85.5505341,51.1005976 L85.1825379,51.1005976 L85.1825379,48.666993 Z M88.238695,51.4361319 C88.1097066,51.3434185 87.9628333,51.2713081 87.8040367,51.2202911 C87.6446981,51.1678026 87.4186975,51.1202195 87.1292866,51.0755797 C87.3401122,51.0078842 87.5016186,50.9455847 87.6143479,50.8901529 C87.7254513,50.83374 87.8257154,50.7631012 87.9118883,50.6792176 C88.1573998,50.4496415 88.2793425,50.1558037 88.2793425,49.7972137 C88.2793425,49.576958 88.2262297,49.3763242 88.1183781,49.2002178 C88.0116104,49.0226397 87.8593174,48.8784188 87.663667,48.7690268 C87.4365824,48.6468805 87.1520493,48.5723174 86.8078997,48.5472995 C86.7152232,48.5433751 86.5174049,48.5399412 86.2144448,48.5399412 L83.2406669,48.5399412 L83.2406669,48.6336358 C83.4130127,48.6429562 83.5533824,48.6640497 83.661776,48.6993691 C83.7701696,48.7356696 83.8660979,48.7930636 83.9468511,48.8715512 C84.0433214,48.9593591 84.1083575,49.0697322 84.1408756,49.2031611 C84.1755615,49.337571 84.1918206,49.5450725 84.1918206,49.8271371 L84.1918206,52.8464551 C84.1918206,53.1280292 84.1755615,53.3355307 84.1408756,53.4689595 C84.1083575,53.6033694 84.0433214,53.713252 83.9468511,53.8005694 C83.8660979,53.8775853 83.7717955,53.9339983 83.6639438,53.9712798 C83.5571762,54.0085614 83.4151806,54.0301455 83.2406669,54.0389754 L83.2406669,54.1331604 L86.549381,54.1331604 C86.9959625,54.1331604 87.342822,54.1110858 87.5888754,54.0679176 C87.8349289,54.0237684 88.0473803,53.9462619 88.2251458,53.8334361 C88.4207962,53.707856 88.5741731,53.5430321 88.6841926,53.3365118 C88.794754,53.1299914 88.8505767,52.902868 88.8505767,52.6536701 C88.8505767,52.4074154 88.7963799,52.1798015 88.6896123,51.9673945 C88.5812187,51.7554781 88.4310936,51.5783906 88.238695,51.4361319 Z" id="Fill-37"></path>
                    <path d="M52.3497107,52.4962044 C52.2450272,52.8072113 52.0901385,53.0819178 51.8882491,53.3217954 C51.683155,53.5705028 51.4497537,53.7500431 51.1901815,53.8604162 C50.9306094,53.9717704 50.6176273,54.0262211 50.2512353,54.0262211 C49.823422,54.0262211 49.5141786,53.9202629 49.3229711,53.7068749 C49.2343107,53.609256 49.1734234,53.490053 49.1397751,53.3497565 C49.1077292,53.2109317 49.0911721,53.0078451 49.0911721,52.7400064 L49.0911721,48.666993 L49.6311463,48.666993 C50.0183681,48.666993 50.3350889,48.698388 50.5861155,48.761178 C51.0433043,48.8784188 51.4374694,49.1187869 51.7680768,49.4817919 C52.006285,49.7452157 52.1873445,50.0508266 52.3160624,50.4005868 C52.4447803,50.7503469 52.5083381,51.1182573 52.5083381,51.5067707 C52.5083381,51.8560403 52.4554623,52.1861786 52.3497107,52.4962044 M52.2674594,49.0476576 C51.8294982,48.7636308 51.2975355,48.599788 50.6710372,48.5561293 C50.5209554,48.5458278 50.1753933,48.5399412 49.6311463,48.5399412 L47.176961,48.5399412 L47.176961,48.6336358 C47.4600335,48.6478616 47.6742072,48.7106517 47.8194822,48.822987 C47.9359158,48.9122666 48.0133601,49.0270546 48.0539517,49.1673511 C48.0945432,49.3056854 48.114839,49.5269222 48.114839,49.8271371 L48.114839,52.8469457 C48.114839,53.126067 48.0966796,53.3320968 48.0630314,53.4669973 C48.028849,53.6023883 47.9658253,53.7137426 47.8728921,53.80106 C47.7895726,53.8810192 47.6955712,53.9369415 47.591956,53.973242 C47.4878066,54.0085614 47.349475,54.0301455 47.176961,54.0389754 L47.176961,54.1331604 L50.4734206,54.1331604 C50.8579719,54.1331604 51.2339777,54.1012749 51.6019719,54.0389754 C52.0960136,53.9541107 52.5083381,53.7559296 52.8389454,53.4449227 C53.0728808,53.2227048 53.257145,52.9455456 53.3901357,52.6109925 C53.5215241,52.2759487 53.5882865,51.9207925 53.5882865,51.5435618 C53.5882865,51.0279966 53.4718529,50.5497131 53.2395198,50.1111639 C53.009323,49.6731053 52.6840567,49.3184397 52.2674594,49.0476576" id="Fill-39"></path>
                    <path d="M40.1196399,51.2263304 L39.4745205,50.92209 C38.8195436,50.6189172 38.4931505,50.2191346 38.4931505,49.7216749 C38.4931505,49.5978438 38.5161513,49.4734788 38.5632483,49.3469789 C38.6103453,49.2220802 38.6760621,49.1137279 38.7576604,49.0213883 C38.9553582,48.7956099 39.2247969,48.6829876 39.5665239,48.6829876 C39.8009137,48.6829876 40.0068261,48.7384981 40.1875472,48.8500529 C40.3666253,48.961074 40.5314648,49.1334769 40.6798751,49.364059 C40.762021,49.4921603 40.8337618,49.6314703 40.8923592,49.7809217 C40.9525996,49.9319744 41.0226975,50.1476115 41.1048434,50.4305016 L41.2099902,50.4305016 L41.1776794,48.6600361 L41.0730803,48.6600361 C41.0358408,48.8121563 40.9641,48.8879495 40.857858,48.8879495 C40.8156897,48.8879495 40.7669498,48.8788757 40.7121858,48.8633968 C40.6568742,48.8463166 40.553918,48.8089538 40.4011266,48.7486395 C40.1957618,48.6659074 40.0331128,48.6114644 39.9109892,48.5815741 C39.7894132,48.5543526 39.6552415,48.5399412 39.5134029,48.5399412 C39.0709102,48.5399412 38.6886578,48.6861901 38.3650028,48.9765529 C38.1820912,49.1398819 38.0386097,49.3368375 37.9367487,49.5647509 C37.8354354,49.7942656 37.7839573,50.0317866 37.7839573,50.2783814 C37.7839573,50.680299 37.9148431,51.0197672 38.1771625,51.2989211 C38.2713565,51.4003346 38.3967659,51.5001468 38.550105,51.5978239 C38.7039917,51.6965686 38.9257857,51.8166635 39.2160346,51.9586423 C39.5446184,52.1235727 39.7894132,52.2580789 39.949324,52.3658974 C40.1108776,52.4715809 40.2351918,52.5836695 40.3228141,52.7000281 C40.4076983,52.8131842 40.4761532,52.9482242 40.526536,53.1051482 C40.5763712,53.2626059 40.6021103,53.4168611 40.6021103,53.5689813 C40.6021103,53.9196584 40.487106,54.2089536 40.2592879,54.4379346 C40.029827,54.6663817 39.7406733,54.7816728 39.3896364,54.7816728 C38.885808,54.7816728 38.4685067,54.5318754 38.1355419,54.0344157 C37.9592019,53.7648694 37.8064105,53.3955109 37.6788105,52.926874 L37.5725684,52.9220702 L37.5599727,54.7635251 L37.6645719,54.7635251 C37.7198835,54.6210125 37.8211968,54.5500231 37.9668689,54.5500231 C38.012323,54.5500231 38.0539436,54.5558944 38.0900878,54.5671033 C38.1267796,54.5793796 38.2395934,54.6258163 38.4290766,54.7053458 C38.7921616,54.857466 39.1700329,54.9321917 39.5626905,54.9321917 C39.9931351,54.9321917 40.3666253,54.8393184 40.6842562,54.6503691 C41.0013395,54.4619535 41.2390151,54.1940085 41.3972829,53.8481352 C41.5106443,53.5988716 41.5670511,53.3383991 41.5670511,53.0651166 C41.5670511,52.6546589 41.442737,52.294908 41.1919181,51.9853301 C40.9734099,51.7077775 40.6152536,51.4547776 40.1196399,51.2263304" id="Fill-41"></path>
                    <path d="M59.7005133,53.092128 C59.6297768,53.2427392 59.5389889,53.3766703 59.4281497,53.4939214 C59.2699672,53.6690621 59.0655553,53.7975967 58.8138,53.8814876 C58.5626017,53.9653786 58.2518065,54.0060976 57.8797433,54.0060976 C57.5243896,54.0060976 57.2403295,53.9604727 57.0253349,53.8687323 C56.8086694,53.7769919 56.6493729,53.633249 56.5435466,53.4365223 C56.4811648,53.3217242 56.4388342,53.179453 56.417669,53.0087276 C56.3965037,52.8380022 56.3853641,52.5647435 56.3853641,52.1914043 L56.3853641,51.251924 L56.6499299,51.251924 C56.879406,51.251924 57.0698934,51.2730194 57.2180502,51.314229 C57.3667641,51.3554386 57.4876289,51.4187247 57.5812017,51.5065403 C57.6775593,51.5972995 57.7527517,51.7062106 57.8067789,51.8347452 C57.860806,51.9632798 57.9020226,52.1330241 57.9304286,52.3425061 L58.0368119,52.3425061 L58.0551923,50.1461336 L57.947138,50.1422089 C57.9204029,50.3526721 57.8858701,50.512114 57.8429826,50.6190626 C57.80288,50.7274831 57.7371563,50.8211858 57.6513812,50.9001708 C57.5611504,50.9855335 57.4436274,51.0434232 57.3015974,51.0758021 C57.1595673,51.1091623 56.9462437,51.1248612 56.6649684,51.1248612 L56.3853641,51.1248612 L56.3853641,48.6670041 L57.4514252,48.6670041 C57.7789298,48.6670041 58.0434957,48.6866277 58.2417808,48.7263655 C58.4400659,48.7656128 58.611059,48.8333142 58.7581019,48.9299605 C58.9352218,49.044268 59.0705681,49.1767274 59.1630269,49.3258668 C59.2565997,49.4774592 59.3223234,49.6663364 59.362983,49.895442 L59.4704803,49.8924985 L59.390832,48.5399412 L54.3897021,48.5399412 L54.3897021,48.633644 C54.5696069,48.6424746 54.7149789,48.6640606 54.8235901,48.6993831 C54.9338723,48.7356867 55.0313439,48.7925952 55.114891,48.8715802 C55.2112487,48.9593959 55.2764155,49.0707599 55.3126192,49.2061628 C55.3488229,49.3410751 55.3672033,49.5481042 55.3672033,49.82725 L55.3672033,52.8468328 C55.3672033,53.1259787 55.3488229,53.3325172 55.3126192,53.4674295 C55.2764155,53.6023418 55.2112487,53.7137058 55.114891,53.8010308 C55.028559,53.8814876 54.9288595,53.9374149 54.8202482,53.9737186 C54.7099661,54.0085505 54.566822,54.0306271 54.3897021,54.0394577 L54.3897021,54.1331604 L59.940015,54.1331604 L59.999612,52.5019479 L59.8932286,52.4985138 C59.8347457,52.7433183 59.7701359,52.9424979 59.7005133,53.092128" id="Fill-43"></path>
                    <path d="M72.3854307,52.4962044 C72.2796614,52.8072113 72.1258152,53.0819178 71.9238921,53.3217954 C71.7192981,53.5705028 71.4858579,53.7500431 71.2257083,53.8604162 C70.9650245,53.9717704 70.6514561,54.0262211 70.2871398,54.0262211 C69.858721,54.0262211 69.5488919,53.9202629 69.3581867,53.7068749 C69.2695115,53.609256 69.2086141,53.490053 69.1749602,53.3497565 C69.1418405,53.2109317 69.1247465,53.0078451 69.1247465,52.7400064 L69.1247465,48.666993 L69.6669474,48.666993 C70.0520971,48.666993 70.3704732,48.698388 70.6210074,48.761178 C71.0788066,48.8784188 71.4730374,49.1187869 71.8036998,49.4817919 C72.0419477,49.7452157 72.2235717,50.0508266 72.3517768,50.4005868 C72.4805161,50.7503469 72.5440845,51.1182573 72.5440845,51.5067707 C72.5440845,51.8560403 72.4911999,52.1861786 72.3854307,52.4962044 M72.3036999,49.0476576 C71.8651314,48.7636308 71.3320117,48.599788 70.7054091,48.5561293 C70.5563706,48.5458278 70.2107509,48.5399412 69.6669474,48.5399412 L67.2123532,48.5399412 L67.2123532,48.6336358 C67.4944045,48.6478616 67.7091481,48.7106517 67.8544472,48.822987 C67.9698319,48.9122666 68.0483575,49.0270546 68.0889558,49.1673511 C68.1284857,49.3056854 68.1482507,49.5269222 68.1482507,49.8271371 L68.1482507,52.8469457 C68.1482507,53.126067 68.1316909,53.3320968 68.0969686,53.4669973 C68.063849,53.6023883 67.9997464,53.7137426 67.9078661,53.80106 C67.8245327,53.8810192 67.7305156,53.9369415 67.6258147,53.973242 C67.5227164,54.0085614 67.3843617,54.0301455 67.2123532,54.0389754 L67.2123532,54.1331604 L70.5088279,54.1331604 C70.8939775,54.1331604 71.2689775,54.1012749 71.6375673,54.0389754 C72.1316913,53.9541107 72.5440845,53.7559296 72.8747469,53.4449227 C73.1087213,53.2227048 73.2930162,52.9455456 73.4254949,52.6109925 C73.5574393,52.2759487 73.6236787,51.9207925 73.6236787,51.5435618 C73.6236787,51.0279966 73.5077598,50.5497131 73.2759222,50.1111639 C73.0435504,49.6731053 72.7198324,49.3184397 72.3036999,49.0476576" id="Fill-45"></path>
                    <path d="M100.443259,35.7181565 C100.344607,35.9530256 100.214131,36.1647675 100.053954,36.3497846 C99.8285396,36.6242268 99.5368264,36.8272318 99.1766932,36.9572578 C98.8186816,37.0898534 98.373156,37.1540955 97.8417076,37.1540955 C97.3357178,37.1540955 96.9294409,37.0821444 96.6223465,36.9382421 C96.3141913,36.7948538 96.0855942,36.5682077 95.9349641,36.2593318 C95.8447982,36.079454 95.7859252,35.8538358 95.7556931,35.5860748 C95.7233394,35.316772 95.7084886,34.8902046 95.7084886,34.3017471 L95.7084886,32.8272629 L96.0877157,32.8272629 C96.4154953,32.8272629 96.6849322,32.859127 96.8976176,32.9233691 C97.1103031,32.9876111 97.282679,33.0883427 97.4168671,33.2265917 C97.5531767,33.3674103 97.6608454,33.5390652 97.7393428,33.7420701 C97.8157186,33.9435333 97.875122,34.2087246 97.9149011,34.5402137 L98.0671223,34.5402137 L98.0931113,31.0886153 L97.9408901,31.0814201 C97.9021718,31.4123953 97.8517849,31.6631964 97.7918511,31.8322816 C97.731387,32.0023946 97.6401603,32.1483526 97.51658,32.2732392 C97.3871654,32.4063488 97.2216845,32.4988574 97.018546,32.5502511 C96.8143468,32.6021587 96.5104347,32.6268276 96.1073401,32.6268276 L95.7084886,32.6268276 L95.7084886,28.7635659 L97.2291099,28.7635659 C97.7000941,28.7635659 98.0766693,28.7938882 98.3598963,28.8571024 C98.6436537,28.9192887 98.8892231,29.0251597 99.0976655,29.1752292 C99.3506604,29.3561348 99.5431911,29.5647931 99.6752576,29.8001761 C99.8089153,30.036587 99.9027939,30.3346702 99.9621973,30.6959677 L100.114419,30.6887726 L100.000916,28.5641585 L92.8576552,28.5641585 L92.8576552,28.7116583 C93.1143628,28.7250207 93.3212139,28.7604823 93.4787391,28.8149596 C93.6362642,28.8704647 93.7736346,28.9619454 93.8945629,29.0858042 C94.031403,29.2235392 94.1263423,29.3977637 94.1767292,29.6105335 C94.2276464,29.8217614 94.2525746,30.1486251 94.2525746,30.5854713 L94.2525746,35.3321901 C94.2525746,35.7690362 94.2276464,36.0943581 94.1767292,36.3071279 C94.1263423,36.5204116 94.031403,36.695664 93.8945629,36.8318572 C93.7699219,36.9572578 93.6288388,37.0471967 93.4729048,37.1016739 C93.3148493,37.1592349 93.1101197,37.1921268 92.8576552,37.2060031 L92.8576552,37.3535029 L100.785889,37.3535029 L100.871812,34.7905009 L100.719591,34.7848476 C100.634729,35.1703001 100.543502,35.4822596 100.443259,35.7181565" id="Fill-47"></path>
                    <path d="M52.5326396,34.78125 C52.3740122,35.2674341 52.1432814,35.7006827 51.8399131,36.079454 C51.532272,36.4695319 51.1829712,36.7516831 50.7925448,36.9259076 C50.4031865,37.0991043 49.9326452,37.1864735 49.3846596,37.1864735 C48.7410702,37.1864735 48.2764039,37.0194441 47.9927973,36.6838435 C47.8582044,36.5296625 47.7663393,36.3425895 47.7172022,36.1241665 C47.6685992,35.9042016 47.6434965,35.5850469 47.6434965,35.1646468 L47.6434965,28.7635659 L48.4537248,28.7635659 C49.0337565,28.7635659 49.5117751,28.8129038 49.8851104,28.9120936 C50.57303,29.0965968 51.1642777,29.4743403 51.6593876,30.0453239 C52.0161658,30.4575011 52.2906927,30.9380318 52.4824343,31.4874301 C52.6741759,32.0373423 52.7697796,32.6165489 52.7697796,33.2265917 C52.7697796,33.7749621 52.6901988,34.2940381 52.5326396,34.78125 M52.4087286,29.3623021 C51.7528549,28.9151772 50.9549109,28.6582089 50.012226,28.5893414 C49.7900408,28.5723815 49.2698283,28.5641585 48.4537248,28.5641585 L44.7727139,28.5641585 L44.7727139,28.7116583 C45.1967886,28.7332436 45.5177821,28.8319195 45.7367628,29.0081997 C45.910345,29.1505602 46.0267786,29.330438 46.0882,29.5488611 C46.1480191,29.768826 46.1779286,30.1141914 46.1779286,30.5854713 L46.1779286,35.3316762 C46.1779286,35.7690362 46.1517578,36.0943581 46.1010183,36.3071279 C46.0497448,36.5204116 45.9557434,36.695664 45.8163435,36.8318572 C45.6913643,36.9572578 45.5514304,37.0471967 45.3949393,37.1016739 C45.2395165,37.1587209 45.0312179,37.1921268 44.7727139,37.2060031 L44.7727139,37.3535029 L49.7190056,37.3535029 C50.2947644,37.3535029 50.8587731,37.3046789 51.4115656,37.2060031 C52.1534293,37.0718656 52.7697796,36.7619618 53.2654236,36.2716663 C53.6173949,35.9242451 53.89299,35.487399 54.0916749,34.9611278 C54.2903597,34.4353707 54.3897021,33.8751797 54.3897021,33.2841526 C54.3897021,32.4721327 54.2150517,31.7228131 53.8668191,31.0331101 C53.5201888,30.344435 53.0330905,29.7883556 52.4087286,29.3623021" id="Fill-49"></path>
                    <path d="M38.0068275,36.3107255 C37.9602801,36.5209255 37.8701884,36.695664 37.7375535,36.8318572 C37.6244383,36.9521184 37.4938054,37.0410294 37.3451541,37.0991043 C37.1970033,37.158207 37.0008036,37.1921268 36.758557,37.2060031 L36.758557,37.3535029 L40.7656355,37.3535029 L40.7656355,37.2060031 C40.4808456,37.1890432 40.2541148,37.1386774 40.0824401,37.0543918 C39.9102649,36.9701062 39.7711232,36.8436778 39.6620122,36.670995 C39.5869358,36.5466224 39.5323802,36.3821627 39.4993466,36.1750462 C39.465312,35.9699855 39.4492957,35.6878343 39.4492957,35.3316762 L39.4492957,30.5854713 C39.4492957,30.2904717 39.4613079,30.028364 39.4868339,29.8001761 C39.5248726,29.4959256 39.6239735,29.2569451 39.7881406,29.0852902 C39.9052598,28.9619454 40.0373942,28.8704647 40.185545,28.8149596 C40.3346968,28.7599683 40.5278935,28.7245067 40.7656355,28.7116583 L40.7656355,28.5641585 L36.758557,28.5641585 L36.758557,28.7116583 C36.996299,28.7245067 37.1914977,28.7599683 37.3416505,28.8149596 C37.4923038,28.8704647 37.6244383,28.9619454 37.7375535,29.0852902 C37.8701884,29.2235392 37.9602801,29.3977637 38.0068275,29.6069359 C38.0533749,29.8181639 38.0758978,30.1439997 38.0758978,30.5854713 L38.0758978,35.3316762 C38.0758978,35.7741756 38.0533749,36.1000114 38.0068275,36.3107255" id="Fill-51"></path>
                    <path d="M65.1809969,35.7181565 C65.081821,35.9530256 64.952415,36.1647675 64.7938396,36.3497846 C64.5668487,36.6242268 64.2746245,36.8272318 63.9166365,36.9572578 C63.5570575,37.0898534 63.1110311,37.1540955 62.5801482,37.1540955 C62.075783,37.1540955 61.6690026,37.0821444 61.3608678,36.9382421 C61.0522026,36.7948538 60.8236207,36.5682077 60.6730006,36.2593318 C60.584962,36.079454 60.5245018,35.8538358 60.493211,35.5860748 C60.462981,35.316772 60.4476007,34.8902046 60.4476007,34.3017471 L60.4476007,32.8272629 L60.8252117,32.8272629 C61.1534999,32.8272629 61.4245101,32.859127 61.6361207,32.9233691 C61.8498528,32.9876111 62.0222174,33.0883427 62.1548055,33.2265917 C62.2916364,33.3674103 62.4003587,33.5390652 62.4772598,33.7420701 C62.5552216,33.9435333 62.6124997,34.2087246 62.6533368,34.5402137 L62.8071391,34.5402137 L62.8331264,31.0886153 L62.6803848,31.0814201 C62.640078,31.4123953 62.5902249,31.6631964 62.5308254,31.8322816 C62.4714259,32.0023946 62.3791446,32.1483526 62.2545118,32.2732392 C62.1266968,32.4063488 61.9596358,32.4988574 61.7559804,32.5502511 C61.552325,32.6021587 61.248433,32.6268276 60.8453651,32.6268276 L60.4476007,32.6268276 L60.4476007,28.7635659 L61.9691821,28.7635659 C62.4380137,28.7635659 62.814564,28.7938882 63.0983026,28.8571024 C63.3820412,28.9192887 63.6275944,29.0251597 63.8370837,29.1752292 C64.0884708,29.3561348 64.2809887,29.5647931 64.4146376,29.8001761 C64.5466953,30.036587 64.6426891,30.3346702 64.7004976,30.6959677 L64.8521784,30.6887726 L64.740274,28.5641585 L57.5953649,28.5641585 L57.5953649,28.7116583 C57.8536466,28.7250207 58.0615448,28.7604823 58.2190595,28.8149596 C58.3749831,28.8704647 58.5139355,28.9619454 58.6327344,29.0858042 C58.7700957,29.2235392 58.8650288,29.3977637 58.9154123,29.6105335 C58.9663262,29.8217614 58.9923134,30.1486251 58.9923134,30.5854713 L58.9923134,35.3321901 C58.9923134,35.7690362 58.9663262,36.0943581 58.9154123,36.3071279 C58.8650288,36.5204116 58.7700957,36.695664 58.6327344,36.8318572 C58.5091623,36.9572578 58.3686189,37.0471967 58.2111042,37.1016739 C58.0541198,37.1592349 57.8483431,37.1921268 57.5953649,37.2060031 L57.5953649,37.3535029 L65.5236047,37.3535029 L65.6095218,34.7905009 L65.4573106,34.7848476 C65.3740453,35.1703001 65.2812336,35.4822596 65.1809969,35.7181565" id="Fill-53"></path>
                    <path d="M70.1323986,36.3071279 C70.0815123,36.5204116 69.9871606,36.695664 69.8498734,36.8318572 C69.725838,36.9572578 69.5859006,37.0471967 69.429001,37.1016739 C69.2715714,37.1587209 69.0664358,37.1921268 68.8151845,37.2060031 L68.8151845,37.3535029 L71.8752558,37.3535029 L71.8752558,37.2060031 C71.6234744,37.1921268 71.4178088,37.1587209 71.2609093,37.1016739 C71.1045398,37.0471967 70.9635422,36.9572578 70.8395068,36.8318572 C70.7027497,36.695664 70.6078679,36.5209255 70.5575116,36.3107255 C70.5066253,36.1000114 70.480652,35.7741756 70.480652,35.3316762 L70.480652,29.7292528 L76.7375516,37.3535029 L77.0359788,37.3535029 L77.0359788,30.5782762 C77.0359788,30.1460555 77.0619521,29.8217614 77.1123083,29.6105335 C77.1637247,29.3977637 77.2580765,29.2235392 77.3948335,29.0852902 C77.6429044,28.8365449 77.9879774,28.7116583 78.4321728,28.7116583 L78.4321728,28.5641585 L75.3689211,28.5641585 L75.3689211,28.7116583 C75.6217626,28.7245067 75.825838,28.7599683 75.9827376,28.8149596 C76.1412273,28.8704647 76.2811648,28.9619454 76.4057303,29.0852902 C76.5430174,29.2235392 76.6368391,29.3977637 76.6877254,29.6069359 C76.7386118,29.8181639 76.7635249,30.1439997 76.7635249,30.5854713 L76.7635249,35.2345421 L71.371163,28.5641585 L68.8151845,28.5641585 L68.8151845,28.7116583 C69.0712064,28.7245067 69.2779322,28.7599683 69.4353618,28.8149596 C69.5927914,28.8704647 69.7311387,28.9619454 69.8498734,29.0852902 C69.9871606,29.2235392 70.0815123,29.3977637 70.1323986,29.6105335 C70.183285,29.8217614 70.2087282,30.1460555 70.2087282,30.5782762 L70.2087282,35.3316762 C70.2087282,35.7690362 70.183285,36.0943581 70.1323986,36.3071279" id="Fill-55"></path>
                    <path d="M32.5128134,36.5252962 C32.6712421,36.1517093 32.7514786,35.7589093 32.7514786,35.3506321 C32.7514786,34.7352811 32.5761849,34.1946474 32.2261085,33.7313996 C31.9204944,33.3167181 31.417611,32.9372605 30.723591,32.5935605 L29.8220805,32.1383181 C28.9057492,31.6830758 28.447328,31.0826682 28.447328,30.3376291 C28.447328,30.1497682 28.481058,29.9629747 28.5464738,29.7751139 C28.6124005,29.587253 28.7033693,29.4250095 28.8183579,29.2867824 C29.0943305,28.9473519 29.4730262,28.7776367 29.9493345,28.7776367 C30.2774353,28.7776367 30.5672065,28.861427 30.8191593,29.0290074 C31.071112,29.1955204 31.3005782,29.4527617 31.5090908,29.801265 C31.6240794,29.9928617 31.7242472,30.201003 31.8060169,30.4267562 C31.8893197,30.6514421 31.9884654,30.975929 32.102943,31.398616 L32.2511505,31.398616 L32.2061772,28.7445476 L32.0589918,28.7445476 C32.0078857,28.9719019 31.9077179,29.0861128 31.7584883,29.0861128 C31.6981831,29.0861128 31.629701,29.0727704 31.5525309,29.0487541 C31.4763829,29.0236704 31.3317528,28.9670987 31.1176185,28.8774378 C30.8319358,28.752553 30.6029807,28.6698302 30.4322866,28.6271346 C30.2615924,28.5849726 30.0760775,28.5641585 29.8752308,28.5641585 C29.2558256,28.5641585 28.7212564,28.78244 28.2679458,29.219003 C28.0124157,29.4650367 27.812591,29.7585693 27.6694941,30.1017356 C27.5263972,30.4454356 27.4548488,30.802478 27.4548488,31.1717953 C27.4548488,31.7743377 27.6388305,32.2834833 28.0057719,32.7029681 C28.1381365,32.8550714 28.311897,33.0039724 28.5275645,33.1507387 C28.743232,33.297505 29.0534457,33.4784279 29.4587165,33.6935072 C29.919693,33.9379398 30.2631256,34.1418115 30.48697,34.3008528 C30.7113255,34.4614952 30.8855971,34.6290756 31.0092737,34.8025267 C31.1283508,34.9727756 31.222897,35.1739789 31.2944454,35.4114734 C31.3644607,35.6479006 31.3997239,35.8795245 31.3997239,36.1068789 C31.3997239,36.6331027 31.2392509,37.0669973 30.9193271,37.4106973 C30.5983812,37.7543973 30.1946435,37.9251799 29.7024923,37.9251799 C28.9982511,37.9251799 28.413087,37.5526603 27.9480221,36.8054864 C27.7006688,36.4004115 27.4870456,35.8464354 27.3076634,35.1440919 L27.1609891,35.1376876 L27.1415688,37.8990288 L27.2887542,37.8990288 C27.3654132,37.6839494 27.5059548,37.5788114 27.7114011,37.5788114 C27.7747726,37.5788114 27.8325224,37.5862831 27.8841395,37.6044288 C27.9352455,37.6225744 28.0931632,37.6914212 28.3578925,37.810969 C28.8663976,38.0393907 29.3953451,38.1525342 29.9462681,38.1525342 C30.5482973,38.1525342 31.071112,38.0111049 31.5147125,37.7293136 C31.9588239,37.4475223 32.2910132,37.0461832 32.5128134,36.5252962" id="Fill-57"></path>
                    <path d="M23.5073812,35.7181565 C23.4071446,35.9530256 23.2777385,36.1647675 23.1181024,36.3497846 C22.8927026,36.6242268 22.6004784,36.8272318 22.2414297,36.9572578 C21.8823811,37.0898534 21.436885,37.1540955 20.9054717,37.1540955 C20.4005761,37.1540955 19.9943261,37.0821444 19.6861913,36.9382421 C19.3780565,36.7948538 19.1489442,36.5682077 18.9988544,36.2593318 C18.9097552,36.079454 18.8498254,35.8538358 18.8190649,35.5860748 C18.7877741,35.316772 18.7723939,34.8902046 18.7723939,34.3017471 L18.7723939,32.8272629 L19.151596,32.8272629 C19.4793538,32.8272629 19.7493033,32.859127 19.9619746,32.9233691 C20.1751763,32.9876111 20.3475409,33.0883427 20.4806594,33.2265917 C20.6174903,33.3674103 20.7246215,33.5390652 20.8025833,33.7420701 C20.8805452,33.9435333 20.9388839,34.2087246 20.9786604,34.5402137 L21.1319323,34.5402137 L21.1579195,31.0886153 L21.005178,31.0814201 C20.9654016,31.4123953 20.9155484,31.6631964 20.856149,31.8322816 C20.7962191,32.0023946 20.7044681,32.1483526 20.5803656,32.2732392 C20.45149,32.4063488 20.2849593,32.4988574 20.0818343,32.5502511 C19.8781789,32.6021587 19.5742869,32.6268276 19.1717494,32.6268276 L18.7723939,32.6268276 L18.7723939,28.7635659 L20.2939753,28.7635659 C20.7638676,28.7635659 21.1404179,28.7938882 21.4241565,28.8571024 C21.7078951,28.9192887 21.9534483,29.0251597 22.1613465,29.1752292 C22.4137943,29.3561348 22.607373,29.5647931 22.7394307,29.8001761 C22.8725492,30.036587 22.9674823,30.3346702 23.0252907,30.6959677 L23.1780323,30.6887726 L23.0655975,28.5641585 L15.9217491,28.5641585 L15.9217491,28.7116583 C16.1789701,28.7250207 16.3858076,28.7604823 16.5427919,28.8149596 C16.7003066,28.8704647 16.8387286,28.9619454 16.958058,29.0858042 C17.0959496,29.2235392 17.1903524,29.3977637 17.2407358,29.6105335 C17.2916497,29.8217614 17.3171066,30.1486251 17.3171066,30.5854713 L17.3171066,35.3321901 C17.3171066,35.7690362 17.2916497,36.0943581 17.2407358,36.3071279 C17.1903524,36.5204116 17.0959496,36.695664 16.958058,36.8318572 C16.8344858,36.9572578 16.6934121,37.0471967 16.5364277,37.1016739 C16.378913,37.1592349 16.1747273,37.1921268 15.9217491,37.2060031 L15.9217491,37.3535029 L23.8494586,37.3535029 L23.935906,34.7905009 L23.7831645,34.7848476 C23.6988384,35.1703001 23.6070875,35.4822596 23.5073812,35.7181565" id="Fill-59"></path>
                    <path d="M89.4992113,35.2236126 C89.3854158,35.852306 89.1999712,36.3529125 88.9455117,36.7211625 C88.7247694,37.0440484 88.4144658,37.2922169 88.0146009,37.4683364 C87.6142092,37.6439223 87.1621879,37.7319821 86.6611714,37.7319821 C85.6580847,37.7319821 84.8536134,37.3797429 84.2456502,36.674731 C83.915327,36.2974082 83.6645553,35.826155 83.493862,35.2636398 C83.322115,34.7027256 83.234661,34.0718974 83.234661,33.3716887 C83.234661,32.5476627 83.3605737,31.8111627 83.6113454,31.165391 C83.7878338,30.7069464 84.0138444,30.2976019 84.2909577,29.937891 C84.5696514,29.5792476 84.8688915,29.3043943 85.1886781,29.1122639 C85.5553527,28.8934487 85.985247,28.7845748 86.4836293,28.7845748 C86.8128988,28.7845748 87.1100317,28.8379443 87.3745009,28.9452172 C87.6379166,29.05249 87.8934297,29.2238063 88.1405136,29.4602335 C88.4650416,29.771378 88.713706,30.115078 88.8865066,30.4897323 C88.9829167,30.698941 89.1088294,31.0170236 89.2621373,31.4450475 C89.2890057,31.5133605 89.325357,31.6104932 89.3748792,31.7401812 L89.5260797,31.7401812 L89.4465282,28.7520193 L89.2890057,28.7520193 C89.244225,28.8539552 89.2073468,28.9281389 89.1762638,28.9719019 C89.1061952,29.0652987 89.0161071,29.1122639 88.9065262,29.1122639 C88.8264478,29.1122639 88.7342524,29.0919835 88.6283593,29.05249 L88.0873036,28.8715672 C87.4935648,28.666628 86.930909,28.5641585 86.3977558,28.5641585 C85.8387879,28.5641585 85.2808736,28.6586226 84.7245398,28.8480846 C84.1666255,29.0364791 83.6893164,29.2931867 83.287871,29.6139378 C82.769469,30.0328889 82.3643358,30.5857975 82.0751055,31.2753323 C81.7837678,31.9648671 81.6378355,32.7157768 81.6378355,33.5328648 C81.6378355,34.5981213 81.8864999,35.5150104 82.3843554,36.2845995 C82.8816841,37.0525875 83.5728867,37.5841484 84.4563827,37.879282 C85.0116628,38.0612723 85.5911772,38.1525342 86.1991404,38.1525342 C86.8503039,38.1525342 87.4234962,38.0479299 87.9181908,37.8381875 C88.4134122,37.6300462 88.8022136,37.3269071 89.0840683,36.9293038 C89.3796207,36.5146223 89.5682262,35.955843 89.6519924,35.2502974 L89.4992113,35.2236126 Z" id="Fill-61"></path>
                    <path d="M7.10138087,31.1471167 C6.74649866,31.239939 6.15822544,31.2863502 5.33656122,31.2863502 L4.95876619,31.2863502 L4.95876619,24.8778762 L5.36640116,24.8778762 C6.07563273,24.8778762 6.62287602,24.922687 7.00706533,25.011775 C7.39072177,25.1008631 7.72269117,25.2587678 8.00084209,25.4849555 C8.35892144,25.7831605 8.63867094,26.1629851 8.84062343,26.6238959 C9.04310877,27.0853402 9.14381859,27.5777253 9.14381859,28.1010511 C9.14381859,29.0842208 8.79586351,29.9062851 8.09995334,30.5709782 C7.78876534,30.8617148 7.45573023,31.0542944 7.10138087,31.1471167 Z M13.5175021,37.9247461 C13.2457454,37.8970061 13.0320701,37.8452603 12.8764761,37.7641742 C12.7208821,37.6841549 12.5599595,37.5433211 12.3942413,37.3374049 C12.1890916,37.0845441 11.9354521,36.6780464 11.6338555,36.1179117 C11.3322589,35.5567102 10.8867911,34.6695635 10.2969194,33.4559384 C10.0454112,32.9256776 9.8562473,32.5554553 9.73049324,32.3458049 C9.60473918,32.1361545 9.46566372,31.9633129 9.31326685,31.8246129 C9.12090577,31.6448364 8.82623631,31.4725283 8.42819275,31.3060883 C8.91202615,31.1999294 9.29834688,31.087369 9.58662207,30.9673402 C9.87436441,30.8489117 10.1381282,30.6968751 10.3763149,30.5096301 C11.1585478,29.8860135 11.5491314,29.0570142 11.5491314,28.0220988 C11.5491314,27.3253979 11.369026,26.7135175 11.0077495,26.185924 C10.646473,25.6583305 10.1381282,25.262502 9.48164941,24.9963047 C8.89870475,24.7647823 8.09302621,24.6255489 7.06621236,24.5786042 C6.81470425,24.5727362 6.28770949,24.5690019 5.48576095,24.5690019 L0.694851075,24.5690019 L0.694851075,24.7973235 C1.0726461,24.817595 1.38063697,24.8704077 1.61882368,24.9568285 C1.85754325,25.0432493 2.06642287,25.1824828 2.24546254,25.3750624 C2.4575393,25.5873801 2.5998119,25.8562447 2.6728132,26.1811228 C2.74581449,26.5060009 2.78204871,27.0101221 2.78204871,27.6934864 L2.78204871,35.0285832 C2.78204871,35.7108805 2.74581449,36.2160687 2.6728132,36.5409468 C2.5998119,36.8663583 2.4575393,37.134156 2.24546254,37.3470072 C2.06642287,37.5321184 1.85967467,37.6702849 1.62415224,37.759373 C1.38862981,37.8500615 1.07904038,37.905008 0.694851075,37.9247461 L0.694851075,38.1525342 L7.04649668,38.1525342 L7.04649668,37.9247461 C6.66230738,37.905008 6.35218509,37.8500615 6.11719551,37.759373 C5.88167309,37.6702849 5.67439203,37.5321184 5.49588521,37.3470072 C5.29073559,37.134156 5.1495287,36.8652914 5.07386312,36.5356122 C4.99713183,36.2080667 4.95876619,35.7055459 4.95876619,35.0285832 L4.95876619,31.5056029 L5.44632959,31.5056029 C5.74472905,31.5056029 5.99623716,31.5338764 6.20191965,31.5904233 C6.40706927,31.6459033 6.5988975,31.7408594 6.77847003,31.8731579 C7.12962225,32.1388218 7.51754154,32.6333407 7.9411622,33.357248 C8.36531572,34.0854231 8.7862721,34.9250916 9.20349848,35.8741198 L9.89940865,37.4563668 C9.94523428,37.5555907 10.0518055,37.7876465 10.2180566,38.1525342 L13.5175021,38.1525342 L13.5175021,37.9247461 Z" id="Fill-63"></path>
                    <path d="M107.440792,37.9251799 C106.735911,37.9251799 106.151152,37.5526603 105.686002,36.8054864 C105.438092,36.4004115 105.225453,35.8464354 105.045015,35.1440919 L104.898314,35.1376876 L104.87889,37.8990288 L105.025592,37.8990288 C105.103287,37.6839494 105.243343,37.5788114 105.449849,37.5788114 C105.513232,37.5788114 105.570481,37.5862831 105.621085,37.6044288 C105.672201,37.6225744 105.830658,37.6914212 106.094925,37.810969 C106.604034,38.0393907 107.133077,38.1525342 107.684612,38.1525342 C108.286751,38.1525342 108.809661,38.0111049 109.253853,37.7293136 C109.697535,37.4475223 110.029784,37.0461832 110.252136,36.5252962 C110.410083,36.1517093 110.4888,35.7589093 110.4888,35.3506321 C110.4888,34.7352811 110.314497,34.1946474 109.964868,33.7313996 C109.657154,33.3167181 109.156734,32.9372605 108.462077,32.5935605 L107.560402,32.1383181 C106.643392,31.6830758 106.184377,31.0826682 106.184377,30.3376291 C106.184377,30.1497682 106.218113,29.9629747 106.284051,29.7751139 C106.349479,29.587253 106.440976,29.4250095 106.556496,29.2867824 C106.83303,28.9473519 107.20975,28.7776367 107.687679,28.7776367 C108.01584,28.7776367 108.304641,28.861427 108.557662,29.0290074 C108.808128,29.1955204 109.03968,29.4527617 109.24772,29.801265 C109.362729,29.9928617 109.461382,30.201003 109.5447,30.4267562 C109.628018,30.6514421 109.727182,30.975929 109.842191,31.398616 L109.990426,31.398616 L109.944422,28.7445476 L109.797721,28.7445476 C109.746094,28.9719019 109.646419,29.0861128 109.49614,29.0861128 C109.436335,29.0861128 109.367841,29.0727704 109.290656,29.0487541 C109.215006,29.0236704 109.069838,28.9670987 108.855665,28.8774378 C108.56993,28.752553 108.340933,28.6698302 108.170719,28.6271346 C108.000505,28.5849726 107.813934,28.5641585 107.613562,28.5641585 C106.994555,28.5641585 106.458355,28.78244 106.006495,29.219003 C105.749896,29.4650367 105.550546,29.7585693 105.407423,30.1017356 C105.263278,30.4454356 105.192228,30.802478 105.192228,31.1717953 C105.192228,31.773804 105.376754,32.2834833 105.74274,32.7029681 C105.875129,32.8550714 106.049432,33.0039724 106.264628,33.1507387 C106.480846,33.297505 106.791627,33.4784279 107.197483,33.6935072 C107.658543,33.9379398 108.001527,34.1418115 108.224901,34.3008528 C108.449298,34.4614952 108.622579,34.6290756 108.747811,34.8025267 C108.867421,34.9727756 108.961985,35.1739789 109.031502,35.4114734 C109.102041,35.6479006 109.138333,35.8795245 109.138333,36.1068789 C109.138333,36.6331027 108.977319,37.0669973 108.657337,37.4106973 C108.337355,37.7543973 107.931499,37.9251799 107.440792,37.9251799" id="Fill-65"></path>
                    <polygon id="Fill-99" points="0.694851075 51.7360665 9.51042364 51.7360665 9.51042364 50.9370352 0.694851075 50.9370352"></polygon>
                    <polygon id="Fill-101" points="0.694851075 20.5738454 111.290216 20.5738454 111.290216 19.7748141 0.694851075 19.7748141"></polygon>
                    <polygon id="Fill-102" points="102.474643 51.7360665 111.290216 51.7360665 111.290216 50.9370352 102.474643 50.9370352"></polygon>
                </g>
                <g id="Group-36" transform="translate(35.000000, 0.000000)">
                    <path d="M32.6625399,39.4190504 C31.9681554,42.9127058 32.1996169,45.7144292 31.5816833,49.0987772 C31.0491636,45.8776059 30.9363327,42.9890642 30.9632223,39.7255297 C30.977458,37.9938691 31.0707808,35.5640003 31.1577765,34.6414243 C32.0082262,34.4013662 32.9546349,34.1780442 33.9121157,33.9761653 C33.6680003,34.9112934 33.0047234,37.6973268 32.6625399,39.4190504 M22.5815742,32.9568338 C22.3089874,27.802123 22.9379933,18.2667449 24.1395896,11.5770223 C25.2468086,5.41553204 28.0153835,0.657257006 28.0153835,0.657257006 L24.6035671,0.198060976 C24.6035671,0.198060976 23.1035489,3.12791993 21.6541464,7.11999658 C21.1748788,6.3323551 20.1525465,5.37421486 19.2288095,4.22779379 C18.0804652,2.80313549 17.9591983,2.17814773 16.3758751,0.504017328 L11.7281913,0.292724394 C11.7281913,0.292724394 15.9857122,5.57975477 18.2428573,9.26482906 C18.8692269,10.2878216 19.3332044,10.830698 19.790855,11.9216808 C19.4655435,13.6601405 19.2008654,15.3274719 18.9936572,16.3855055 C18.1790604,20.55488 17.5743079,23.5778333 17.1161301,26.7911595 C15.3461614,26.0913825 13.559848,25.7205738 11.2647411,25.1149371 C7.30775113,24.0699785 5.05166052,23.5605743 1.02876466,22.8027439 L0.874281246,26.0333292 C1.65566154,26.1813389 3.97765805,26.1870919 6.46204668,26.9538133 C7.91144913,27.3999342 8.7060106,27.7602828 10.0288737,28.4992851 C8.24150585,34.5127657 7.41372781,38.7830796 6.46204668,44.1825554 C5.62583268,48.9256634 5.26361388,54.4349698 5.26361388,54.4349698 L9.71937965,56.3271921 C9.71937965,56.3271921 10.080544,48.8995133 10.6468074,44.1825554 C11.0733504,40.6245707 11.0079717,38.5351765 12.0366309,35.1021893 C12.6819815,32.9495118 13.2134466,31.9108292 14.1651277,29.7466456 C14.1651277,29.7466456 16.064272,30.6472556 16.8525065,31.1048826 C16.6089183,35.7365911 16.1370321,40.4477959 15.9118976,46.799659 C15.7769223,50.634312 16.0658538,56.8800056 16.0658538,56.8800056 C16.0658538,56.8800056 18.5860952,57.4631532 20.394553,57.5259134 C21.6799815,57.5703686 24.9120067,57.2602283 24.9120067,57.2602283 C24.9120067,57.2602283 22.9569742,47.2232909 22.7365849,37.7192929 C23.4009163,37.3997385 24.3035634,36.8704601 25.3754569,36.4938984 C26.2617594,36.1821891 26.7795161,36.2522714 27.7058894,35.8809397 C27.6663458,37.062402 27.9094068,42.7636502 27.9399871,46.1401531 C27.9742582,49.9068157 29.405207,57.1551048 29.405207,57.1551048 L34.9934997,55.2555604 C34.9934997,55.2555604 34.8374345,52.443377 34.838489,50.644249 C34.8411252,47.0946323 34.8458704,45.0617223 35.4569499,41.5638829 C36.03534,38.2538012 37.3270956,34.4442524 37.7742012,33.2627902 C39.3121812,33.0164561 40.5680839,32.6487854 40.5680839,32.6487854 L40.6418985,29.5358757 C36.9949299,29.7727957 35.0209165,29.9867037 31.5052324,30.7262289 C27.8719722,31.4913813 25.5752836,31.7675265 22.5815742,32.9568338" id="Fill-69"></path>
                    <path d="M8.5877678,29.1928414 C8.5877678,29.1928414 6.42691539,27.6958925 4.09752998,28.0670789 C1.76970026,28.4377568 -0.000155568928,31.8511459 -0.000155568928,31.8511459 C-0.000155568928,31.8511459 2.04557583,33.8428404 4.6269829,33.1319931 C8.36530423,32.1028408 8.5877678,29.1928414 8.5877678,29.1928414" id="Fill-72"></path>
                    <path d="M17.0247188,9.14285545 C16.020782,6.75335384 14.8936731,5.44081803 12.6045846,3.99515655 C10.9926614,6.43510031 10.7991856,8.65403466 11.9656646,11.3014672 C13.0640896,13.7923732 17.446541,15.9806262 17.446541,15.9806262 C17.446541,15.9806262 18.0702754,11.6322013 17.0247188,9.14285545" id="Fill-75"></path>
                    <path d="M8.55681318,15.232786 C7.82157709,17.8352303 7.53288881,19.4546744 9.6812919,22.0783699 C11.8302356,24.7026103 16.0010785,25.5690019 16.0010785,25.5690019 C16.0010785,25.5690019 16.3805901,19.6344915 14.3062512,17.3922263 C12.2313718,15.1494162 10.9447086,15.0758546 8.55681318,15.232786" id="Fill-77"></path>
                    <path d="M6.4113255,16.7796575 C6.4113255,16.7796575 6.12058013,13.6580837 4.95511365,12.2868703 C3.9765194,11.1350511 3.1112413,10.6339592 1.67590347,10.387407 C1.43933117,12.1377675 1.76635759,13.3896986 2.81552592,14.7550544 C3.82244921,16.0666266 6.4113255,16.7796575 6.4113255,16.7796575" id="Fill-79"></path>
                    <path d="M10.4184039,13.5835323 C10.4184039,13.5835323 9.96981752,9.89136569 8.53659159,7.94692125 C7.10336566,6.00247682 5.79392299,5.29117047 3.55559441,4.79418786 C2.95816119,7.05287026 3.0108458,8.56400798 4.6271891,10.6901617 C6.69314182,13.4090707 10.4184039,13.5835323 10.4184039,13.5835323" id="Fill-81"></path>
                    <path d="M8.81557256,22.370333 C8.81557256,22.370333 7.60421762,18.6640987 5.76705856,17.3455612 C4.12526203,16.1675419 2.78670676,15.8181906 0.801415688,16.0464631 C0.809466341,18.0387098 1.35315379,19.3600243 2.736256,20.745766 C4.49559207,22.5086295 8.81557256,22.370333 8.81557256,22.370333" id="Fill-83"></path>
                    <path d="M9.78890808,7.19128179 C9.78890808,7.19128179 10.6670011,5.30759719 10.3490171,4.13771388 C9.99154494,2.82324396 9.22308362,2.02573462 7.90022865,1.59806262 C7.13072817,2.72025771 7.01278312,3.7836035 7.51833611,5.0407461 C7.96881343,6.16192654 9.78890808,7.19128179 9.78890808,7.19128179" id="Fill-85"></path>
                    <path d="M32.3967125,6.59093763 C33.8211994,5.75933141 34.4608746,2.40667133 34.4608746,2.40667133 C34.4608746,2.40667133 31.1700412,2.23292503 29.6616978,3.3654935 C28.1533544,4.49756697 27.2481334,7.9903131 27.2481334,7.9903131 C27.2481334,7.9903131 30.9733008,7.42254386 32.3967125,6.59093763" id="Fill-87"></path>
                    <path d="M33.1325349,15.8878834 C34.9916129,13.3679082 35.5524027,11.1509818 35.1283022,7.99992665 C31.8836211,7.87555719 29.5983637,8.95197762 27.5386695,11.5745983 C25.4950869,14.1765813 25.6478879,19.9757828 25.6478879,19.9757828 C25.6478879,19.9757828 31.1227349,18.6147789 33.1325349,15.8878834" id="Fill-89"></path>
                    <path d="M37.3137306,6.23493525 C38.3620756,5.82775204 39.1468762,4.61104408 39.2693687,4.25179327 C38.8753776,4.1404352 37.5799265,3.81023431 36.5989258,4.13317271 C35.4636163,4.50840099 34.4974632,6.17828788 34.4608746,6.17731955 C34.4985238,6.14536463 36.289778,6.63340347 37.3137306,6.23493525" id="Fill-91"></path>
                    <path d="M24.1613653,29.5626648 C24.8187332,29.6197728 30.0792891,28.0360465 32.3986208,25.3682885 C34.6169016,22.8147465 34.4572628,21.8275945 34.4588753,19.366343 C31.0645348,18.7468235 28.3469123,19.6406652 26.0845562,22.1202728 C24.0221516,24.3790969 23.8555253,27.9192811 24.1613653,29.5626648" id="Fill-93"></path>
                    <path d="M41.6674289,20.9320348 C39.2045809,20.6537575 38.1171751,20.4609436 35.6757242,22.9534536 C34.1751919,24.4844998 33.6567265,28.0359227 33.6594697,27.9650505 C33.7340848,27.967135 37.5323242,27.7268994 39.2418885,26.2891333 C41.0353948,24.7820585 41.7486277,23.2046327 41.6674289,20.9320348" id="Fill-95"></path>
                    <path d="M35.7143765,15.4012655 C34.6958009,17.2095968 35.7122882,20.7459614 35.7436129,20.7747167 C35.7498779,20.787738 38.6072148,19.493205 39.6592034,17.8823633 C40.7487818,16.2134683 41.0531537,14.8397225 40.7754078,12.8442102 C38.6014719,12.5349547 36.8227497,13.4328809 35.7143765,15.4012655" id="Fill-97"></path>
                </g>
            </g>
        </g>
    </g>
</svg>