<?xml version="1.0" encoding="UTF-8"?>
<svg width="155px" height="54px" viewBox="0 0 155 54" version="1.1" xmlns="http://www.w3.org/2000/svg" xmlns:xlink="http://www.w3.org/1999/xlink">
    <!-- Generator: sketchtool 52.5 (67469) - http://www.bohemiancoding.com/sketch -->
    <title>968CBC8F-5796-42ED-9C63-01F2F943337F</title>
    <desc>Created with sketchtool.</desc>
    <g id="Page-1" stroke="none" stroke-width="1" fill="none" fill-rule="evenodd">
        <g id="Home_updated" transform="translate(-40.000000, -13.000000)" fill="#8C886D">
            <g id="ic_Logo" transform="translate(40.000000, 13.000000)">
                <path d="M75.9027316,13.9967905 C75.6656987,13.9848289 75.472487,13.9527717 75.3255864,13.9006191 C75.1776898,13.8489449 75.0447323,13.7647351 74.9282077,13.6489466 C74.8002298,13.5211965 74.7120895,13.3594754 74.6637865,13.1633049 C74.6159816,12.9680913 74.5920791,12.6637877 74.5920791,12.2518295 L74.5920791,7.03608523 L80.4691007,14.1345884 L80.7509508,14.1345884 L80.7509508,7.82746593 C80.7509508,7.42412014 80.7738573,7.12316581 80.8216622,6.92555987 C80.8694672,6.72843239 80.9576076,6.56527591 81.0865814,6.43752582 C81.3201285,6.20547041 81.6448038,6.08920347 82.0601094,6.08920347 L82.0601094,5.95140562 L79.1843426,5.95140562 L79.1843426,6.08920347 C79.4203795,6.10116509 79.6135912,6.13322223 79.7614878,6.18537489 C79.9088864,6.23657062 80.040848,6.32125888 80.1568746,6.43752582 C80.2868443,6.56527591 80.3744867,6.72699699 80.4227897,6.92268908 C80.4700966,7.11885963 80.4944971,7.42220628 80.4944971,7.83416444 L80.4944971,12.1623566 L75.4281678,5.95140562 L73.0259689,5.95140562 L73.0259689,6.08920347 C73.2674835,6.10116509 73.4611931,6.13322223 73.6100857,6.18537489 C73.7574843,6.23657062 73.886956,6.32125888 73.9994969,6.43752582 C74.1284706,6.56527591 74.2161131,6.72843239 74.263918,6.92555987 C74.311723,7.12316581 74.3361234,7.42412014 74.3361234,7.82746593 L74.3361234,12.2518295 C74.3361234,12.6594815 74.311723,12.9628282 74.263918,13.1604341 C74.2161131,13.3575616 74.1284706,13.5211965 73.9994969,13.6489466 C73.8829723,13.7647351 73.7510107,13.8489449 73.6031141,13.9006191 C73.4557155,13.9527717 73.2630018,13.9848289 73.0259689,13.9967905 L73.0259689,14.1345884 L75.9027316,14.1345884 L75.9027316,13.9967905 Z" id="Fill-1"></path>
                <path d="M83.5799174,6.26290439 C83.7891355,6.37487169 84.0019257,6.58253754 84.2187981,6.88638042 L84.5132343,7.30601855 L86.1691192,9.63819214 C86.4206912,9.99419073 86.5875555,10.2898992 86.668181,10.5253177 C86.7401316,10.7296341 86.7773826,10.9157677 86.7773826,11.0827617 L86.7702386,12.2517194 C86.7702386,12.6641802 86.746255,12.9680231 86.7003291,13.1632481 C86.6533826,13.3594301 86.5635719,13.5211607 86.4319176,13.6489182 C86.3125102,13.765192 86.1762632,13.8489282 86.0221562,13.9010839 C85.8680492,13.9532396 85.6700575,13.9852986 85.4271603,13.9967824 L85.4271603,14.1345884 L89.5130371,14.1345884 L89.5130371,13.9967824 C89.0787819,13.9967824 88.7435227,13.8809872 88.5098107,13.6489182 C88.3730535,13.5173327 88.2822222,13.3579946 88.2383374,13.1723395 C88.1924115,12.9866843 88.1709794,12.679492 88.1709794,12.2517194 L88.1709794,10.7832252 C88.1709794,10.5076134 88.1888395,10.3119099 88.2276214,10.1956362 C88.2664033,10.0798409 88.3730535,9.89849218 88.5480823,9.64967596 L90.0054651,7.56392613 C90.3585845,7.05672384 90.6805763,6.67488664 90.9719508,6.41889302 C91.0944199,6.31553859 91.2163788,6.23993674 91.3352759,6.19400144 C91.4546833,6.14806614 91.6251196,6.11265767 91.8470949,6.08873304 L91.8470949,5.95140562 L88.9057943,5.95140562 L88.9057943,6.08873304 C89.2211523,6.08873304 89.4666009,6.15954996 89.6406091,6.29879135 C89.8161482,6.43898972 89.9028972,6.63660722 89.9028972,6.89260083 C89.9028972,7.11653543 89.8248231,7.34429797 89.6666338,7.57588845 L89.5007902,7.82183372 L88.0173827,9.99227676 L86.2849546,7.45052336 C86.1645266,7.27395954 86.0782879,7.12849775 86.0262385,7.01222401 C85.9726583,6.89642877 85.9451027,6.79259585 85.9451027,6.70024675 C85.9451027,6.44903807 86.0650204,6.27486671 86.303325,6.17868967 C86.4013003,6.13897477 86.6268476,6.10930822 86.9809876,6.08873304 L86.9809876,5.95140562 L82.8129544,5.95140562 L82.8129544,6.08873304 C83.0048227,6.09686741 83.1538268,6.11265767 83.2604771,6.13658231 C83.3661067,6.16050695 83.4727569,6.2030928 83.5799174,6.26290439" id="Fill-3"></path>
                <path d="M55.5137222,13.2262482 C55.3671402,13.0285886 55.263067,12.787722 55.1990596,12.5041451 C55.1350521,12.2200715 55.1032927,11.8461075 55.1032927,11.3827498 L55.1032927,7.5656353 L56.7342615,7.5656353 C57.9020313,7.5656353 58.7585586,7.79408607 59.3053094,8.25098762 C59.6023822,8.49831042 59.839845,8.85240912 60.0167206,9.31229046 C60.192619,9.77266844 60.2810568,10.2707905 60.2810568,10.808643 C60.2810568,11.7477744 59.9961991,12.4882529 59.427461,13.032065 C58.8597002,13.5753806 58.0867245,13.8470384 57.1085341,13.8470384 C56.3546142,13.8470384 55.8234988,13.6404394 55.5137222,13.2262482 Z M55.1032927,1.7754014 L55.9510251,1.7754014 C56.6013605,1.7754014 57.0860582,1.81264881 57.4051183,1.886647 C57.7241785,1.96064518 58.0075703,2.09970218 58.2572482,2.30381798 C58.5425945,2.53822834 58.7722396,2.86749544 58.9456949,3.29012937 C59.1186617,3.71325994 59.205145,4.15973221 59.205145,4.62855294 C59.205145,5.07353532 59.1215933,5.47978039 58.9544899,5.84679153 C58.7873864,6.21479593 58.5489464,6.51575499 58.2386812,6.75016535 C58.074998,6.8683638 57.8942135,6.96024074 57.6963279,7.02827934 C57.4989308,7.09631794 57.2394807,7.15541716 56.9170004,7.20458374 C56.5466366,7.25375032 56.1870221,7.27907856 55.8410886,7.27907856 L55.1032927,7.27907856 L55.1032927,1.7754014 Z M59.9478271,13.9855987 C60.4432741,13.8872656 60.8698277,13.7119544 61.2279763,13.4581754 C61.6232591,13.1741018 61.9315698,12.7986479 62.1533972,12.3318138 C62.374736,11.8664695 62.4861383,11.351462 62.4861383,10.789771 C62.4861383,10.2340397 62.3776677,9.71704564 62.1631694,9.23878891 C61.9467166,8.75953891 61.6442692,8.35925342 61.2558269,8.03793244 C60.9939338,7.82835369 60.7027242,7.66446509 60.3802439,7.54775654 C60.0587408,7.43005473 59.6058024,7.32178892 59.0228948,7.2224625 C59.4484711,7.06850654 59.7729059,6.92795965 59.9976649,6.80131846 C60.2229126,6.6751739 60.4232413,6.51575499 60.598651,6.32455163 C61.0921437,5.80557106 61.3379128,5.14157392 61.3379128,4.33256019 C61.3379128,3.83245165 61.2299308,3.38150968 61.0149439,2.98023093 C60.7975139,2.57845554 60.4940892,2.2546514 60.0983179,2.00683197 C59.6429365,1.72921462 59.0678466,1.56234622 58.375491,1.50672343 C58.1864003,1.49430762 57.7891631,1.48785141 57.1813365,1.48785141 L51.1934627,1.48785141 L51.1934627,1.70090659 C51.5389076,1.71977861 51.8218108,1.76944182 52.0407065,1.84939959 C52.2591137,1.92985399 52.4506475,2.05947498 52.6143307,2.23826254 C52.8092847,2.43641876 52.9397427,2.68622471 53.0066818,2.98867367 C53.0741095,3.29161927 53.1078234,3.76143325 53.1078234,4.397619 L53.1078234,11.2253174 C53.1078234,11.8615031 53.0741095,12.3308205 53.0066818,12.6332695 C52.9397427,12.9367117 52.8092847,13.1865176 52.6143307,13.3836806 C52.4506475,13.5575018 52.2605795,13.6851363 52.045104,13.7685705 C51.8296285,13.8520047 51.5447709,13.9026612 51.1934627,13.9215332 L51.1934627,14.1345884 L57.8561022,14.1345884 C58.7551384,14.1345884 59.4518914,14.0849251 59.9478271,13.9855987 Z" id="Fill-5"></path>
                <path d="M116.785946,3.81002421 C117.087267,3.36919692 117.469307,3.05743855 117.934074,2.87712168 C118.397336,2.69680482 119.101755,2.58386952 120.048333,2.53689223 C120.490037,2.51411536 120.904165,2.50225241 121.291721,2.50225241 L121.291721,11.3970936 C121.291721,11.9954609 121.256124,12.4372372 121.185932,12.7219481 C121.114237,13.0066589 120.984383,13.2424944 120.793363,13.4285055 C120.621896,13.5969594 120.426864,13.719385 120.209272,13.7943589 C119.990676,13.8698073 119.703895,13.91631 119.347925,13.9338672 L119.347925,14.1345884 L125.235464,14.1345884 L125.235464,13.9338672 C124.884508,13.91631 124.600234,13.8698073 124.38214,13.7943589 C124.164547,13.719385 123.970017,13.5969594 123.798048,13.4285055 C123.606527,13.2424944 123.476673,13.0057099 123.40598,12.7176774 C123.335789,12.4301194 123.299691,11.9892922 123.299691,11.3970936 L123.299691,2.50225241 C124.663406,2.50225241 125.631543,2.58054789 126.202098,2.73761337 C126.87844,2.91840475 127.392841,3.21592758 127.745803,3.63160541 C128.099266,4.04728324 128.357469,4.65988607 128.523923,5.46656679 L128.736502,5.44948413 L128.569547,2.23177711 L116.10459,2.23177711 L115.938136,5.44948413 L116.150214,5.46656679 C116.297615,4.76902522 116.509693,4.21716071 116.785946,3.81002421" id="Fill-7"></path>
                <path d="M132.243801,6.13704995 L132.506642,6.13704995 C132.964693,6.13704995 133.317198,6.16432244 133.565181,6.21838896 C133.814188,6.27245547 134.027331,6.36766996 134.207682,6.50307549 C134.439269,6.68249977 134.61962,6.91168439 134.74976,7.18967241 C134.881437,7.46718197 134.945995,7.76383012 134.945995,8.08009532 C134.945995,8.6709993 134.72158,9.16668879 134.271727,9.56668532 C134.070881,9.74228189 133.856714,9.85807036 133.626664,9.91405074 C133.397639,9.96955265 133.018491,9.99826053 132.487685,9.99826053 L132.243801,9.99826053 L132.243801,6.13704995 Z M133.591311,13.9967905 C133.343841,13.9848289 133.142483,13.9518148 132.990824,13.8977483 C132.839677,13.8432033 132.705951,13.7613858 132.59067,13.6489466 C132.456943,13.5211965 132.366768,13.3575616 132.317581,13.1604341 C132.26737,12.9628282 132.243801,12.6594815 132.243801,12.2518295 L132.243801,10.1298383 L132.558391,10.1298383 C132.750014,10.1298383 132.912433,10.1465846 133.045647,10.1805556 C133.17886,10.2145266 133.302852,10.2714639 133.418133,10.351846 C133.645109,10.5116532 133.894629,10.8092583 134.168742,11.2451397 C134.442856,11.6848488 134.714407,12.1901076 134.984934,12.7613945 L135.43325,13.7149748 C135.464504,13.7747829 135.532648,13.9154515 135.639219,14.1345884 L137.770642,14.1345884 L137.770642,13.9967905 C137.59439,13.9805227 137.456565,13.948944 137.356654,13.9006191 C137.255719,13.8527726 137.152222,13.766649 137.045139,13.6427266 C136.912437,13.4910533 136.749506,13.2465578 136.553784,12.9087616 C136.359087,12.5709655 136.071652,12.0365204 135.69148,11.3049478 C135.527525,10.9853333 135.405583,10.7623687 135.325142,10.6365325 C135.242652,10.5106963 135.154013,10.4059125 135.054615,10.3217027 C134.931136,10.2140481 134.74105,10.1102213 134.483845,10.0097437 C134.796385,9.94658634 135.045905,9.87816588 135.23138,9.8059177 C135.417367,9.73462645 135.587983,9.64228275 135.742204,9.530322 C136.247392,9.15520563 136.498962,8.65520996 136.498962,8.03177038 C136.498962,7.61215679 136.383168,7.24326047 136.149019,6.92555987 C135.915894,6.60785927 135.587983,6.36910535 135.16426,6.20929813 C134.787675,6.06958642 134.268141,5.98537662 133.603608,5.95810413 C133.441702,5.95379795 133.102006,5.95140562 132.583497,5.95140562 L129.489347,5.95140562 L129.489347,6.08920347 C129.733743,6.10116509 129.933052,6.13322223 130.08676,6.18537489 C130.240469,6.23657062 130.37522,6.32125888 130.490501,6.43752582 C130.627301,6.56527591 130.720039,6.72699699 130.766664,6.92268908 C130.813288,7.11885963 130.837882,7.42220628 130.837882,7.83416444 L130.837882,12.2518295 C130.837882,12.6637877 130.813288,12.9680913 130.766664,13.1633049 C130.720039,13.358997 130.627301,13.5211965 130.490501,13.6489466 C130.37522,13.7613858 130.242006,13.8432033 130.08881,13.8977483 C129.937151,13.9518148 129.736817,13.9848289 129.489347,13.9967905 L129.489347,14.1345884 L133.591311,14.1345884 L133.591311,13.9967905 Z" id="Fill-9"></path>
                <path d="M145.299093,11.7488236 L145.156078,11.7430817 C145.077345,12.1024297 144.99064,12.3919178 144.896459,12.6120245 C144.803275,12.8316526 144.680691,13.0273562 144.532195,13.1996136 C144.318919,13.4551287 144.045348,13.6441333 143.707494,13.7661489 C143.370139,13.8881646 142.952058,13.9494117 142.451756,13.9494117 C141.977864,13.9494117 141.596159,13.8819442 141.306642,13.7479662 C141.017125,13.6139883 140.801855,13.4034515 140.660834,13.1153988 C140.577118,12.9479264 140.521307,12.738825 140.492405,12.4890518 C140.463005,12.2392786 140.448554,11.8406942 140.448554,11.2932985 L140.448554,9.92002436 L140.803848,9.92002436 C141.1128,9.92002436 141.366439,9.9501694 141.565264,10.009981 C141.766083,10.0697926 141.928532,10.1640556 142.05261,10.2918132 C142.181672,10.4238772 142.283826,10.5836938 142.355084,10.7712629 C142.429332,10.9597891 142.483648,11.2071698 142.521021,11.5148406 L142.66553,11.5148406 L142.689947,8.30176193 L142.546435,8.29506303 C142.509061,8.60273386 142.46222,8.83623831 142.405413,8.99414092 C142.349603,9.15204352 142.263395,9.28889244 142.146791,9.40420919 C142.025702,9.5286173 141.869233,9.6142675 141.678879,9.66211677 C141.486532,9.70996605 141.201499,9.73436917 140.823282,9.73436917 L140.448554,9.73436917 L140.448554,6.1370608 L141.878701,6.1370608 C142.319206,6.1370608 142.673005,6.16624886 142.940099,6.22414648 C143.205697,6.2820441 143.436912,6.3810921 143.633246,6.52081198 C143.869445,6.68876293 144.050829,6.88303097 144.175905,7.10218065 C144.299983,7.3222873 144.390177,7.59981309 144.444493,7.93571499 L144.588006,7.92949458 L144.482863,5.95140562 L137.770642,5.95140562 L137.770642,6.08921153 C138.011325,6.10069536 138.206164,6.13275437 138.354162,6.18491008 C138.501661,6.23658729 138.632218,6.32080201 138.744338,6.43755424 C138.872403,6.5653118 138.961601,6.72799933 139.009438,6.92561683 C139.056778,7.12323433 139.081693,7.42612023 139.081693,7.83427453 L139.081693,12.2521979 C139.081693,12.6598737 139.056778,12.9632381 139.009438,13.1608556 C138.961601,13.3579946 138.872403,13.5216392 138.744338,13.6489182 C138.627734,13.765192 138.495183,13.8489282 138.348182,13.9010839 C138.200185,13.9532396 138.007339,13.9852986 137.770642,13.9972609 L137.770642,14.1345884 L145.218367,14.1345884 L145.299093,11.7488236 Z" id="Fill-11"></path>
                <path d="M103.757002,13.9967905 C103.519471,13.9848289 103.327753,13.9527717 103.179857,13.9006191 C103.03196,13.8489449 102.900497,13.7647351 102.783972,13.6489466 C102.6545,13.5211965 102.56636,13.3594754 102.519053,13.1633049 C102.471248,12.9680913 102.446848,12.6637877 102.446848,12.2518295 L102.446848,7.03608523 L108.324367,14.1345884 L108.605221,14.1345884 L108.605221,7.82746593 C108.605221,7.42412014 108.628626,7.12316581 108.675933,6.92555987 C108.725232,6.72843239 108.812874,6.56527591 108.94135,6.43752582 C109.174399,6.20547041 109.499572,6.08920347 109.915376,6.08920347 L109.915376,5.95140562 L107.039111,5.95140562 L107.039111,6.08920347 C107.276642,6.10116509 107.46836,6.13322223 107.615758,6.18537489 C107.764153,6.23657062 107.895617,6.32125888 108.011643,6.43752582 C108.140617,6.56527591 108.229255,6.72699699 108.27706,6.92268908 C108.324367,7.11885963 108.349266,7.42220628 108.349266,7.83416444 L108.349266,12.1623566 L103.283434,5.95140562 L100.881235,5.95140562 L100.881235,6.08920347 C101.12275,6.10116509 101.31646,6.13322223 101.464356,6.18537489 C101.612253,6.23657062 101.741725,6.32125888 101.854265,6.43752582 C101.983239,6.56527591 102.072375,6.72843239 102.119682,6.92555987 C102.167487,7.12316581 102.190892,7.42412014 102.190892,7.82746593 L102.190892,12.2518295 C102.190892,12.6594815 102.167487,12.9628282 102.119682,13.1604341 C102.072375,13.3575616 101.983239,13.5211965 101.854265,13.6489466 C101.738239,13.7647351 101.605281,13.8489449 101.457385,13.9006191 C101.310484,13.9527717 101.118268,13.9848289 100.881235,13.9967905 L100.881235,14.1345884 L103.757002,14.1345884 L103.757002,13.9967905 Z" id="Fill-13"></path>
                <path d="M153.580388,11.7488236 L153.436415,11.7430817 C153.357205,12.1024297 153.270522,12.3919178 153.177363,12.6120245 C153.084204,12.8316526 152.962151,13.0273562 152.811701,13.1996136 C152.599976,13.4551287 152.324982,13.6441333 151.988713,13.7661489 C151.651447,13.8881646 151.232978,13.9494117 150.733805,13.9494117 C150.258544,13.9494117 149.876941,13.8819442 149.5875,13.7479662 C149.299055,13.6139883 149.083843,13.4034515 148.941862,13.1153988 C148.859663,12.9479264 148.803369,12.738825 148.773977,12.4890518 C148.744086,12.2392786 148.729639,11.8406942 148.729639,11.2932985 L148.729639,9.92002436 L149.085836,9.92002436 C149.393709,9.92002436 149.647779,9.9501694 149.847548,10.009981 C150.046819,10.0697926 150.208726,10.1640556 150.334267,10.2918132 C150.463295,10.4238772 150.563927,10.5836938 150.637159,10.7712629 C150.709394,10.9597891 150.76519,11.2071698 150.802553,11.5148406 L150.94553,11.5148406 L150.970937,8.30176193 L150.826964,8.29506303 C150.789601,8.60273386 150.742772,8.83623831 150.687474,8.99414092 C150.63118,9.15204352 150.544,9.28889244 150.427426,9.40420919 C150.306369,9.5286173 150.151436,9.6142675 149.959638,9.66211677 C149.768338,9.70996605 149.482883,9.73436917 149.104766,9.73436917 L148.729639,9.73436917 L148.729639,6.1370608 L150.159905,6.1370608 C150.600792,6.1370608 150.953501,6.16624886 151.220026,6.22414648 C151.487547,6.2820441 151.717206,6.3810921 151.91299,6.52081198 C152.15062,6.68876293 152.331957,6.88303097 152.456501,7.10218065 C152.581543,7.3222873 152.671215,7.59981309 152.72452,7.93571499 L152.868991,7.92949458 L152.76288,5.95140562 L146.051938,5.95140562 L146.051938,6.08921153 C146.293055,6.10069536 146.488839,6.13275437 146.636299,6.18491008 C146.783262,6.23658729 146.913286,6.32080201 147.025376,6.43755424 C147.154902,6.5653118 147.243079,6.72799933 147.290904,6.92561683 C147.338231,7.12323433 147.36314,7.42612023 147.36314,7.83427453 L147.36314,12.2521979 C147.36314,12.6598737 147.338231,12.9632381 147.290904,13.1608556 C147.243079,13.3579946 147.154902,13.5216392 147.025376,13.6489182 C146.9093,13.765192 146.77828,13.8489282 146.629325,13.9010839 C146.481864,13.9532396 146.289568,13.9852986 146.051938,13.9972609 L146.051938,14.1345884 L153.499185,14.1345884 L153.580388,11.7488236 Z" id="Fill-15"></path>
                <path d="M67.8449211,7.49167373 L69.1432673,10.5970916 L66.6201035,10.5970916 L67.8449211,7.49167373 Z M66.7627192,13.9967824 C66.5110444,13.9771642 66.3047697,13.9130462 66.1443887,13.8049069 C66.0289143,13.7254771 65.9376205,13.6211657 65.8685333,13.4934081 C65.80142,13.365172 65.7668764,13.2268876 65.7668764,13.0795119 C65.7668764,12.8278247 65.8596506,12.4818745 66.0447057,12.0426181 L66.1996584,11.6708293 L66.5214075,10.8435153 L69.2419633,10.8435153 L69.8351264,12.2584183 L69.9402377,12.5101055 C70.0552186,12.7857173 70.1134492,13.005824 70.1134492,13.169947 C70.1134492,13.4450803 69.9856379,13.6608805 69.7305087,13.8168692 C69.5854255,13.9049118 69.3307898,13.9647234 68.9631471,13.9967824 L68.9631471,14.1345884 L73.0259689,14.1345884 L73.0259689,13.9967824 C72.7708397,13.9685514 72.5788759,13.9360139 72.451558,13.8982129 C72.3232532,13.8599335 72.2097528,13.8049069 72.1105633,13.7331329 C71.9704149,13.6293 71.8411231,13.4752254 71.720714,13.2713875 C71.6012918,13.0680281 71.4414042,12.7278197 71.2380904,12.2521979 L68.5496107,5.95140562 L68.1972659,5.95140562 L65.9341661,11.6047973 C65.727398,12.1206124 65.5620821,12.5067561 65.4362447,12.7651421 C65.3104073,13.0220927 65.181609,13.2335865 65.0498498,13.3977095 C64.8934166,13.6015474 64.7320486,13.7494017 64.5667327,13.8407938 C64.4019104,13.9326644 64.2109336,13.9852986 63.9918284,13.9967824 L63.9918284,14.1345884 L66.7627192,14.1345884 L66.7627192,13.9967824 Z" id="Fill-17"></path>
                <path d="M95.6992007,7.49167373 L96.9980403,10.5970916 L94.47537,10.5970916 L95.6992007,7.49167373 Z M94.6174922,13.9967824 C94.3663109,13.9771642 94.1595427,13.9130462 93.9991617,13.8049069 C93.8836873,13.7254771 93.7914065,13.6211657 93.7233063,13.4934081 C93.655206,13.365172 93.6221428,13.2268876 93.6221428,13.0795119 C93.6221428,12.8278247 93.7144236,12.4818745 93.8999722,12.0426181 L94.0544314,11.6708293 L94.3761805,10.8435153 L97.0962429,10.8435153 L97.6903929,12.2584183 L97.7959977,12.5101055 C97.911472,12.7857173 97.9687157,13.005824 97.9687157,13.169947 C97.9687157,13.4450803 97.8404109,13.6608805 97.5847882,13.8168692 C97.440692,13.9049118 97.1855628,13.9647234 96.818907,13.9967824 L96.818907,14.1345884 L100.881235,14.1345884 L100.881235,13.9967824 C100.625119,13.9685514 100.432662,13.9360139 100.305344,13.8982129 C100.178026,13.8599335 100.064032,13.8049069 99.9658297,13.7331329 C99.8261749,13.6293 99.6954026,13.4752254 99.5764739,13.2713875 C99.4565583,13.0680281 99.2961772,12.7278197 99.0943439,12.2521979 L96.4038903,5.95140562 L96.0520389,5.95140562 L93.7889391,11.6047973 C93.5826644,12.1206124 93.4168551,12.5067561 93.2910177,12.7651421 C93.1661672,13.0220927 93.0358885,13.2335865 92.9041293,13.3977095 C92.7481896,13.6015474 92.5863281,13.7494017 92.4224927,13.8407938 C92.2581638,13.9326644 92.0652131,13.9852986 91.8470949,13.9967824 L91.8470949,14.1345884 L94.6174922,14.1345884 L94.6174922,13.9967824 Z" id="Fill-19"></path>
                <path d="M68.5088986,46.2106264 C68.6877646,46.2188473 68.8344685,46.2389428 68.9473177,46.2718264 C69.0607311,46.3056234 69.1589099,46.3586025 69.244111,46.4321338 C69.3439825,46.5138861 69.411692,46.6166472 69.4466753,46.7408741 C69.4810943,46.8655577 69.4985859,47.0592054 69.4985859,47.3218173 L69.4985859,50.1329065 C69.4985859,50.3950617 69.4810943,50.5882527 69.4466753,50.7124795 C69.411692,50.8376198 69.3439825,50.9399243 69.244111,51.0212198 C69.1589099,51.0929243 69.0612953,51.1454467 68.9495747,51.1801571 C68.837854,51.2148675 68.69115,51.2349631 68.5088986,51.243184 L68.5088986,51.3308735 L71.5202788,51.3308735 L71.5202788,51.243184 C71.3064296,51.2322228 71.1360274,51.2029929 71.0068151,51.1536675 C70.8776028,51.1043422 70.772653,51.0276138 70.6908374,50.9262228 C70.6344128,50.8526915 70.5932228,50.7544974 70.5678318,50.6325542 C70.543005,50.5110676 70.5311558,50.3443662 70.5311558,50.1329065 L70.5311558,47.3218173 C70.5311558,47.1450681 70.5396195,46.9911547 70.5593681,46.8555099 C70.5875804,46.6746502 70.6626251,46.5339816 70.7850664,46.4321338 C70.8730888,46.3586025 70.9729603,46.3056234 71.084681,46.2718264 C71.1964017,46.2389428 71.3419771,46.2188473 71.5202788,46.2106264 L71.5202788,46.1233936 L68.5088986,46.1233936 L68.5088986,46.2106264 Z" id="Fill-21"></path>
                <path d="M77.2570909,50.3306647 C77.1917463,50.4763572 77.1081051,50.6065213 77.0066902,50.7202437 C76.8545679,50.8878586 76.660625,51.0125422 76.423816,51.0929243 C76.1864842,51.1714795 75.8942629,51.2121272 75.5481977,51.2121272 C75.2157241,51.2121272 74.9496407,51.1696526 74.7483792,51.0842467 C74.5486859,50.9992974 74.3976091,50.8650228 74.2946259,50.6818795 C74.2371226,50.5782049 74.1968703,50.4425602 74.1770055,50.2781423 C74.156618,50.112811 74.1461629,49.8611603 74.1461629,49.5231901 L74.1461629,47.3218173 C74.1461629,47.0541815 74.1634139,46.8577935 74.1994841,46.7294562 C74.2334633,46.6020323 74.2998535,46.4974443 74.3997001,46.4134085 C74.4781137,46.3467279 74.5685507,46.2987727 74.6710111,46.2686294 C74.772426,46.2380294 74.9025925,46.2188473 75.063079,46.2106264 L75.063079,46.1233936 L72.2731238,46.1233936 L72.2731238,46.2106264 C72.429951,46.2156503 72.559072,46.2339189 72.6599642,46.2640622 C72.7603335,46.2951189 72.8507705,46.3430741 72.9333662,46.4088413 C73.0321673,46.4905935 73.0985574,46.596095 73.1351504,46.7244323 C73.1717435,46.8523129 73.19004,47.0518979 73.19004,47.3218173 L73.19004,50.1329065 C73.19004,50.3927781 73.1733117,50.5850557 73.1393325,50.7106527 C73.1069216,50.8362497 73.0452362,50.9399243 72.9537537,51.0212198 C72.7943128,51.1664556 72.5669134,51.2390735 72.2731238,51.2390735 L72.2731238,51.3308735 L77.4865813,51.3308735 L77.5430391,49.7661632 L77.4384877,49.7583991 C77.3830754,49.9954349 77.3224356,50.1863423 77.2570909,50.3306647" id="Fill-23"></path>
                <path d="M64.9921904,46.2106264 C65.1604031,46.2188473 65.2944556,46.2389428 65.3964184,46.2718264 C65.4988987,46.3056234 65.591545,46.3586025 65.6712519,46.4321338 C65.7607928,46.5138861 65.8213494,46.6166472 65.8555095,46.7408741 C65.8886344,46.8655577 65.9046793,47.0592054 65.9046793,47.3218173 L65.9046793,48.5462739 L62.8354455,48.5462739 L62.8354455,47.3218173 C62.8354455,47.0624024 62.852008,46.8692114 62.8856505,46.7436144 C62.9182579,46.6175607 62.979332,46.5138861 63.0683553,46.4321338 C63.149615,46.3586025 63.2412262,46.3056234 63.3431889,46.2718264 C63.4451517,46.2389428 63.5786866,46.2188473 63.7432762,46.2106264 L63.7432762,46.1233936 L60.9804482,46.1233936 L60.9804482,46.2106264 C61.1450378,46.2188473 61.2785728,46.2389428 61.3826059,46.2718264 C61.4861213,46.3056234 61.5766974,46.3586025 61.6548515,46.4321338 C61.7469803,46.5138861 61.8090896,46.6166472 61.8411794,46.7408741 C61.8727516,46.8655577 61.8893141,47.0592054 61.8893141,47.3218173 L61.8893141,50.1329065 C61.8893141,50.3950617 61.8727516,50.5882527 61.8411794,50.7124795 C61.8090896,50.8376198 61.7469803,50.9399243 61.6548515,51.0212198 C61.5766974,51.0929243 61.4871565,51.1454467 61.3851937,51.1801571 C61.2821958,51.2148675 61.1476257,51.2349631 60.9804482,51.243184 L60.9804482,51.3308735 L63.7432762,51.3308735 L63.7432762,51.243184 C63.5755812,51.2349631 63.4410111,51.2148675 63.3395659,51.1801571 C63.236568,51.1454467 63.1465095,51.0929243 63.0683553,51.0212198 C62.979332,50.9399243 62.9182579,50.8362497 62.8856505,50.7106527 C62.852008,50.5850557 62.8354455,50.3927781 62.8354455,50.1329065 L62.8354455,48.7253067 L65.9046793,48.7253067 L65.9046793,50.1329065 C65.9046793,50.3950617 65.8886344,50.5882527 65.8555095,50.7124795 C65.8213494,50.8376198 65.7607928,50.9399243 65.6712519,51.0212198 C65.591545,51.0929243 65.4988987,51.1454467 65.3964184,51.1801571 C65.2944556,51.2148675 65.1604031,51.2349631 64.9921904,51.243184 L64.9921904,51.3308735 L67.7560536,51.3308735 L67.7560536,51.243184 C67.5909464,51.2349631 67.4574115,51.2148675 67.3554487,51.1801571 C67.2529684,51.1454467 67.1613572,51.0929243 67.0806151,51.0212198 C66.9915918,50.9380974 66.9305177,50.8330527 66.8968752,50.7092825 C66.8642678,50.5836855 66.8477053,50.3927781 66.8477053,50.1329065 L66.8477053,47.3218173 C66.8477053,47.0624024 66.8642678,46.8692114 66.8968752,46.7436144 C66.9305177,46.6175607 66.9915918,46.5138861 67.0806151,46.4321338 C67.1613572,46.3586025 67.2529684,46.3056234 67.3554487,46.2718264 C67.4574115,46.2389428 67.5909464,46.2188473 67.7560536,46.2106264 L67.7560536,46.1233936 L64.9921904,46.1233936 L64.9921904,46.2106264 Z" id="Fill-25"></path>
                <path d="M89.5885598,46.2106264 C89.7684531,46.2188473 89.9139467,46.2389428 90.0272964,46.2718264 C90.1406461,46.3056234 90.2398976,46.3586025 90.323923,46.4321338 C90.4254302,46.5138861 90.4925377,46.6166472 90.5258095,46.7408741 C90.5613371,46.8655577 90.5782549,47.0592054 90.5782549,47.3218173 L90.5782549,50.1329065 C90.5782549,50.3950617 90.5613371,50.5882527 90.5258095,50.7124795 C90.4925377,50.8376198 90.4254302,50.9399243 90.323923,51.0212198 C90.2398976,51.0929243 90.141774,51.1454467 90.0295521,51.1801571 C89.9178942,51.2148675 89.7712727,51.2349631 89.5885598,51.243184 L89.5885598,51.3308735 L92.5999399,51.3308735 L92.5999399,51.243184 C92.3862109,51.2322228 92.2142126,51.2029929 92.0862007,51.1536675 C91.9564971,51.1043422 91.8521702,51.0276138 91.7709645,50.9262228 C91.7145716,50.8526915 91.6728409,50.7544974 91.648028,50.6325542 C91.6220873,50.5110676 91.6102447,50.3443662 91.6102447,50.1329065 L91.6102447,47.3218173 C91.6102447,47.1450681 91.6203955,46.9911547 91.639569,46.8555099 C91.6666376,46.6746502 91.7422041,46.5339816 91.8634488,46.4321338 C91.9525496,46.3586025 92.0518011,46.3056234 92.163459,46.2718264 C92.2756808,46.2389428 92.4206105,46.2188473 92.5999399,46.2106264 L92.5999399,46.1233936 L89.5885598,46.1233936 L89.5885598,46.2106264 Z" id="Fill-27"></path>
                <path d="M83.2788342,50.3306647 C83.2140187,50.4763572 83.1298632,50.6065213 83.0279356,50.7202437 C82.8763511,50.8878586 82.681382,51.0125422 82.4451192,51.0929243 C82.2083337,51.1714795 81.9166641,51.2121272 81.5695877,51.2121272 C81.2381925,51.2121272 80.9710901,51.1696526 80.7698485,51.0842467 C80.5696524,50.9992974 80.4185906,50.8650228 80.3171857,50.6818795 C80.2586427,50.5782049 80.2194398,50.4425602 80.1980089,50.2781423 C80.1786688,50.112811 80.1682147,49.8611603 80.1682147,49.5231901 L80.1682147,47.3218173 C80.1682147,47.0541815 80.185464,46.8577935 80.2210079,46.7294562 C80.2549838,46.6020323 80.3213674,46.4974443 80.4206814,46.4134085 C80.4996099,46.3467279 80.5910833,46.2987727 80.6924882,46.2686294 C80.7928476,46.2380294 80.925092,46.2188473 81.0855626,46.2106264 L81.0855626,46.1233936 L78.2958842,46.1233936 L78.2958842,46.2106264 C78.4521731,46.2156503 78.5812813,46.2339189 78.6816407,46.2640622 C78.7809547,46.2951189 78.8734736,46.3430741 78.9544929,46.4088413 C79.0527615,46.4905935 79.1217586,46.596095 79.1578253,46.7244323 C79.1933692,46.8523129 79.2121866,47.0518979 79.2121866,47.3218173 L79.2121866,50.1329065 C79.2121866,50.3927781 79.1959828,50.5850557 79.1620069,50.7106527 C79.1285538,50.8362497 79.0663518,50.9399243 78.9759238,51.0212198 C78.815976,51.1664556 78.5891219,51.2390735 78.2958842,51.2390735 L78.2958842,51.3308735 L83.5083018,51.3308735 L83.5657994,49.7661632 L83.4607357,49.7583991 C83.4048062,49.9954349 83.3441724,50.1863423 83.2788342,50.3306647" id="Fill-29"></path>
                <path d="M124.590953,46.220682 C124.745835,46.2298506 124.87278,46.2522626 124.968846,46.2889368 C125.065892,46.3266297 125.153136,46.3857159 125.228126,46.4677234 C125.31439,46.5588995 125.372716,46.6735064 125.403594,46.8120533 C125.434963,46.9511096 125.450157,47.1670798 125.450157,47.459964 L125.450157,49.8381831 C125.450157,50.2716517 125.444765,50.5467081 125.433982,50.6633523 C125.417808,50.8416296 125.384479,50.9893451 125.333505,51.1049707 C125.283021,51.2221243 125.20411,51.3296001 125.098731,51.4284166 C124.926204,51.5883569 124.711035,51.7116229 124.453715,51.8017802 C124.195905,51.8904095 123.923391,51.9357429 123.641564,51.9357429 C123.348464,51.9357429 123.106338,51.8842972 122.914206,51.7849712 C122.721584,51.6836079 122.56033,51.5216302 122.429464,51.2964914 C122.34075,51.148776 122.284385,50.987817 122.254486,50.8146334 C122.226059,50.6399216 122.212335,50.356206 122.212335,49.9655241 L122.212335,47.5572524 C122.212335,47.2108851 122.226059,46.9668999 122.254486,46.8252968 C122.284385,46.6836937 122.34271,46.5645025 122.432405,46.4677234 C122.506905,46.3857159 122.593169,46.3266297 122.690215,46.2889368 C122.789712,46.2522626 122.916657,46.2298506 123.072519,46.220682 L123.072519,46.1233936 L120.455206,46.1233936 L120.455206,46.220682 C120.61401,46.2298506 120.741444,46.2522626 120.838491,46.2889368 C120.935047,46.3266297 121.02082,46.3857159 121.09434,46.4677234 C121.181094,46.5588995 121.2404,46.6735064 121.269808,46.8120533 C121.300197,46.9511096 121.31441,47.1670798 121.31441,47.459964 L121.31441,50.0419286 C121.31441,50.3679214 121.323233,50.5930602 121.339407,50.7178543 C121.38499,51.070334 121.528599,51.3535402 121.765333,51.569001 C122.131463,51.9072185 122.700508,52.0747992 123.472958,52.0747992 C124.21355,52.0747992 124.782595,51.8965219 125.180583,51.5389486 C125.355071,51.3830833 125.471723,51.210409 125.530049,51.0224538 C125.588865,50.8334798 125.618763,50.5405957 125.618763,50.1443107 L125.618763,47.459964 C125.618763,47.1706454 125.633467,46.9551845 125.665325,46.8151095 C125.696694,46.6745251 125.75502,46.5588995 125.839813,46.4677234 C125.915293,46.3857159 126.002537,46.3266297 126.100074,46.2889368 C126.19565,46.2522626 126.322594,46.2298506 126.477967,46.220682 L126.477967,46.1233936 L124.590953,46.1233936 L124.590953,46.220682 Z" id="Fill-31"></path>
                <path d="M135.758717,49.0797186 L136.573924,47.1039636 L137.438971,49.0797186 L135.758717,49.0797186 Z M139.418759,51.0751123 C139.325494,51.0093452 139.238644,50.9116079 139.159196,50.780987 C139.079254,50.6517363 138.971678,50.4352527 138.837455,50.1329065 L137.044691,46.1233936 L136.809308,46.1233936 L135.30078,49.721405 C135.162609,50.0488707 135.052566,50.2954975 134.968184,50.4585452 C134.884788,50.6229631 134.799418,50.756781 134.711581,50.8609124 C134.606473,50.9910765 134.500377,51.0851601 134.388854,51.1436198 C134.280291,51.2029929 134.15199,51.2349631 134.006417,51.243184 L134.006417,51.3308735 L135.852969,51.3308735 L135.852969,51.243184 C135.685684,51.2299392 135.548994,51.1897481 135.440925,51.1212407 C135.363944,51.0700885 135.302261,51.0043213 135.257355,50.9230258 C135.211956,50.8408168 135.189257,50.7531273 135.189257,50.6595004 C135.189257,50.4996497 135.25094,50.2790557 135.3748,49.9990886 L135.478428,49.7629662 L135.693086,49.2363723 L137.506576,49.2363723 L137.902336,50.1365602 L137.971422,50.2964109 C138.047909,50.4722467 138.086893,50.6124587 138.086893,50.7161333 C138.086893,50.8919691 138.001523,51.0298974 137.83177,51.1280914 C137.735051,51.1842675 137.564805,51.2230884 137.320539,51.243184 L137.320539,51.3308735 L140.029177,51.3308735 L140.029177,51.243184 C139.858438,51.2249153 139.730137,51.2048198 139.644767,51.1801571 C139.559891,51.1559511 139.48439,51.1212407 139.418759,51.0751123 Z" id="Fill-33"></path>
                <path d="M140.782022,46.2106264 C140.960324,46.2188473 141.106464,46.2389428 141.219877,46.2718264 C141.332162,46.3056234 141.432034,46.3586025 141.517799,46.4321338 C141.617671,46.5138861 141.68538,46.6166472 141.719799,46.7408741 C141.753654,46.8655577 141.77171,47.0592054 141.77171,47.3218173 L141.77171,50.1329065 C141.77171,50.3950617 141.753654,50.5882527 141.719799,50.7124795 C141.68538,50.8376198 141.617671,50.9399243 141.517799,51.0212198 C141.432034,51.0929243 141.333855,51.1454467 141.222134,51.1801571 C141.110414,51.2148675 140.964274,51.2349631 140.782022,51.243184 L140.782022,51.3308735 L143.793403,51.3308735 L143.793403,51.243184 C143.579553,51.2322228 143.409151,51.2029929 143.279375,51.1536675 C143.151291,51.1043422 143.045777,51.0276138 142.963961,50.9262228 C142.907537,50.8526915 142.866911,50.7544974 142.842084,50.6325542 C142.816693,50.5110676 142.803151,50.3443662 142.803151,50.1329065 L142.803151,47.3218173 C142.803151,47.1450681 142.812743,46.9911547 142.832492,46.8555099 C142.859576,46.6746502 142.935185,46.5339816 143.05819,46.4321338 C143.146213,46.3586025 143.244956,46.3056234 143.357241,46.2718264 C143.469526,46.2389428 143.613408,46.2188473 143.793403,46.2106264 L143.793403,46.1233936 L140.782022,46.1233936 L140.782022,46.2106264 Z" id="Fill-35"></path>
                <path d="M131.825487,50.8773541 C131.561253,51.1011452 131.199776,51.2121272 130.744113,51.2121272 C130.391801,51.2121272 130.144368,51.127178 130.000287,50.9572795 C129.930537,50.8750706 129.881661,50.7764198 129.852641,50.6595004 C129.823112,50.5421243 129.807839,50.3877542 129.807839,50.1977602 L129.807839,48.6257425 L130.569484,48.6257425 C131.113226,48.6257425 131.513904,48.7202828 131.767447,48.9079932 C131.907455,49.0102977 132.018444,49.1555335 132.100412,49.3455275 C132.18289,49.5346081 132.22362,49.7396737 132.22362,49.9616379 C132.22362,50.3480199 132.090739,50.6531064 131.825487,50.8773541 Z M129.807839,46.2416831 L130.203935,46.2416831 C130.507371,46.2416831 130.733421,46.2567548 130.882085,46.2878115 C131.030748,46.317498 131.16312,46.375501 131.279199,46.4590801 C131.413098,46.5554472 131.519505,46.691092 131.599437,46.8651009 C131.681405,47.0400233 131.721117,47.2236233 131.721117,47.417271 C131.721117,47.5995008 131.682933,47.7671157 131.605037,47.9187456 C131.526123,48.069462 131.416662,48.1932321 131.271053,48.2895993 C131.195194,48.3389246 131.110171,48.3768321 131.01802,48.4051485 C130.926378,48.4325515 130.804698,48.4563007 130.653998,48.4777664 C130.481915,48.4978619 130.314414,48.507453 130.153532,48.507453 L129.807839,48.507453 L129.807839,46.2416831 Z M132.678774,48.819847 C132.557603,48.7335276 132.419631,48.6663903 132.270459,48.6188918 C132.120777,48.5700231 131.908473,48.5257216 131.636603,48.4841604 C131.834651,48.4211336 131.986369,48.3631306 132.092266,48.3115216 C132.196636,48.2589993 132.290824,48.1932321 132.371774,48.1151336 C132.602406,47.9013904 132.716958,47.6278173 132.716958,47.2939576 C132.716958,47.088892 132.667064,46.902095 132.565749,46.7381338 C132.465452,46.5728025 132.322389,46.4385279 132.138596,46.3366801 C131.925274,46.2229577 131.657986,46.1535369 131.334694,46.1302443 C131.247634,46.1265906 131.061805,46.1233936 130.777206,46.1233936 L127.983657,46.1233936 L127.983657,46.2106264 C128.145557,46.219304 128.27742,46.2389428 128.379244,46.2718264 C128.481068,46.3056234 128.571183,46.3590592 128.647042,46.4321338 C128.737666,46.5138861 128.79876,46.6166472 128.829307,46.7408741 C128.861891,46.8660144 128.877165,47.0592054 128.877165,47.3218173 L128.877165,50.1329065 C128.877165,50.3950617 128.861891,50.5882527 128.829307,50.7124795 C128.79876,50.8376198 128.737666,50.9399243 128.647042,51.0212198 C128.571183,51.0929243 128.482596,51.1454467 128.381281,51.1801571 C128.280984,51.2148675 128.147594,51.2349631 127.983657,51.243184 L127.983657,51.3308735 L131.091843,51.3308735 C131.511359,51.3308735 131.837196,51.3103213 132.068338,51.2701302 C132.299479,51.2290257 132.499054,51.1568646 132.666046,51.0518198 C132.849839,50.9349004 132.99392,50.7814437 133.097272,50.5891661 C133.201133,50.3968885 133.253572,50.1854289 133.253572,49.953417 C133.253572,49.7241453 133.20266,49.512229 133.102363,49.3144708 C133.000539,49.1171693 132.859512,48.9522947 132.678774,48.819847 Z" id="Fill-37"></path>
                <path d="M98.9648797,49.806811 C98.8665407,50.0963692 98.7210392,50.3521303 98.5313855,50.5754646 C98.3387214,50.8070198 98.1194656,50.974178 97.8756251,51.0769392 C97.6317846,51.1806138 97.3377711,51.2313093 96.9935847,51.2313093 C96.5916994,51.2313093 96.3011981,51.1326586 96.1215789,50.933987 C96.0382918,50.8431004 95.9810947,50.7321183 95.9494857,50.6014975 C95.919382,50.4722467 95.9038283,50.2831662 95.9038283,50.033799 L95.9038283,46.2416831 L96.4110768,46.2416831 C96.7748307,46.2416831 97.0723562,46.270913 97.3081691,46.3293727 C97.7376495,46.4385279 98.1079258,46.6623189 98.4184963,47.000289 C98.6422677,47.2455457 98.812354,47.53008 98.9332708,47.8557187 C99.0541876,48.1813575 99.1138934,48.5238948 99.1138934,48.8856141 C99.1138934,49.2107962 99.0642221,49.5181663 98.9648797,49.806811 M98.8876134,46.596095 C98.4761952,46.3316562 97.9764727,46.179113 97.3879441,46.1384652 C97.2469581,46.1288742 96.9223391,46.1233936 96.4110768,46.1233936 L94.10563,46.1233936 L94.10563,46.2106264 C94.3715466,46.2238712 94.5727401,46.2823309 94.7092105,46.3869189 C94.8185875,46.4700413 94.8913383,46.5769129 94.9294697,46.7075338 C94.9676012,46.8363278 94.9866669,47.0423069 94.9866669,47.3218173 L94.9866669,50.1333632 C94.9866669,50.3932348 94.9696081,50.5850557 94.9379992,50.7106527 C94.9058885,50.8367064 94.8466844,50.940381 94.7593835,51.0216765 C94.6811137,51.0961213 94.5928093,51.148187 94.4954738,51.181984 C94.3976365,51.2148675 94.2676886,51.2349631 94.10563,51.243184 L94.10563,51.3308735 L97.2023042,51.3308735 C97.5635494,51.3308735 97.9167669,51.3011869 98.2624585,51.243184 C98.7265582,51.164172 99.1138934,50.9796586 99.4244639,50.6901004 C99.6442214,50.4832079 99.8173181,50.2251632 99.9422487,49.9136826 C100.065674,49.6017454 100.12839,49.2710827 100.12839,48.9198678 C100.12839,48.4398589 100.019013,47.9945605 99.800761,47.5862561 C99.5845156,47.1784084 99.2789624,46.8482024 98.8876134,46.596095" id="Fill-39"></path>
                <path d="M87.4760253,48.6245145 L86.8700041,48.3412562 C86.2547228,48.0589918 85.948111,47.6867805 85.948111,47.2236284 C85.948111,47.1083373 85.9697179,46.9925493 86.0139605,46.8747734 C86.0582032,46.7584885 86.1199371,46.6576088 86.19659,46.5716374 C86.3823062,46.3614299 86.6354152,46.2565747 86.9564316,46.2565747 C87.1766159,46.2565747 87.3700488,46.3082569 87.539817,46.4121182 C87.7080419,46.5154827 87.8628912,46.6759957 88.0023069,46.8906757 C88.0794743,47.0099423 88.1468672,47.1396448 88.2019132,47.2787892 C88.2585026,47.4194245 88.3243522,47.62019 88.4015195,47.8835705 L88.5002938,47.8835705 L88.4699413,46.2352061 L88.3716815,46.2352061 C88.3366989,46.3768352 88.2693061,46.4474013 88.1695029,46.4474013 C88.1298903,46.4474013 88.0841044,46.4389532 88.0326594,46.4245419 C87.9807001,46.4086396 87.8839836,46.3738535 87.7404522,46.3176988 C87.5475338,46.2406724 87.3947423,46.1899841 87.2800202,46.1621552 C87.1658124,46.1368111 87.0397724,46.1233936 86.90653,46.1233936 C86.490855,46.1233936 86.1317694,46.2595563 85.8277299,46.5298941 C85.6559039,46.681959 85.5211182,46.8653315 85.4254306,47.0775267 C85.3302575,47.2912128 85.2818993,47.5123531 85.2818993,47.7419413 C85.2818993,48.1161404 85.4048526,48.4321971 85.6512738,48.692099 C85.7397591,48.7865184 85.857568,48.879447 86.0016138,48.9703878 C86.146174,49.0623225 86.354526,49.174135 86.6271841,49.3063222 C86.9358536,49.459878 87.1658124,49.585108 87.3160316,49.6854907 C87.4677941,49.7838857 87.5845741,49.888244 87.666886,49.9965779 C87.7466256,50.1019301 87.8109318,50.227657 87.8582611,50.3737587 C87.905076,50.5203572 87.9292551,50.6639742 87.9292551,50.8056033 C87.9292551,51.1320958 87.8212208,51.4014396 87.6072099,51.6146287 C87.3916557,51.8273209 87.1200264,51.9346609 86.7902645,51.9346609 C86.3169712,51.9346609 85.9249608,51.7020909 85.6121757,51.2389388 C85.446523,50.9879819 85.3029917,50.6440964 85.183125,50.2077792 L85.0833218,50.2033067 L85.0714895,51.9177648 L85.1697493,51.9177648 C85.2217087,51.7850806 85.3168818,51.718987 85.4537253,51.718987 C85.4964246,51.718987 85.5355227,51.7244534 85.5694764,51.7348893 C85.6039445,51.746319 85.709921,51.7895531 85.8879205,51.8635978 C86.2290003,52.005227 86.5839703,52.0747992 86.9528304,52.0747992 C87.3571876,52.0747992 87.7080419,51.9883309 88.0064225,51.8124126 C88.3042886,51.6369912 88.5275596,51.3875252 88.6762354,51.0655052 C88.7827264,50.8334322 88.8357147,50.5909233 88.8357147,50.3364878 C88.8357147,49.9543376 88.7189347,49.6193971 88.483317,49.3311694 C88.2780517,49.0727583 87.9416019,48.8372067 87.4760253,48.6245145" id="Fill-41"></path>
                <path d="M105.870179,50.3616364 C105.80373,50.5018606 105.718444,50.6265551 105.614322,50.7357199 C105.465727,50.8987819 105.273703,51.0184521 105.037206,51.0965575 C104.801232,51.1746628 104.509273,51.2125736 104.159759,51.2125736 C103.825942,51.2125736 103.559097,51.1700952 103.357133,51.0846818 C103.153599,50.9992683 103.003956,50.8654387 102.904544,50.6822794 C102.845943,50.5753984 102.806178,50.442939 102.786295,50.2839878 C102.766413,50.1250366 102.755948,49.8706232 102.755948,49.5230316 L102.755948,48.6483431 L103.00448,48.6483431 C103.220048,48.6483431 103.398991,48.6679836 103.538168,48.7063511 C103.677869,48.7447187 103.791409,48.8036402 103.879311,48.8853996 C103.969828,48.9698996 104.040464,49.0712995 104.091217,49.1909697 C104.141969,49.3106399 104.180688,49.4686776 104.207372,49.6637126 L104.307308,49.6637126 L104.324575,47.6188141 L104.223069,47.61516 C104.197954,47.8111085 104.165514,47.9595544 104.125226,48.0591273 C104.087554,48.1600704 104.025813,48.2473109 103.945237,48.3208487 C103.860475,48.4003243 103.750074,48.4542216 103.616652,48.4843675 C103.48323,48.5154269 103.282835,48.5300431 103.018607,48.5300431 L102.755948,48.5300431 L102.755948,46.2416935 L103.757399,46.2416935 C104.065055,46.2416935 104.313587,46.2599637 104.499855,46.296961 C104.686123,46.3335015 104.846752,46.3965339 104.984884,46.4865149 C105.151269,46.5929392 105.278412,46.7162634 105.365268,46.8551174 C105.453169,46.9962551 105.51491,47.1721063 105.553105,47.3854116 L105.654088,47.382671 L105.579266,46.1233936 L100.881235,46.1233936 L100.881235,46.2106341 C101.050237,46.2188557 101.186798,46.2389529 101.288827,46.2718394 C101.392426,46.3056394 101.48399,46.3586231 101.562473,46.4321609 C101.652991,46.5139203 101.714208,46.617604 101.748218,46.7436688 C101.782228,46.8692768 101.799494,47.062028 101.799494,47.3219224 L101.799494,50.1332582 C101.799494,50.3931526 101.782228,50.585447 101.748218,50.711055 C101.714208,50.836663 101.652991,50.9403468 101.562473,51.0216494 C101.481374,51.0965575 101.387716,51.1486277 101.285688,51.1824277 C101.182089,51.2148574 101.047621,51.2354114 100.881235,51.243633 L100.881235,51.3308735 L106.095166,51.3308735 L106.151151,49.8121584 L106.051215,49.8089611 C105.996276,50.0368826 105.935582,50.2223257 105.870179,50.3616364" id="Fill-43"></path>
                <path d="M117.786314,49.806811 C117.686955,50.0963692 117.542432,50.3521303 117.352747,50.5754646 C117.160553,50.8070198 116.94126,50.974178 116.696877,51.0769392 C116.451993,51.1806138 116.157428,51.2313093 115.815192,51.2313093 C115.412738,51.2313093 115.121686,51.1326586 114.942539,50.933987 C114.859238,50.8431004 114.802031,50.7321183 114.770417,50.6014975 C114.739305,50.4722467 114.723247,50.2831662 114.723247,50.033799 L114.723247,46.2416831 L115.232587,46.2416831 C115.594394,46.2416831 115.893475,46.270913 116.128825,46.3293727 C116.558879,46.4385279 116.929217,46.6623189 117.239839,47.000289 C117.463648,47.2455457 117.634264,47.53008 117.754699,47.8557187 C117.875636,48.1813575 117.935352,48.5238948 117.935352,48.8856141 C117.935352,49.2107962 117.885673,49.5181663 117.786314,49.806811 M117.709536,46.596095 C117.297548,46.3316562 116.796738,46.179113 116.208112,46.1384652 C116.068106,46.1288742 115.743433,46.1233936 115.232587,46.1233936 L112.926756,46.1233936 L112.926756,46.2106264 C113.191713,46.2238712 113.393442,46.2823309 113.529935,46.3869189 C113.638327,46.4700413 113.712093,46.5769129 113.750231,46.7075338 C113.787365,46.8363278 113.805932,47.0423069 113.805932,47.3218173 L113.805932,50.1333632 C113.805932,50.3932348 113.790376,50.5850557 113.757758,50.7106527 C113.726646,50.8367064 113.666428,50.940381 113.580117,51.0216765 C113.501834,51.0961213 113.413515,51.148187 113.315159,51.181984 C113.218309,51.2148675 113.08834,51.2349631 112.926756,51.243184 L112.926756,51.3308735 L116.023444,51.3308735 C116.385252,51.3308735 116.737524,51.3011869 117.083775,51.243184 C117.547952,51.164172 117.935352,50.9796586 118.245974,50.6901004 C118.465769,50.4832079 118.638894,50.2251632 118.763344,49.9136826 C118.887291,49.6017454 118.949516,49.2710827 118.949516,48.9198678 C118.949516,48.4398589 118.840623,47.9945605 118.622836,47.5862561 C118.404547,47.1784084 118.100449,46.8482024 117.709536,46.596095" id="Fill-45"></path>
                <path d="M144.143667,34.1858699 C144.050994,34.404541 143.928426,34.60168 143.777957,34.7739374 C143.566204,35.0294525 143.29217,35.2184572 142.953863,35.3395158 C142.617549,35.462967 142.199025,35.5227786 141.699786,35.5227786 C141.224462,35.5227786 140.842808,35.4557896 140.554325,35.3218116 C140.264846,35.1883121 140.050104,34.9772968 139.908603,34.6897227 C139.823901,34.5222502 139.768596,34.3121919 139.740197,34.0628972 C139.709804,33.812167 139.695853,33.4150181 139.695853,32.8671439 L139.695853,31.4943482 L140.052097,31.4943482 C140.360011,31.4943482 140.613118,31.5240148 140.812914,31.5838264 C141.012709,31.643638 141.174638,31.7374225 141.300693,31.8661371 C141.428742,31.9972441 141.529885,32.1570607 141.603625,32.3460653 C141.675372,32.5336344 141.731175,32.7805367 141.768543,33.0891645 L141.911539,33.0891645 L141.935953,29.8756073 L141.792957,29.8689084 C141.756586,30.1770577 141.709253,30.4105622 141.652951,30.5679863 C141.596151,30.7263674 141.510454,30.8622593 141.394363,30.9785331 C141.272792,31.1024627 141.11734,31.1885914 140.926513,31.2364406 C140.734689,31.2847684 140.449196,31.3077361 140.070532,31.3077361 L139.695853,31.3077361 L139.695853,27.7109062 L141.124315,27.7109062 C141.566755,27.7109062 141.920508,27.7391373 142.186569,27.7979919 C142.453129,27.8558895 142.683816,27.954459 142.879625,28.0941789 C143.117287,28.2626083 143.298149,28.4568764 143.422212,28.676026 C143.547769,28.8961327 143.635958,29.1736585 143.691761,29.5100389 L143.834757,29.50334 L143.728133,27.525251 L137.017797,27.525251 L137.017797,27.6625784 C137.258947,27.6750192 137.453262,27.7080352 137.60124,27.7587555 C137.749218,27.8104327 137.878263,27.8956044 137.991862,28.0109211 C138.120409,28.1391572 138.209594,28.3013662 138.256927,28.4994622 C138.304759,28.6961227 138.328176,29.0004441 138.328176,29.4071629 L138.328176,33.8265218 C138.328176,34.2332406 138.304759,34.5361265 138.256927,34.7342225 C138.209594,34.932797 138.120409,35.095963 137.991862,35.2227636 C137.874775,35.3395158 137.742242,35.4232521 137.595759,35.4739723 C137.447283,35.5275635 137.254961,35.558187 137.017797,35.5711063 L137.017797,35.7084337 L144.465532,35.7084337 L144.546248,33.3221905 L144.403252,33.3169271 C144.323533,33.6757966 144.237835,33.9662417 144.143667,34.1858699" id="Fill-47"></path>
                <path d="M99.1367221,33.3135776 C98.9877084,33.7662317 98.7709613,34.1696011 98.485979,34.5222502 C98.1969828,34.8854262 97.8688517,35.1481187 97.5020875,35.3103278 C97.1363267,35.4715798 96.6943031,35.5529236 96.1795287,35.5529236 C95.5749447,35.5529236 95.1384401,35.3974135 94.8720217,35.0849577 C94.7455859,34.9414099 94.6592884,34.7672385 94.6131293,34.5638791 C94.567472,34.3590842 94.5438907,34.0619402 94.5438907,33.6705332 L94.5438907,27.7109062 L95.3050142,27.7109062 C95.8498924,27.7109062 96.2989403,27.7568415 96.6496492,27.8491906 C97.2958767,28.0209695 97.8512912,28.3726616 98.3163944,28.9042671 C98.6515497,29.2880182 98.9094386,29.7354089 99.0895595,30.2469177 C99.2696804,30.7589049 99.3594899,31.2981662 99.3594899,31.8661371 C99.3594899,32.3766888 99.2847322,32.8599665 99.1367221,33.3135776 M99.0203208,28.2683502 C98.4041971,27.8520615 97.6546133,27.6128152 96.7690608,27.5486971 C96.5603413,27.5329069 96.0716568,27.525251 95.3050142,27.525251 L91.8470949,27.525251 L91.8470949,27.6625784 C92.2454681,27.6826751 92.5470075,27.7745457 92.7527165,27.9386687 C92.9157786,28.0712112 93.0251556,28.2386837 93.0828545,28.4420431 C93.1390482,28.646838 93.1671451,28.9683851 93.1671451,29.4071629 L93.1671451,33.8260433 C93.1671451,34.2332406 93.1425603,34.5361265 93.094896,34.7342225 C93.04673,34.932797 92.9584256,35.095963 92.8274742,35.2227636 C92.7100695,35.3395158 92.5786164,35.4232521 92.4316097,35.4739723 C92.2856064,35.527085 92.0899319,35.558187 91.8470949,35.5711063 L91.8470949,35.7084337 L96.4936113,35.7084337 C97.0344757,35.7084337 97.564302,35.6629769 98.0835919,35.5711063 C98.7804941,35.4462197 99.3594899,35.1576886 99.8250949,34.7012065 C100.155735,34.3777454 100.414627,33.9710266 100.60127,33.4810501 C100.787914,32.991552 100.881235,32.4699949 100.881235,31.9197283 C100.881235,31.1637098 100.71717,30.4660673 100.390042,29.8239301 C100.06442,29.1827498 99.6068425,28.6650207 99.0203208,28.2683502" id="Fill-49"></path>
                <path d="M85.4912622,34.737572 C85.4475359,34.9332755 85.3629043,35.095963 85.2383078,35.2227636 C85.1320481,35.3347309 85.0093323,35.4175102 84.8696902,35.4715798 C84.7305182,35.5266065 84.5462094,35.558187 84.3186445,35.5711063 L84.3186445,35.7084337 L88.0828697,35.7084337 L88.0828697,35.5711063 C87.8153398,35.5553161 87.6023503,35.5084238 87.4410801,35.429951 C87.2793397,35.3514782 87.1486309,35.2337689 87.0461327,35.0729954 C86.9756063,34.9572001 86.9243572,34.8040825 86.8933256,34.6112499 C86.8613537,34.4203313 86.8463081,34.1576388 86.8463081,33.8260433 L86.8463081,29.4071629 C86.8463081,29.1325081 86.8575923,28.8884768 86.8815712,28.676026 C86.9173046,28.3927583 87.0103993,28.1702592 87.1646169,28.0104426 C87.274638,27.8956044 87.3987643,27.8104327 87.5379362,27.7587555 C87.6780486,27.7075567 87.8595363,27.6745407 88.0828697,27.6625784 L88.0828697,27.525251 L84.3186445,27.525251 L84.3186445,27.6625784 C84.5419778,27.6745407 84.7253463,27.7075567 84.866399,27.7587555 C85.0079218,27.8104327 85.1320481,27.8956044 85.2383078,28.0104426 C85.3629043,28.1391572 85.4475359,28.3013662 85.4912622,28.4961128 C85.5349885,28.6927733 85.5561464,28.9961377 85.5561464,29.4071629 L85.5561464,33.8260433 C85.5561464,34.2380256 85.5349885,34.54139 85.4912622,34.737572" id="Fill-51"></path>
                <path d="M111.018512,34.1858699 C110.925347,34.404541 110.803784,34.60168 110.654819,34.7739374 C110.441585,35.0294525 110.167071,35.2184572 109.83078,35.3395158 C109.492993,35.462967 109.073999,35.5227786 108.575291,35.5227786 C108.101493,35.5227786 107.719366,35.4557896 107.429906,35.3218116 C107.139948,35.1883121 106.925219,34.9772968 106.783728,34.6897227 C106.701025,34.5222502 106.644229,34.3121919 106.614835,34.0628972 C106.586437,33.812167 106.571989,33.4150181 106.571989,32.8671439 L106.571989,31.4943482 L106.926714,31.4943482 C107.235106,31.4943482 107.489691,31.5240148 107.688477,31.5838264 C107.889256,31.643638 108.051174,31.7374225 108.175726,31.8661371 C108.304265,31.9972441 108.406398,32.1570607 108.478638,32.3460653 C108.551875,32.5336344 108.605682,32.7805367 108.644044,33.0891645 L108.788525,33.0891645 L108.812937,29.8756073 L108.669452,29.8689084 C108.631588,30.1770577 108.584757,30.4105622 108.528957,30.5679863 C108.473158,30.7263674 108.386469,30.8622593 108.26939,30.9785331 C108.149321,31.1024627 107.992385,31.1885914 107.801072,31.2364406 C107.60976,31.2847684 107.324286,31.3077361 106.945646,31.3077361 L106.571989,31.3077361 L106.571989,27.7109062 L108.001353,27.7109062 C108.44177,27.7109062 108.7955,27.7391373 109.062042,27.7979919 C109.328584,27.8558895 109.559255,27.954459 109.756048,28.0941789 C109.9922,28.2626083 110.17305,28.4568764 110.298599,28.676026 C110.422653,28.8961327 110.512829,29.1736585 110.567134,29.5100389 L110.709622,29.50334 L110.6045,27.525251 L103.892616,27.525251 L103.892616,27.6625784 C104.135244,27.6750192 104.330542,27.7080352 104.47851,27.7587555 C104.624984,27.8104327 104.755515,27.8956044 104.867114,28.0109211 C104.996151,28.1391572 105.08533,28.3013662 105.13266,28.4994622 C105.180488,28.6961227 105.2049,29.0004441 105.2049,29.4071629 L105.2049,33.8265218 C105.2049,34.2332406 105.180488,34.5361265 105.13266,34.7342225 C105.08533,34.932797 104.996151,35.095963 104.867114,35.2227636 C104.751031,35.3395158 104.619006,35.4232521 104.471037,35.4739723 C104.323567,35.5275635 104.130262,35.558187 103.892616,35.5711063 L103.892616,35.7084337 L111.340356,35.7084337 L111.421066,33.3221905 L111.27808,33.3169271 C111.199861,33.6757966 111.112674,33.9662417 111.018512,34.1858699" id="Fill-53"></path>
                <path d="M115.669829,34.7342225 C115.622027,34.932797 115.533393,35.095963 115.404427,35.2227636 C115.287908,35.3395158 115.156452,35.4232521 115.009062,35.4739723 C114.861173,35.527085 114.66847,35.558187 114.432446,35.5711063 L114.432446,35.7084337 L117.307058,35.7084337 L117.307058,35.5711063 C117.070537,35.558187 116.877336,35.527085 116.729945,35.4739723 C116.583053,35.4232521 116.4506,35.3395158 116.334082,35.2227636 C116.205613,35.095963 116.116482,34.9332755 116.069178,34.737572 C116.021375,34.54139 115.996976,34.2380256 115.996976,33.8260433 L115.996976,28.609994 L121.87467,35.7084337 L122.15501,35.7084337 L122.15501,29.400464 C122.15501,28.9980516 122.17941,28.6961227 122.226714,28.4994622 C122.275014,28.3013662 122.363648,28.1391572 122.492116,28.0104426 C122.725153,27.7788522 123.049312,27.6625784 123.466587,27.6625784 L123.466587,27.525251 L120.588986,27.525251 L120.588986,27.6625784 C120.826504,27.6745407 121.018211,27.7075567 121.165602,27.7587555 C121.314486,27.8104327 121.445943,27.8956044 121.562959,28.0104426 C121.691925,28.1391572 121.780061,28.3013662 121.827863,28.4961128 C121.875666,28.6927733 121.899069,28.9961377 121.899069,29.4071629 L121.899069,33.7356082 L116.833517,27.525251 L114.432446,27.525251 L114.432446,27.6625784 C114.672951,27.6745407 114.867148,27.7075567 115.015037,27.7587555 C115.162925,27.8104327 115.292888,27.8956044 115.404427,28.0104426 C115.533393,28.1391572 115.622027,28.3013662 115.669829,28.4994622 C115.717631,28.6961227 115.741533,28.9980516 115.741533,29.400464 L115.741533,33.8260433 C115.741533,34.2332406 115.717631,34.5361265 115.669829,34.7342225" id="Fill-55"></path>
                <path d="M80.3302186,34.9373448 C80.4790456,34.5895224 80.5544193,34.2238121 80.5544193,33.843692 C80.5544193,33.2707789 80.3897494,32.7674303 80.0608898,32.3361307 C79.7737978,31.9500479 79.3013921,31.5967598 78.649434,31.2767632 L77.8025604,30.8529169 C76.9417644,30.4290705 76.5111263,29.8700704 76.5111263,29.1764133 C76.5111263,29.0015083 76.5428121,28.8275972 76.6042632,28.6526922 C76.6661945,28.4777873 76.7516499,28.326733 76.8596695,28.1980388 C77.1189165,27.8820173 77.474661,27.7240066 77.9221021,27.7240066 C78.230318,27.7240066 78.5025273,27.8020182 78.7392102,27.9580414 C78.9758931,28.1130707 79.1914522,28.3525713 79.3873277,28.6770398 C79.4953473,28.855423 79.5894444,29.0492097 79.6662583,29.2593937 C79.7445125,29.468584 79.8376493,29.7706926 79.9451888,30.1642287 L80.0844141,30.1642287 L80.0421664,27.6931995 L79.9039014,27.6931995 C79.8558927,27.9048742 79.7617956,28.0112085 79.6216102,28.0112085 C79.5649599,28.0112085 79.5006283,27.9987863 79.4281351,27.9764262 C79.3566021,27.9530725 79.2207375,27.9004022 79.0195811,27.8169249 C78.7512124,27.7006528 78.5361334,27.623635 78.3757844,27.5838839 C78.2154353,27.5446297 78.0411637,27.525251 77.8524895,27.525251 C77.270624,27.525251 76.768453,27.7284786 76.3426158,28.1349339 C76.1025723,28.3639997 75.9148583,28.6372887 75.7804339,28.9567883 C75.6460095,29.2767849 75.5787973,29.6092036 75.5787973,29.9530508 C75.5787973,30.5140386 75.7516287,30.9880707 76.0963312,31.3786255 C76.2206737,31.5202389 76.3839033,31.6588709 76.5865,31.7955154 C76.7890967,31.9321599 77.0805096,32.1006053 77.4612186,32.3008515 C77.8942571,32.5284267 78.2168755,32.7182383 78.4271537,32.8663113 C78.6379119,33.0158749 78.8016215,33.171898 78.9178026,33.333387 C79.0296629,33.4918946 79.118479,33.6792217 79.1856912,33.9003373 C79.2514631,34.1204592 79.2845891,34.336109 79.2845891,34.5477838 C79.2845891,35.0377164 79.1338418,35.4416871 78.8333073,35.7616837 C78.5318126,36.0816802 78.1525439,36.2406847 77.6902201,36.2406847 C77.0286602,36.2406847 76.4789605,35.8938562 76.0420813,35.1982115 C75.8097192,34.8210727 75.6090428,34.3053019 75.4405323,33.6513959 L75.3027473,33.6454333 L75.284504,36.2163371 L75.4227691,36.2163371 C75.4947821,36.0160909 75.626806,35.9182037 75.819801,35.9182037 C75.8793318,35.9182037 75.9335817,35.9251602 75.9820704,35.9420544 C76.0300791,35.9589486 76.178426,36.0230473 76.4271111,36.1343505 C76.9047977,36.347019 77.4016878,36.4523594 77.9192216,36.4523594 C78.4847641,36.4523594 78.9758931,36.3206838 79.3926087,36.0583264 C79.8098043,35.795969 80.1218609,35.4223085 80.3302186,34.9373448" id="Fill-57"></path>
                <path d="M71.8705702,34.1858699 C71.7764085,34.404541 71.6548453,34.60168 71.5048841,34.7739374 C71.2931449,35.0294525 71.0186312,35.2184572 70.6813431,35.3395158 C70.3440549,35.462967 69.9255586,35.5227786 69.4263522,35.5227786 C68.9520564,35.5227786 68.5704276,35.4557896 68.2809676,35.3218116 C67.9915076,35.1883121 67.7762809,34.9772968 67.6352875,34.6897227 C67.5515882,34.5222502 67.4952905,34.3121919 67.4663943,34.0628972 C67.4369999,33.812167 67.4225519,33.4150181 67.4225519,32.8671439 L67.4225519,31.4943482 L67.778772,31.4943482 C68.0866657,31.4943482 68.3402546,31.5240148 68.5400368,31.5838264 C68.7403172,31.643638 68.9022354,31.7374225 69.0272861,31.8661371 C69.1558242,31.9972441 69.2564626,32.1570607 69.3296995,32.3460653 C69.4029364,32.5336344 69.4577395,32.7805367 69.4951052,33.0891645 L69.6390879,33.0891645 L69.6635002,29.8756073 L69.5200157,29.8689084 C69.48265,30.1770577 69.4358182,30.4105622 69.3800187,30.5679863 C69.323721,30.7263674 69.2375307,30.8622593 69.1209495,30.9785331 C68.9998845,31.1024627 68.8434466,31.1885914 68.6526322,31.2364406 C68.4613196,31.2847684 68.1758453,31.3077361 67.7977039,31.3077361 L67.4225519,31.3077361 L67.4225519,27.7109062 L68.8519162,27.7109062 C69.2933302,27.7109062 69.6470592,27.7391373 69.9136016,27.7979919 C70.1801439,27.8558895 70.4108151,27.954459 70.6061134,28.0941789 C70.8432613,28.2626083 71.0251079,28.4568764 71.1491622,28.676026 C71.2742129,28.8961327 71.3633925,29.1736585 71.4176974,29.5100389 L71.5611818,29.50334 L71.4555613,27.525251 L64.7446734,27.525251 L64.7446734,27.6625784 C64.9863053,27.6750192 65.1806071,27.7080352 65.3280773,27.7587555 C65.4760456,27.8104327 65.6060784,27.8956044 65.7181757,28.0109211 C65.8477102,28.1391572 65.9363916,28.3013662 65.9837216,28.4994622 C66.0315497,28.6961227 66.0554638,29.0004441 66.0554638,29.4071629 L66.0554638,33.8265218 C66.0554638,34.2332406 66.0315497,34.5361265 65.9837216,34.7342225 C65.9363916,34.932797 65.8477102,35.095963 65.7181757,35.2227636 C65.6020927,35.3395158 65.4695689,35.4232521 65.3220988,35.4739723 C65.1741304,35.5275635 64.9823196,35.558187 64.7446734,35.5711063 L64.7446734,35.7084337 L72.1919156,35.7084337 L72.2731238,33.3221905 L72.1296394,33.3169271 C72.050424,33.6757966 71.9642337,33.9662417 71.8705702,34.1858699" id="Fill-59"></path>
                <path d="M133.862896,33.7254324 C133.755997,34.3107677 133.581791,34.7768496 133.342753,35.119703 C133.135389,35.4203209 132.843892,35.6513743 132.468261,35.8153477 C132.092136,35.9788242 131.66751,36.0608109 131.196858,36.0608109 C130.254564,36.0608109 129.498849,35.7328641 128.927732,35.0764737 C128.617428,34.7251731 128.381855,34.2864201 128.221507,33.7626991 C128.060169,33.2404687 127.978015,32.6531459 127.978015,32.0012274 C127.978015,31.2340308 128.096297,30.5483239 128.33187,29.9470882 C128.497662,29.5202605 128.709975,29.1391466 128.970294,28.8042434 C129.232097,28.470334 129.513201,28.2144361 129.813607,28.035556 C130.158059,27.8318315 130.561899,27.7304662 131.030076,27.7304662 C131.33939,27.7304662 131.618515,27.7801551 131.866955,27.8800298 C132.114406,27.9799045 132.354434,28.1394059 132.586543,28.3595277 C132.891403,28.649214 133.124997,28.9692105 133.287324,29.3180266 C133.377891,29.5128072 133.496173,29.808953 133.64019,30.207458 C133.66543,30.2710598 133.699578,30.3614936 133.746099,30.4822377 L133.888136,30.4822377 L133.813405,27.7001559 L133.66543,27.7001559 C133.623363,27.7950618 133.58872,27.8641293 133.559521,27.9048742 C133.493699,27.9918298 133.40907,28.035556 133.306131,28.035556 C133.230906,28.035556 133.144298,28.0166743 133.044822,27.9799045 L132.536558,27.8114591 C131.978803,27.6206537 131.450248,27.525251 130.949407,27.525251 C130.424316,27.525251 129.900215,27.6132004 129.377598,27.789596 C128.853497,27.9649978 128.405115,28.2040014 128.028,28.5026317 C127.541016,28.8926896 127.160437,29.4074667 126.888735,30.0494473 C126.615055,30.6914279 126.477967,31.3905508 126.477967,32.1512879 C126.477967,33.1430785 126.71156,33.9967338 127.179243,34.7132478 C127.646431,35.4282711 128.295742,35.9231726 129.125693,36.1979523 C129.64732,36.3673914 130.191712,36.4523594 130.762829,36.4523594 C131.374528,36.4523594 131.912981,36.3549692 132.377694,36.1596918 C132.842902,35.9659051 133.20814,35.6836721 133.472913,35.3134898 C133.750553,34.927407 133.927728,34.4071642 134.006417,33.7502769 L133.862896,33.7254324 Z" id="Fill-61"></path>
                <path d="M56.4588729,29.9300742 C56.1254987,30.016495 55.5728784,30.0597053 54.8010121,30.0597053 L54.4461137,30.0597053 L54.4461137,24.0931951 L54.8290435,24.0931951 C55.4952914,24.0931951 56.0093684,24.1349154 56.3702735,24.2178595 C56.730678,24.3008036 57.0425281,24.4478183 57.3038214,24.6584068 C57.6401989,24.936046 57.9029939,25.2896758 58.0927069,25.7187997 C58.2829204,26.1484202 58.3775266,26.6068477 58.3775266,27.094082 C58.3775266,28.0094469 58.0506597,28.7748171 57.3969259,29.3936694 C57.1045977,29.6643551 56.7917466,29.8436534 56.4588729,29.9300742 Z M62.4861383,36.2402809 C62.2308518,36.214454 62.0301265,36.1662769 61.8839624,36.0907829 C61.7377983,36.0162822 61.5866286,35.885161 61.4309539,35.693446 C61.2382376,35.4580238 60.9999701,35.0795604 60.7166521,34.5580558 C60.4333341,34.0355577 60.0148644,33.2095936 59.4607424,32.0796668 C59.2244772,31.5859757 59.0467778,31.241286 58.9286452,31.0460942 C58.8105126,30.8509024 58.6798659,30.689981 58.5367052,30.5608465 C58.3560024,30.3934683 58.0791917,30.2330436 57.705272,30.0780822 C58.1597821,29.9792446 58.5226895,29.874447 58.7934935,29.762696 C59.0637969,29.652435 59.311575,29.5108837 59.5353261,29.3365522 C60.270151,28.7559436 60.6370628,27.9841167 60.6370628,27.0205747 C60.6370628,26.3719222 60.4678729,25.8022404 60.1284919,25.3110327 C59.789111,24.8198249 59.311575,24.451295 58.6948828,24.2034561 C58.1472681,23.9879008 57.3904186,23.8582696 56.4258359,23.8145626 C56.1895707,23.8090992 55.694515,23.8056225 54.9411694,23.8056225 L50.4406177,23.8056225 L50.4406177,24.0181977 C50.795516,24.0370712 51.0848408,24.0862417 51.3085919,24.1667024 C51.5328437,24.2471631 51.7290639,24.3767943 51.8972527,24.5560926 C52.0964763,24.7537677 52.2301263,25.0040899 52.2987033,25.3065626 C52.3672803,25.6090354 52.4013185,26.0783896 52.4013185,26.7146253 L52.4013185,33.5438533 C52.4013185,34.1790957 52.3672803,34.6494432 52.2987033,34.951916 C52.2301263,35.2548853 52.0964763,35.5042143 51.8972527,35.702386 C51.7290639,35.8747309 51.5348459,36.0033687 51.3135976,36.0863128 C51.0923492,36.1707469 50.8015228,36.221904 50.4406177,36.2402809 L50.4406177,36.4523594 L56.4073151,36.4523594 L56.4073151,36.2402809 C56.04641,36.221904 55.755083,36.1707469 55.5343352,36.0863128 C55.3130868,36.0033687 55.1183683,35.8747309 54.95068,35.702386 C54.7579637,35.5042143 54.6253148,35.253892 54.5542351,34.9469492 C54.4821541,34.6419932 54.4461137,34.174129 54.4461137,33.5438533 L54.4461137,30.2638372 L54.9041278,30.2638372 C55.1844424,30.2638372 55.4207076,30.2901607 55.6139245,30.3428079 C55.8066408,30.3944617 55.9868431,30.4828691 56.1555325,30.6060436 C56.4854027,30.8533858 56.8498118,31.3137999 57.2477584,31.9877827 C57.6462057,32.6657388 58.0416495,33.4474991 58.4335895,34.331077 L59.0873233,35.8042036 C59.1303716,35.8965844 59.230484,36.1126364 59.3866593,36.4523594 L62.4861383,36.4523594 L62.4861383,36.2402809 Z" id="Fill-63"></path>
                <path d="M150.717108,36.2406847 C150.054947,36.2406847 149.505627,35.8938562 149.068668,35.1982115 C148.835784,34.8210727 148.636031,34.3053019 148.46653,33.6513959 L148.328719,33.6454333 L148.310473,36.2163371 L148.448283,36.2163371 C148.521269,36.0160909 148.652837,35.9182037 148.846828,35.9182037 C148.906369,35.9182037 148.960149,35.9251602 149.007686,35.9420544 C149.055704,35.9589486 149.204558,36.0230473 149.452808,36.1343505 C149.931062,36.347019 150.428042,36.4523594 150.946151,36.4523594 C151.511796,36.4523594 152.003015,36.3206838 152.420287,36.0583264 C152.837078,35.795969 153.149191,35.4223085 153.358067,34.9373448 C153.506441,34.5895224 153.580388,34.2238121 153.580388,33.843692 C153.580388,33.2707789 153.416649,32.7674303 153.088209,32.3361307 C152.799144,31.9500479 152.329053,31.5967598 151.676496,31.2767632 L150.829468,30.8529169 C149.968035,30.4290705 149.536839,29.8700704 149.536839,29.1764133 C149.536839,29.0015083 149.56853,28.8275972 149.630473,28.6526922 C149.691935,28.4777873 149.777886,28.326733 149.886406,28.1980388 C150.14618,27.8820173 150.500069,27.7240066 150.949032,27.7240066 C151.257304,27.7240066 151.528602,27.8020182 151.766289,27.9580414 C152.001574,28.1130707 152.219093,28.3525713 152.414524,28.6770398 C152.522564,28.855423 152.615237,29.0492097 152.693506,29.2593937 C152.771774,29.468584 152.864928,29.7706926 152.972967,30.1642287 L153.112218,30.1642287 L153.069002,27.6931995 L152.931192,27.6931995 C152.882695,27.9048742 152.789061,28.0112085 152.647889,28.0112085 C152.591709,28.0112085 152.527365,27.9987863 152.454859,27.9764262 C152.383793,27.9530725 152.247424,27.9004022 152.046231,27.8169249 C151.777813,27.7006528 151.562695,27.623635 151.402797,27.5838839 C151.242899,27.5446297 151.067635,27.525251 150.879407,27.525251 C150.297915,27.525251 149.794212,27.7284786 149.369738,28.1349339 C149.12869,28.3639997 148.941422,28.6372887 148.806973,28.9567883 C148.671564,29.2767849 148.60482,29.6092036 148.60482,29.9530508 C148.60482,30.5135417 148.778163,30.9880707 149.121968,31.3786255 C149.246333,31.5202389 149.410073,31.6588709 149.612226,31.7955154 C149.81534,31.9321599 150.107286,32.1006053 150.488544,32.3008515 C150.921662,32.5284267 151.243859,32.7182383 151.453695,32.8663113 C151.664492,33.0158749 151.827271,33.171898 151.944914,33.333387 C152.057275,33.4918946 152.146107,33.6792217 152.211411,33.9003373 C152.277675,34.1204592 152.311767,34.336109 152.311767,34.5477838 C152.311767,35.0377164 152.160512,35.4416871 151.859923,35.7616837 C151.559334,36.0816802 151.178075,36.2406847 150.717108,36.2406847" id="Fill-65"></path>
                <path d="M19.7413111,4.46355422 C19.7413111,4.46355422 21.2301128,3.01064554 21.0672044,1.9289401 C20.9303161,1.02245473 19.5755744,0 19.5755744,0 C19.5755744,0 18.1224089,1.11310326 18.069803,2.07782652 C18.0098437,3.17523088 19.7413111,4.46355422 19.7413111,4.46355422" id="Fill-67"></path>
                <path d="M30.6829921,36.7004952 C30.0306915,39.9532089 30.248125,42.56171 29.6676419,45.7126546 C29.1673961,42.7136331 29.0614035,40.0243011 29.0866634,36.985838 C29.1000363,35.3736022 29.1877031,33.1113107 29.2694265,32.2523605 C30.0683337,32.0288582 30.9573843,31.8209377 31.856836,31.6329815 C31.6275154,32.503618 31.0044371,35.0975111 30.6829921,36.7004952 M21.2129939,30.6839487 C20.9569276,25.8847352 21.5478119,17.0069694 22.6765841,10.778607 C23.716699,5.04204707 26.3174814,0.611928936 26.3174814,0.611928936 L23.1124418,0.184401598 C23.1124418,0.184401598 21.7033338,2.91220131 20.3417739,6.62896233 C19.8915528,5.89564095 18.9311801,5.00357935 18.0634271,3.93622181 C16.9846794,2.6098158 16.8707621,2.02793065 15.3833978,0.469257513 L11.0173919,0.272536505 C11.0173919,0.272536505 15.0168811,5.1949441 17.1372296,8.62587533 C17.7256374,9.57831665 18.1614951,10.0837533 18.5914092,11.0994959 C18.2858136,12.7180618 18.0371766,14.2704048 17.8425265,15.2554707 C17.0772991,19.137302 16.5091983,21.9517759 16.0787889,24.9434934 C14.416091,24.2919768 12.738039,23.9467411 10.5820295,23.3828725 C6.86485712,22.40998 4.74549927,21.9357071 0.966415291,21.2301409 L0.821294503,24.2379272 C1.55531842,24.3757293 3.73658786,24.3810855 6.07040749,25.0949296 C7.43196736,25.5102836 8.1783736,25.8457806 9.42106321,26.5338172 C7.74202065,32.1325749 6.96441097,36.1083844 6.07040749,41.1354826 C5.28487312,45.5514797 4.94460698,50.6808339 4.94460698,50.6808339 L9.13032634,52.4425582 C9.13032634,52.4425582 9.4696019,45.5271331 10.0015464,41.1354826 C10.4022382,37.8228762 10.3408219,35.8775781 11.3071381,32.6813487 C11.9133765,30.6771317 12.4126317,29.7100823 13.3066351,27.6951528 C13.3066351,27.6951528 15.0906798,28.5336518 15.8311425,28.9597183 C15.6023172,33.2719986 15.1590302,37.6582928 14.9475402,43.5720963 C14.8207452,47.1422904 15.0921656,52.9572466 15.0921656,52.9572466 C15.0921656,52.9572466 17.4596652,53.5001771 19.1585194,53.5586091 C20.3660433,53.5999984 23.4021881,53.311247 23.4021881,53.311247 C23.4021881,53.311247 21.5656424,43.9665122 21.35861,35.1179623 C21.9826789,34.8204461 22.8306202,34.3276698 23.8375504,33.9770779 C24.6701376,33.6868657 25.1565151,33.7521147 26.0267446,33.4063922 C25.9895976,34.5063742 26.2179276,39.8144329 26.2466546,42.9580736 C26.2788486,46.4649664 27.6230732,53.2133734 27.6230732,53.2133734 L32.8726815,51.4448321 C32.8726815,51.4448321 32.7260748,48.8265923 32.7270654,47.1515422 C32.7295419,43.8467266 32.7339995,41.9540173 33.3080439,38.6974082 C33.85138,35.615608 35.0648474,32.0687867 35.4848557,30.9688046 C36.9296247,30.7394591 38.1094122,30.3971451 38.1094122,30.3971451 L38.1787531,27.4989187 C34.7528129,27.7194995 32.8984367,27.9186551 29.5958244,28.6071787 C26.1827618,29.3195619 24.0252664,29.5766626 21.2129939,30.6839487" id="Fill-69"></path>
                <path d="M8.06729702,27.179542 C8.06729702,27.179542 6.03740537,25.785831 3.84919483,26.1314183 C1.6624457,26.4765322 -0.000146140499,29.6545152 -0.000146140499,29.6545152 C-0.000146140499,29.6545152 1.92160154,31.5088514 4.3465597,30.8470281 C7.8583161,29.8888517 8.06729702,27.179542 8.06729702,27.179542" id="Fill-72"></path>
                <path d="M15.9929177,8.51231369 C15.0498255,6.2876053 13.9910262,5.0655892 11.8406704,3.71962851 C10.3264395,5.99130028 10.1446895,8.05720468 11.2404728,10.5220557 C12.2723266,12.841175 16.3891749,14.8785141 16.3891749,14.8785141 C16.3891749,14.8785141 16.9751072,10.8299805 15.9929177,8.51231369" id="Fill-75"></path>
                <path d="M8.03821844,14.182249 C7.34754212,16.6052145 7.07635009,18.1129727 9.09454693,20.5557237 C11.1132516,22.998982 15.0313162,23.8056225 15.0313162,23.8056225 C15.0313162,23.8056225 15.3878271,18.2803887 13.4392057,16.1927624 C11.4900765,14.1046289 10.2813929,14.0361405 8.03821844,14.182249" id="Fill-77"></path>
                <path d="M6.02276032,15.6224398 C6.02276032,15.6224398 5.74963588,12.7161469 4.65480373,11.4395 C3.73551823,10.3671166 2.92268122,9.90058269 1.57433357,9.67103414 C1.35209898,11.3006801 1.65930561,12.4662711 2.64488799,13.7374644 C3.59078562,14.9585834 6.02276032,15.6224398 6.02276032,15.6224398" id="Fill-79"></path>
                <path d="M9.78698552,12.6467369 C9.78698552,12.6467369 9.36558616,9.20920254 8.01922241,7.39885772 C6.67285865,5.5885129 5.44277614,4.92626216 3.34010384,4.46355422 C2.77887869,6.56646541 2.82837029,7.97338674 4.3467534,9.95290915 C6.28749687,12.4843072 9.78698552,12.6467369 9.78698552,12.6467369" id="Fill-81"></path>
                <path d="M8.28129544,20.8275514 C8.28129544,20.8275514 7.14335594,17.3769194 5.41753986,16.1493156 C3.87524615,15.052539 2.61781544,14.7272809 0.75284504,14.9398104 C0.760407775,16.7946609 1.27114446,18.0248502 2.5704223,19.3150235 C4.22313195,20.9563102 8.28129544,20.8275514 8.28129544,20.8275514" id="Fill-83"></path>
                <path d="M9.19564093,6.69533133 C9.19564093,6.69533133 10.0205162,4.941556 9.72180398,3.85235431 C9.38599676,2.62853748 8.66410886,1.88602878 7.42142691,1.48785141 C6.69856282,2.53265373 6.58776596,3.52266533 7.06267937,4.69310843 C7.48585504,5.73696609 9.19564093,6.69533133 9.19564093,6.69533133" id="Fill-85"></path>
                <path d="M30.4332754,6.13639021 C31.7714297,5.36213614 32.3723367,2.24069399 32.3723367,2.24069399 C32.3723367,2.24069399 29.2809478,2.0789302 27.8640192,3.1333905 C26.4470905,4.18738994 25.5967314,7.43925703 25.5967314,7.43925703 C25.5967314,7.43925703 29.0961311,6.91064428 30.4332754,6.13639021" id="Fill-87"></path>
                <path d="M31.1245025,14.7921673 C32.8709091,12.4459835 33.3977116,10.3819486 32.9993141,7.44820757 C29.9512805,7.33241531 27.8045234,8.33459985 25.8696592,10.7763502 C23.9499301,13.198886 24.0934704,18.5981426 24.0934704,18.5981426 C24.0934704,18.5981426 29.2365085,17.3310011 31.1245025,14.7921673" id="Fill-89"></path>
                <path d="M35.0522924,5.80493971 C36.0371014,5.42583811 36.7743382,4.29304104 36.889407,3.95856615 C36.5192941,3.85488794 35.3023552,3.54745953 34.3808091,3.84812632 C33.3143063,4.19747679 32.4067079,5.75219906 32.3723367,5.75129751 C32.4077042,5.72154638 34.0903975,6.17592737 35.0522924,5.80493971" id="Fill-91"></path>
                <path d="M22.6970401,27.5238604 C23.3145676,27.5770299 28.2563019,26.102526 30.435068,23.6187514 C32.5189076,21.2413157 32.3689438,20.3222431 32.3704586,18.0307331 C29.1818357,17.4539391 26.6289177,18.2861366 24.503674,20.5947367 C22.5662637,22.6977799 22.4097359,25.9938134 22.6970401,27.5238604" id="Fill-93"></path>
                <path d="M39.1421302,19.4884462 C36.8285457,19.2293604 35.8070433,19.0498441 33.5135591,21.3704568 C32.1039682,22.7959136 31.6169249,26.1024107 31.6195018,26.0364264 C31.6895948,26.0383671 35.2576379,25.8146994 36.8635922,24.4760896 C38.5484012,23.072951 39.2184079,21.6043132 39.1421302,19.4884462" id="Fill-95"></path>
                <path d="M33.5498688,14.3391093 C32.5930251,16.022728 33.5479071,19.3152054 33.5773334,19.3419776 C33.5832186,19.3541009 36.2673836,18.148846 37.2556153,16.6490968 C38.2791586,15.0952981 38.5650837,13.8162934 38.3041709,11.9584026 C36.2619888,11.670475 34.5910679,12.5064754 33.5498688,14.3391093" id="Fill-97"></path>
                <polygon id="Fill-99" points="50.4406177 49.0990964 58.7219131 49.0990964 58.7219131 48.3551707 50.4406177 48.3551707"></polygon>
                <polygon id="Fill-101" points="50.4406177 20.085994 154.333233 20.085994 154.333233 19.3420683 50.4406177 19.3420683"></polygon>
                <polygon id="Fill-102" points="146.051938 49.0990964 154.333233 49.0990964 154.333233 48.3551707 146.051938 48.3551707"></polygon>
            </g>
        </g>
    </g>
</svg>